<mxfile host="app.diagrams.net" agent="Mozilla/5.0 (Windows NT 10.0; Win64; x64) AppleWebKit/537.36 (KHTML, like Gecko) Chrome/129.0.0.0 Safari/537.36" version="24.7.17">
  <diagram name="Page-1" id="S1IrZ2zBQ7m6RxPbRS6_">
    <mxGraphModel dx="1984" dy="638" grid="1" gridSize="10" guides="1" tooltips="1" connect="1" arrows="1" fold="1" page="1" pageScale="1" pageWidth="850" pageHeight="1100" math="0" shadow="0">
      <root>
        <mxCell id="0" />
        <mxCell id="1" parent="0" />
        <mxCell id="AIz6P5B00cFlkQq6YOMH-27" value="" style="verticalLabelPosition=bottom;verticalAlign=top;html=1;shape=mxgraph.basic.rect;fillColor2=none;strokeWidth=1;size=20;indent=5;fillColor=#dae8fc;strokeColor=#6c8ebf;opacity=60;" parent="1" vertex="1">
          <mxGeometry x="-10.47" y="51.95" width="810.47" height="478.05" as="geometry" />
        </mxCell>
        <mxCell id="AIz6P5B00cFlkQq6YOMH-23" value="Kopiowanie plików faktur&lt;div&gt;&amp;nbsp;z DEG do SFK&lt;/div&gt;" style="verticalLabelPosition=bottom;verticalAlign=top;html=1;shape=mxgraph.basic.rect;fillColor2=none;strokeWidth=1;size=20;indent=5;" parent="1" vertex="1">
          <mxGeometry x="316.15" y="407.75" width="87.88" height="54.5" as="geometry" />
        </mxCell>
        <mxCell id="AIz6P5B00cFlkQq6YOMH-16" value="" style="html=1;shadow=0;dashed=0;align=center;verticalAlign=middle;shape=mxgraph.arrows2.arrow;dy=0;dx=10;notch=0;rotation=0;" parent="1" vertex="1">
          <mxGeometry x="-90" y="89.67" width="100" height="32.45" as="geometry" />
        </mxCell>
        <mxCell id="AIz6P5B00cFlkQq6YOMH-1" value="Replika CRM" style="image;sketch=0;aspect=fixed;html=1;points=[];align=center;fontSize=12;image=img/lib/mscae/SQL_Servers.svg;" parent="1" vertex="1">
          <mxGeometry x="-140" y="80.9" width="50" height="50" as="geometry" />
        </mxCell>
        <mxCell id="AIz6P5B00cFlkQq6YOMH-2" value="&lt;font style=&quot;font-size: 10px;&quot;&gt;&amp;nbsp;&lt;/font&gt;" style="image;sketch=0;aspect=fixed;html=1;points=[];align=center;fontSize=12;image=img/lib/mscae/SQL_Servers.svg;" parent="1" vertex="1">
          <mxGeometry x="320" y="83.9" width="96.1" height="96.1" as="geometry" />
        </mxCell>
        <mxCell id="AIz6P5B00cFlkQq6YOMH-4" value="" style="shape=image;html=1;verticalLabelPosition=bottom;verticalAlign=top;imageAspect=1;aspect=fixed;image=img/clipart/Gear_128x128.png" parent="1" vertex="1">
          <mxGeometry x="-70" y="93.62" width="23.48" height="27.55" as="geometry" />
        </mxCell>
        <mxCell id="AIz6P5B00cFlkQq6YOMH-5" value="" style="image;aspect=fixed;perimeter=ellipsePerimeter;html=1;align=center;shadow=0;dashed=0;spacingTop=3;image=img/lib/active_directory/site_collection.svg;" parent="1" vertex="1">
          <mxGeometry x="511" y="83.9" width="50" height="47" as="geometry" />
        </mxCell>
        <mxCell id="AIz6P5B00cFlkQq6YOMH-7" value="GUI użytkownika" style="shape=image;imageAspect=0;aspect=fixed;verticalLabelPosition=bottom;verticalAlign=top;image=data:image/png,iVBORw0KGgoAAAANSUhEUgAAB3cAAAN4CAYAAADQvGJBAAAAAXNSR0IArs4c6QAAAARnQU1BAACxjwv8YQUAAAAJcEhZcwAAEnQAABJ0Ad5mH3gAAP+lSURBVHhe7N0JeFTV/T7wN+uQkEwICUlIgEAEQjDsBiEIimLRstQN64J1ba22vy5S17Zara3bn+5qbbXaikvFqgWt4AYIAoLskTUEEkhIQkLIZJ2s//M9904yk0ySyb69n+e5cOdm1nvPPfec873nHK9Zs2bVgoiIiIiIiIiIiIiIiIiIejRv838iIiIiIiIiIiIiIiIiIurB2HOX+ryqqipUVFSguroatbW1dQsRERERERERERF1DS8vr7rFx8cHfn5+eiEiIqLWYXCX+iQJ5EpAVxYGcomIiIiIiIiIiHoeCfT6+/vrRQK+RERE1DIOy0x9Tnl5OYqLi2G32xnYJSIiIiIiIiIi6qGk7U7a8BxteURERNQyBnepz5BeuoWFhTq4y6AuERERERERERF5gu1I3U+OQVlZGWw2m27jIyIioqYxuEt9ghT6SktLe31hnJUJIiIiIiIiIqKuJUMDU89QU1Oj2/gY4CUiImoag7vUqznu6pNCHxEREREREREREfV+0tYnbX7sCEFERNQYg7vUq8ldfJyPg4iIiIiIiIiIqG+RNj/24CUiImqMwV3qtaqqqvQdfERERERERERERNT3SNuftAESERFRPa9Zs2Z1ydgWAQEBfSoQFxERgQsuuADjxo3D0KFDUVJSghMnTiAlJQVfffWVfuwwceJEjB49Gu+88465pXcIDw/H9ddfr9ffeOMN5OXl6fWeQIZksdlsXTo0i+yP6OhoZGVlddq+kN/DeV6IiIiIiIiIiPq+0NBQ3b5VXV1tbiF3pK3MarX22DazAQMGIC4uDqmpqX2+p/GgQYNw66234ve//725hXoDb29vHcfw9fXFgQMHUFlZaf6FutuwYcNw7bXXYuTIka3K42Rkg3379uH111/n8eynuiS4O2HCBMTExGDNmjXmlt5LArm33347vvGNbyA3NxdHjhxBfn4+ioqKEBUVpTNJCQD+73//w6uvvqoDgbfddhumTJmC//u//zPfpecbNWoU/vCHP+jfJpnK4MGD8ZOf/ATHjh0zn9G9ysvL9dIV5Hg+9dRT+hg67Nq1C/fddx9OnTplbukYDO4SEREREREREfUP3/nOd3Rb0Lp163Dy5Elza883ZMgQTJo0CXv27MHp06fNrZ1LAqiy9DQXXXQRHnzwQQwcOFAHWKQ9+B//+If5184lwSBx/Phx/X9XkPbRP//5z7rTU18jAdA777xTr7/wwguoqanR671VZGQkkpOTMX36dJx33nm6852QNvUnn3wSn3zyiX5M3efcc8/V59Phw4d1h8HWpLng4GDMnTtX58F33XUXRzjohzo1uCtBqvPOm6Yv+Nu2be9RPT/bIikpCb/5zW+wfft2vPfee/p/d+R53/3udzF27FgdAExMTOxVwV0Jxj/99NPYu3cvfvnLX+ptTzzxBMaPH69/j9wR0p0kk5O7GruCpGHpcS13Ncmxl98u++fnP/+5zjCvuuqqDu09zOAuEREREREREVH/EBQUpBvnpTOJBHilE0lPJ+1W1113nfkIePPNNzu0baw50ntXAnA9hQTL3n//faxYsQIvv/wyFixYgJ/+9Ke44oorUFxcbD6r83RWcNff3x9jxozR/zuTTi6SVh3BXRmpUgJMzuR3Hz16tFcGRr/5zW/iRz/6kV7/05/+pDtv9TZTp07VNxxIMHfEiBH6eEgM44svvsC2bdt0B7XLL79cxyluvPFG3Xmtt5CRDm6++WZ861vfgp+fnw5Sb9q0Cc8991zd75D0effdd+ugtsVi0b1b//Of/+hztKviCa0hNxFkZGTouENbyDVEfp/sg//+97/mVupM0olVRvVtK0mrmZmZ5qP26bTgrlxop09PQkhICLZs2dojT57WuPDCC3VA7//9v/+Hjz76yNzaNCnoSAYpvXYlICj7ozcEdyXje/zxx3UvawnwOsjvuffee3HZZZfhF7/4BTZv3mz+peuVlpZ22RAn0htb7mKS4amdg9oS4JWhqufNm4fs7Gxza/s1GdwNm40brhmOE2+/jo355ra+ZunL2PxAPA49mYxbV5jb+oClL2/GA/GH8GTyrejVP+vxVUi5Ihzb+9jx6SseX5WCK/AeEhf/wtziIX3eJSHvvUS09qVtob9n+Pbefz4QERERERG1ggThZOhlmdLNQToSOIZjlkBZQkICPvvsMz20b08WHx+PmTNn4t///je+/e1v6zZC6XXWFSTYGBgYaD7qepdeeqluG5WgkZDgruwPCaY5es1JsNcxyqOQ3s0SAHc87kidEdyVtPjwww+73c/SI1lGM3QEd+V/55EOHWQkSwlyd1QAoytI2/3bb7+tA2Q+Pj5YuHAhrrnmml4TpJZg00MPPaSPx9dff40vv/xSB3UPHjzo9jdIsHP9+vV48cUXzS09m4yiKp3O9u/fr9vqJUA2fPhwXH311brX/P33369jBhLklJ6sq1at0qMhSNu+nLMy9LGMSio3HvQkclPPb3/7W3z88cfmltabP3++zl+6M17TH8gNBRIvk46d7SXn5s9+9rN2T8nQKbc6yQ+dNStZ3zmwceOmXh/YlbuQpAfrPffc41FgV0iQTjLJv/71r5g2bZq5tWeTu3akh658Z+fArpDfI9vkbhJ5jjy3u3TlGPJyt4+QuQicOR47/k7NGYtFd96JG2aHmY+dSNBa/W3RWPMx9SkSyJN5yI1lM15eav7BraV4WRVCmn8OtZsEc9XxWPW4+ZiIiIiIiIg6nXSmmD17tvnIID3sZEQ4CUxs3LhRB2SkF294eLj5jJ5HOiRIj0AJWJaVlelR/6Sh221HhU7QnfNKynF65JFHUFBQgJ07d+pFekNKwNN5ONR//etf2LBhQ91zLrnkEtxwww3mX3s+6bkqAeqLL75YB3Cdl4bDTUtHpobPkTZjGb3zpptuMp/VO0gwVwLactOCdOiR9e5s/24tCXzKzQ9yw4X0XP3nP/+pA6FNBacl7faWmIVMgymdzWQk1R//+Mc6cLt161asXLkSt9xyC3bv3q3jFTIPtAS177jjDt2bVdYlWP+DH/wAa9euxTPPPKM7IvYkEkdry3DKNX4DUDRpHgpmX4f/nChlYLcLSF4uI/TK/MgN872mlqbIdVPer706PLgrmcgFF8zSd59JYFfumOjtHnjgAXzwwQc6QNESmW9Chm2QO5dkkYJbb5jQWi640jNX5oh46623zK2NyQVOniMXjO64SEtm1xVDvUjGOnHiRH3CCrnrSU46x+K4K03+LsfcccdeTzB20Z24s1G01AiwdksQdWw8opGFr9x0OQ4bPxzBRfuxuRNu8NSBRUawuk1dD011jsh58uR2deF6oIngrQ44PoAkq/m4B5Oe2CmbXwZj0EREREREROSJ2NhY3W4k88XKMKkOO3bs0L3PJMArww1LsEV6OkpQraeSIIu0+TpGt5PgrrShyfauIG2CbQmEdATp/COkl50EOZ0XZ9Ku6vw36WUoIwD2FtKRRYa6beuoidKDUILa0dHR5paeT9KwBAmlo5YM9Ss3Lkhv69tvv71HDQPeFDknZ8yYoacW9HSESbkBQY5xb/h9MqLmsWPHdK9c57iApFU5dnLThXTEkhtkfv3rXzeKxUiA+y9/+QtycnJ0YK63qvEfgLOzluDE3S8g475/w3b+t6TLOSrDYpD/je+iawbH77+kF7iMUiEjE3SEjsgjO/TslaEoJJgpF9lNm77QY5r3dhLgkwKKTIbvCckU5W4RGaLCschr3333XfMZPY8MkyF3kMnE257c5SHPkTte5DXy2q7UFQU4mWRehkR4/fXX9ZAOQubNaLgI+ftrr72m77CUIViosbHxKqPKOoTG8dswjB8ejKIT+9FXR5rut5a+jIvjbNj+XP3QuytufQ7bbVYkXesccH8cq6RX7wNJ6AVx3b5hxa1ITuyaIZiJiIiIiIgIerhlmUtXGoXHjx9vboUejlHak2SYUBk2VIaClYCLBHrPOecc81k9gwSPpEex9PSTtk5H+5z8L+2g0glC/i7P62zd1YnGEQRr7TC9vWVYXwfphd3ejjXym7uqN3d7yHeMjIzUHZjkBgzpCeogQfre0ntXzkOZW1fyEE9Jr17pBdsb0qeMFiA9cBt+V7nRQubgle3SOU969zb3e6S9v+EICj1d1cBQlJwzDacX/RhZd/wRZy9aiurQKPWHSoRseguDPn8DoRvfREDqDtijOTRmZ5JrQEeeLx1xY0WHBXdl8vQ5c2ajqMiGL77Y3Ct6q3pC7paTsellOAlPyF0izndnORaZM6MnknHpZ82ape9EOnTokLm1ZXIBkNfIa6+44gpza+friuCu3O0jwzvI8DjS47ClRZ4nczI4AsHkJGw2zosuwn53XXPHJmN8sPsevdS7Lb0kHlbbIXzqMqnqCnx6yAbETURdeHdpDMJhw/Yn1bn05Ha1RkRERERERNR3yJR10nNXRgOUtjRZl23OHB0tpINJSUmJ7qHWVT1h3ZEAkXwX6cTwrW99Swe+pA1Q2hDl+0nvOGfy26S3o/xdnifPX7x4sX69vE9HB/naO0ch9V9yc8UPf/hDPTyvdNaR9noZvvc73/kO/vjHP7p0VJPRSF966SU9gqX0ZG64yNDNPYncdNHUMMtLlizRgWt3v8N5kZ6/y5Yt0x34ehKJOzXsLTl58mSMGTMGixYt0qMieELm4g0LczNtYA9VGjcFJ+9+HqevexglEy9GlQR1HXz9kHflz5D53T+hcnA0vO0lQG3vupGkr5DruswJ3R06JLg7aNAgPceuDCWybdv2XnHHh6dkUny5i66vmjNnDj788MM2dSeX16xZs0bPB9JVumJIZhkiRyaU93T4EXmePF8mZu8KetjlOx3LItTdkzN2kd42V3r0R8+t+/sc/fy5MDabrzPHZw6bfQPuvGE2wsxhm92+r0k/1/k5+nXCfK2bMZ+NYZdPYL+b+G3TPXobztXqZn7Qx1e5/N3lOebfrohT63FXmH9fVR9QdEe/puGQwTIHrHptwyF49XOd38/sfVq3NPVZnj7PDT1ssfH9Wto3dcNR1+2j5r5rCja7HSe5Hd9V7a1L4q1AXmZdr12HFZlyk0w4YhwfqXuRJuPWhk9sknlM3Ay3rX+307Gq2w/mHLPufq+xLxsed/O3N/wM830ekLGjrUl4QL+fJ3MEG+9nHJL671H3XRukZTc/rdFzmv3cBr+3Ufo1/+72c5zo4aed3sd9OnGo/42tex0REREREVHfJr12ZZjUs2fP4syZM3pdtjmTti4Z5tgRCJUevjJco0x91x2k17CMaidBXhkmWuatlLkuZS5ZGZmwYXBVOmJIUEj+Ls+T50ubobxe3qejeyF3RdugM+m9+b3vfQ+PPvqouaVl0kb49NNP656Ct912m7mVupsM2SuddE6dOoXVq1fj5z//OZYuXYpLL70UH330kfmseo45XWVu4YbL44+30LDSxbZt26bPt4ZkVADpoStz1N5zzz1uf4tjkYC3dHT77ne/a766Z5CgrPSwdibDK0t7vNxY0jCwJsdTgvgNyegCkg/3BrYp81Fwya0ITN1hbjHyPv8TB+CXm25uUfnvkBE4dcNjKB8+HpacY+bWnsd5SgJnEriXxZ2mXtOTSMe/v/71r902omu7g7tS6Dj//Om6wDF8+HAsXryoXcvFF3ddoNATUgCR3rjtJfMyyDC/PY10/25PoUgC+V05Nn9X3Dggabq1+0Se39F3IjYWjPHX3In4Qy/ghRdkeRv7i6Ix1xFkPbxab18ncfqsdeZzVuPz1fL/Ohibzdeudg6pDsf8O+NxSD9fFvN9nQK8Eti9ZnwR1rk8x/xjk8YieXwwsr7a2HjY5WZ69MbfnYKJe+t7Rj+53Ya4K5yDUUvx8sXAe+bf659jBrx+sVhvey9Nrae9Zz5nMZodhfYXe5EGK+IvcQ5EjUOYjBVsjYfz5scnxqn33Wu8nw6UXYHw7U/WfZf30uJwRaNgaDzuTpmIveZzEhOfxHabu+c1r+V9Ywq/GJsn7jWfZ/52HSB0/a7SWxZJD7gGMt38psT3gCt0tNxztvyD5pqTg/ld2ztXgvt3A8/V/Q51lNXvdfzcXyyW4+A6VPTjq65AnG07nmw4brE5nLHsc8jf9Xt6HpiW41R37KSXsjUJd2/ejJSL853mJXZKxyYdEL4i3OjdXPc8OWxNHHfn36sOXJoEols5R7B85gNJefXnmJlOWgrUhl+8GXfjubrv6djfDPASEREREVF/JO1E0lNQeuw6SBujbGvYhiRDM0vvs4iICB1QFRKI6A7SY1ECszJ36ldffaWDzTJXpcxD2hz5uzxPni+vk9fL+8j7daSu7lR04YUX6kCSBLYlANYSGZr6T3/6k153BNOkVyh1P+mYJp3U/v3vf+s5daXX/PHjx5sdgTQ1NdVl+kXH0rAHe3eTmyokz5BehM5mzpypO3YtX75cB4Ad31/yGWnPdv5N0ov5lVde6XFTDz777LM6P3GQuU9leGUZSVNuLLnmmmvMvwChoaG69/F1112neyw7k5FZZYTVnq4qMAT2mLEI/fQVlMbP0Nu8iwsQ/eJPEP2vBxDz9x9hyDvP6O2iJmQIKmLi4VXTM0c1kFiCxMUefvhhc4th0qRJerhtWWTdmTxXXvOzn/3M3NLznH/++Tqvlxue5BouN/I4FulZ3hXaHZWTTMAxnG9Gxgk9JHN7ll27duv36imkENIRQwFL4aw3TSTfU7UnEN0XFO1/G/Vx2Xxs/CoLCB6O8e0ZUSIYOPH2aqcetOp9X5dgcDTOm228cdgg9SSXXrbqOasdQdvDWC0BX5eAsTI2Xr1DFg41jt8206PXChx60mU+0BW3JutAbdzFjgDVCtya7BqsXXHrZzo4G9bmUYt+gb3qM6zxl9QHwR6fiDhbGtJszu/7OIzYrvHpj1+bBKttO55zivD9YvF76rvE4WLngJb+Wc7fWX6Dm+c1y5N9Y7Lm4TOX4KQExONg2/4kkp2jkRKwNN6gLqCof1Pae67P+8ViI6jZIdpznForDe8l18/7i1+8BfkZcRMdUVF1HJ7bDlvcFUagdGnjuYI7jNqndYdE7ffPJL2pQ+o6L7GRjutuMnB8nyddg8jNHnfn36tS3GIzkOwy1XFz9GfK13VKr+r7Pqd2nDXp2mZvRrDmfeY23bT0OiIiIiIior4oLs64SVoafR1kXQK7jr85yKhwMi2c/C/BSwlCDB482Pxr1zp58iQ+/vhj3dh+wQUXmFtbR14nr5f3actogc3p6uBucnIyPv30U7z88ss6ANYS6eAj7cASnHAEzWTOZep+9957L/Lz8/H88883CoK64+fnp4M0Mqd0w6Wn9SqU80yWpKQkc4tB8hHpqdzQN7/5Tdxxxx3mo3qSR0n67Unk/CkoKKjb9zL8uwTlZb5vCQxKh0PZLn70ox/pERJuuOEGHfy1+9tRHFysl48//1j3pu/xfP0QuuE15C36EeBjzGMugV5L7nG9LgYe2ISgHWvMR0DpmCTU+Hs2PHVXkg6hjtEqpNe8s3PPPVf/XRZZdybnp/Q4/+uf/4xLEuLx3Tmz8JurFuOHF1+IhZMmIKKJ3r5dad68efq7y3DuDfMJmSe6K3RIl8vjx9Px1Vc7MGxYjL77RTLJti5yovYk8n1GjhxpPmo7ubDL7+st5M4WyRwdY+7LelfOrduUzu8d2zS5UMi8IfJ/9yjCiYbR0PyzamswBrUnuOs2yJqPs0VAsPnG+fIgei5uMIO9nmh62OUwjB8erD52vxkcdmbDIdeJWrWD+TbAGgaXmKDuYeoY/vUKSLUovG68X/caDhkrS10vTh3drf8M6aFrO/QW9uY5BQPNOWKNTqlmoPezhoHAgzC+rtO3bTT/rHB9XnPfzdCKfWPLV+/uZOkliLe6f71rr2XX4LUzY0jlei1/36Y49l8XcPSwrrMCxsjQMfVBUTNwGXfxKqy6WxWAtz/XimGiTY2GTW48HHHDfaqPG/KQ2cxnuZ+72GCkV9de5Y1/r7IiU31Ky+eGg/GZ2/FWgzdqNKS2G02nm+ZfR0RERERE1BdJD10J2DoHI6WHj3SSkb81tGHDhrp2UZkL1Dko3NXS0tL0MLUy96/0XG0Neb68Tl4v79PRunIEQSEN960JdskQsqJhkI26X3Fxse5JnZGRoQO80l7fHJnP9S9/+Qv+/Oc/N1rk9T2N9N5tODRzU23pTZ1HPbFj1XPPPeey7y+//HI9ZLaQIe8lv5Q5v2XOYVkeeOABpOakIj0uHYcmHsKxccf0cnDSQWQPy0aNd8+eUtTXloezs65FTVCouQUoj01EwezrXJZK5zl4fXxRMaT9MayOJjcsybkiw4JLD15nctxkkZtn5H9nd999N/zOnsHLt30HD3xzPq5Nmobpo0biW1Mm4cfz5uIVtf2qqV3TO7YpMvS+/C6LxaKHZnYMby7Liy++aD6rc3XY1VDuDNm+fbu6eMdjwoREc2vvd+zYsUZ307WFTPAtd5T0BkFBQXpcehmiwpEgZV3ufJF5JrpTVxfgnMl+uP/++/X//U3+xtfxwrosBI+/psF8u01oZthljE3G+OAsfLWxrTc7mHOiPhCPQ3VD1Uov2JZJj8e6IWPNpa43pQ5yxsGI40qQ0wiG6iBa3ETd89Al2KYDvepPV7gG9VJSHoBMy9pazX631mo43+24MOn32zLzN3mipe/rEtx28PR7dLEVtz6H7erYx6l/nXthe8wcCtx5cenB2kbj9LjgXUt/Zt2cwk5LK4flJiIiIiIi6s+sVqsewU968+h2FKdF5taVv8lzmlJYWNjiMMidLT09HWvXrtVtmjIEqifkefJ8eZ28vjN0ddugtIlOmDBBB5Mk0NcS6dwjw+A+8cQT+Nvf/qZfIz3QqGeQOVpl2F4ZPlyOTXOdumTIX+mF7m5ZsGCB+ayeQ4Zdlt6RMhJpXyJB9ob7f9WqVeZfoYeTlptKHnzwQT2M7zHbMaSOT0Xh4EKX4HatTy1ODz2NY/HHUO3dM4cwFvbwESiedrn5yFAy+VIUzrneZbHHuQY3a3tgz13xxhtv6OMi+aIz6WEtIxw88sgjet3Z4gnn4tdXLMKgwABzC7DvpDFlgfDz9cFdc+fgoQXzzS1dT4Zzl9EAPv/8c532ukOHXg1zcnKxZcsW3bNRMpLu7GXZUeSuOZlIXOa9aCsZ/kCG8JBx/HsDCe7KRUDumHAMHyLr0s28uYJnV+jONLVv3z49vr/8318UnXUKwJpz+ur5e4PH4xqnOXkbanrY5eZ69LbA7I1aNydqK+Y79YzRk1b30tVDMptBXB30lZ6HS3FJvBW2Q58agVOzR2Tae65BvbrFw8is27lpW6thT92GPJ3r1vxN7eOmd6xpaYyEjpvvrdo887072NKX70aS2kN6HtweND+s0bu3Y+R5uNP1Z9bNKdxwaes5155jTkRERERE1PtIMFDmn129erXbRf4m9aye7sSJE7rh2l1PY3fkefJ8eV1n6eq2QRkS9sYbb9Ttup7Oo/jb3/5WBxClnVxIwJt6DumNLcEm6fU5d+5cc2vvJ3Ndy1DSjiGKncXExOi5nyWgLYsMyyw9lx2PZZE5RHs6mVNXekzefPPN5hboec1llAQZ7eBA6gEcH3Mc1b5NB29Lg0qRFduxw8V3JNvMK821egP3foaQz99odvHP7viRErrD+OgofO9C1ykBPtl/EMve+g9+t/ZTc4th7rh4XJ7oOqRzV5Ke7pIely7tnvbkDr/V6cyZAmzcuAlDhoSrDGF6t/a07AgyhIh0H5dJuNvqpz/9qf5fuphT+/j6GuPMd4dXX31VT0Iv//cp7ubsDRuP4cFAUY673rWHsfrt/Xo46Ei33XfHInl8MLK+cszJ66S5Hr2a03yjdYygaqPeqM4kGGuutt0KfHrIpoOSL+shmc0grg76yve6BGEuQxs7BYNb0nD4XKGHSvY86NbmfSN00Nbd6xW97xy/q+nfJMNUe8rtkMGO7+pu6ODWahQ4NoaTbpOlL+PuJCvSPkvW8w9bk+6um3+4u+khjd2lHUUfj4ZDNps9zF2Yx9fTewia+8yWNJluWrr5gIiIiIiIqA+Rtqv4+Hjs3bu3bh7Mhot0HJDndGc7l6ekbVeGs/WEPK+zew12xz6TYPz69evNRy2TBn8ZIlfm6d25c6e5lXqSqqoq3ZEpNzfX3NLY0KFDcdttt7ldZGjgnkZ6+0tPc4lFyNDozqSX4Z49e3R6lEV6Ssr56njs2NbTydD1//rXv/TUic4BXukp//e//x1nh5xFlX+VudXV0ONDMW6XsV8KwgpQ6V+p13uSGr8BKBl/AbyqKswtBv+cYwjd+Gazi09Zx3US6U43zXS9yWDDocN4Zs3HKl8FPkz5Gn/8xHUI5xtn9N8h8Dsl8iq9GyXAKz1AZ81K1neM9FYS2JUhNOQOreA2TNQsPZjlDiDJdORuIGqf3lDo7W7G/LjxDXrVGnPoRse762sbjPHznYdZHotF14xHcNF+OGKwYxe59tLVPXNRBCP2q54vQwstMp8xNh7RyILKdxtprkevQ8Pg2uOrZJhjG7abk4Aac8w6B58exyo3Q8bq57kLdjVjxaeHYFPvHR/uHMQ1gr5WVekKdwmmrcCtn8mQzVc0ml/18VWrGnyuFUl3v+wUkFTf+YEkt3ObNqelfdO0X2CxDlw+4PpdZd5ite9sdfPMNvGbHl+FVo3K+4u3sN3m+pt171hrGt5r5VjTxty+m+t+txE4du1hq3tzm+utsxQv362OQ9p7xpDSv1iM99Kcv7c5BLjTZMLtCX62muP7PFD/+4Xskyvi1HF/ruF8z3G4wnniY/P4Iu0zz3vcOo7dAw3SsHqvVXVfovF+0VS6cf14+Z7y8Q2/JxERERERUd8lvTQlkNLcfLPyNwkutTTnZ08gIxLKUMOekOdJz7rOxLbBziUBwvYeQ3l9dw8r3hJp55e5lJub21puwJC2fXdLT+3xK6MuyvRazz77rLnFIEHsf/zjH3WLI5jrvK2zhlLvaPL7ZPpICfA6ekxKnpqamoqi4CL9uKHo49EIywur67ErIwCUBJfo9e4k1wrnG2LsUXEqk/NH2Ko/wrus/rcUXHgDSsbNNB8BpaMmI/2+t3D85//Vi23SpeZferdgiwXnjYw1HwFnS0vxzJpP8P2LjKkBbp41A+sPHsG2Y/XTn0aGWDE20vN50duqI/JGZx2RR3Zat9pSteMlwCuB3QsumKUnFu6t/ve//+nhmWXogiFDhphbWyZDkfziF7/QcxGvWMGm7Y4gBbi+MNx3Z8rf+BWyEI25ei4XR1A2Hxu/Uhev6LnGHC+OQKwo2o+3vxqEa8y5X+68cy6is9bhhdede9463s9YrhlfhHUvrHY7tHLTwy6HYfzwYBSd2N+4R28dG7Y/+RnCHqif6/OKuDS85zQcrMz1agS8HM+ZiL1u5txdcetneg7dK/RzGgZbm7DiUxyyWWGFa49II+irtjfsIStzrT65HerL1H1fWS7Of8u1d6oMc/tZmNM8plcgLu09JCa3JujV8r5plrvv+kAS8t5rMD+sPM8MBNc9b+Jevc1zK3Br8pPYjvq5Wx9IylPfdXH7e+2q7/fkdpvL95u4N1GlCfPvHluKlzdLcNw14PyLt7br4ZkfaBi4dKgLfspnuwZdO8MvFieq3yuHzTwWdfvSzXFXaerJ/IvrnifHVyUaj4cIN8ixk/3pOHcc7xWGvS0ktLT3nkT+xfWvMT6+HXNHExERERER9UIy3HJLU3pJz86vv/5aD9/c00lw98yZM+Yjw4gRIzBt2jT9vzN5njy/s0ibYHcFd0tKjEBQa6fuk+dL56HeQnp3fu9738P3v//9Rr1VGw73K71XGz7nJz/5CS699FL9Pj3ZOeecg5qaGhw7dszcYrQ7L168WE+vKKS39g9/+EO3y3333aef09NUV1frXqxXXXWVuaVvkqGY77nnHtxyyy249tprza3GvLrCu9IbQ7KGwLvaGzHHYjA4bzAy4jJgG1zfu7XCr/vPS5n7ecaMGeYjdfwCQ1CrjmHgkW2IeONX9QFe/wCcvvqBumBu7g2PotbPiLcN3Lce1j0f6/XeLmpQiLlmGBQYiNe+dyuunGoMiT8hJhqv3P4dTB/lOlf26AjPY3ZttXv3bj1H9y9/+ctG+V5TS3Pk/drLa9asWUaK7yQS3J05c4Ye5uCTT3rvsMQyBMmvf/1rPbeCTPS8Y8cO8y+Nyd0WMiyAZC5ygbjrrrt0sLsneuyxx3TBSCaId4iOjtaTQMsFWnphi0B1Ismk18888wwyM+snr77yyiv1Me7KSaNlX3ZmoWjTpk3405/+hLfeesvc0jK5iMgdQzKhe3tI4b4rg9dhs2/ANcNP4G2XQG47hM3GDdcMx4m3X8fGhm84dhHunIsmg8LUDOmB+UA8Dj3Z0fMME3UE6cl7BfAeA7lERERERNS/Sa8eaSt77bXX9LyezZGg3w033KDb5HryaH/SxvnFF1/oXnEyTO306dMRFRWl2wyl96P0/tu6daseulgCZhIY66wpzaR9Wdoou8uf//znRgFOmV9XOgaJphr0H330UXz8cccHXyTQII4fr+/F1l5ybBcuXKg7LTUcjVN+pxxv2Q/SBiptoQ3nE5Yg+K5du/Df//4X5eXl5tae55prrsHVV1+N66+/Xv9OCerKyJ3Sri/HVIbV7gukjVsC7S+99JK5xSBxC+mBLMfQmdy08Yc//AGzZxs9JXu6iRMn4ne/+50eeVXa8k+ccwJnB5/Vwd34r+OBGsCnxqdRYFc4gr7dSW4GkvNJ5ip/5JFHYA8fgVO3PIXY5TfCq7YGFYOicPran6NyiOuNNA7B21Yj7OMXzUe9X8LQKPzphvpgvbNLl/8J/+/aqzBp+DBzS70XP/8C/97edLyuo8iNKzJtZ2s6gDZ0+vRpPR97R1wTOj24KyRTHDYsBunpGeaW3mvBggX67hwZykCGL5Agr1ywpGey3G137rnn6gM8atQovP/++3oyck/npegO6vjrCeQbJkiZE6Jhpv/AAw/oBOzcC1sKcnJH1qFDh8wtnU8CoIWFheajjverX/0KV1xxhb4DqKWCuJD9IQWe9957T7+2PXp7cHfsojsxN3i/m/cLw+wbrsH4onV4YTVDu63G4C71aAzuEhERERERCekcItPU2WyezX0YEhKinyvtQT1RQEAAvvOd7+gejDKE9LBhw3SbqIxSePLkSf04KSlJD2974sQJHQCW4WqlXbEzOmZYrVa9j7vT2LFjMXDgQL0ugVwZuUqGwhXSLijtetJG6CDHt7mhf9ujM4K7LZHgtiO425tJe7ik223btuk0LgFemVbxP//5T6/qad0S6WEsN5007JglPezlfGqYdqTX9vz583Xgu7eYNGmSDvBKj+W39ryFzJFGxzT/Mn/EHYzTQzE3DOyK+L3x8Lf7m4+6j8SRZL9LgFo6CuZddhdqff0w8OvPURE9Rs+/611WjKqQIai2hqMyNAqW7DQEHtyCAScPmO/SNwxV18R/3VE/l7Kz5oK7MifvR1/3rX3hiS4J7vY1clea3IUnvTUHDRpkbjVIsFOi7nIn08GDB82t1NHkzq/OuvtLhuCQu5QkWC93BLZELvgy3I4E+mW+lPbo9T13qXMwuEs9GoO7REREREREfZG0kUlvRullLPPpSlDX3bycEpyQIK8EkaS9Tnout7eNrCHpXCHB5p5E2g6feuop3RYs3+3iiy/WPSIl8N0VuiO4Kz0lpTPTnDlzzC29kwR0JaAmc56++eabekpFx9DbfYnMGywduD744APdu745EiSVNnE5f59//nlza+8g56IMSZ1yIAWHJh1ClV/z+c+gvEEYfmy4+ajnkR68NQOt8C3Mg9/ZbHNr//DGnbchPCjIfFSvueDut59/EWd66Mi5nYnB3XaQIJzctSZ35AkJ7ModatT5Orv3bndhcJfcYnCXejQGd4mIiIiIiPoq6aUqbZ8tBYaEDOkrIxh29CiG0lYmvQy7ss3MUzIssXQCku+2cuVKpKWlmX/pfN0R3JWOMPKbZc7o3kyOlwSqJRAvNy70ZdLbfNGiRYiNjW2253tBQYG+gUMCwRIo7a3KAstwLP4Yqn3d/4bAokCMOjwK3jXdOwoAufetKRPxw4svMh/Vayq4+/HXB/D0mr4x53BrMbhLvZbcWSWFxZ5YsGurrg7uEhERERERERER9VTSViYBZk9G1yMiEnaLHTnDclA0qAg13jV6m5/dD4PzByM8KxzetQzs9mSPfWshZo6OMx8Z/rX5S8w/NwGRIVZzC5Cen48fvf4WSisqzS39C4O71Kt15vDM3YHBXSIiIiIiIiIiIoMMCS0LERH1D/4+PvjNVYsxeUTTQ2efOFOAe1e+g/zivjecuqcY3KVer7S0tM9MdM/gLhERERERERERUc+cZ5eIiDqft5cXLowfg8snnIspTkHeQ9k5WJPyNT5KOYCKXjx8eEdgcJf6BLvdroO8vT0wyuAuERERERERERH1ZxyKmYiIqHkcXJz6BLmTLzg42HxEREREREREREREvY10epA2PgZ2iYiImsaeu9Sn1NTU6F68svR2cpciERERERERERF1Do6e1rNI5w1ZvL3ZH4mIiKg5DO5SnyRBXpmHVxZZJyIiIiIiIiIiop5FArnSS1cWBnWJiIg8w+Au9XkS3K2qqtKLrDsWIiIiIiIiIiIi6hoSvHUsvr6+emFAl4iIqPUY3CUiIiIiIiIiIiIiIiIi6gV4axQRERERERERERERERERUS/A4C4RERERERERERERERERUS/gMixzbS1HaCYiIiIiIiIiIiIiIiIi6kpeXl7mWvN0cNc5qCvrjscM9hIRERERERERERERERERdSyJwzoCut7e3nXrLQV5vZKTk9VrjYDu0KFDMXr0aEyYMBEjRozQi6+vr/lUIiIiIiIiIiIiIiIiIiJqzsKFC8w192pqanRsVoK6Pj4+epGYrCPI21yA12vmzJm1AwcOxC233IrLL78coaGh+g92ux3+/v4tRoeJiIiIiIiIiIiIiIiIiMgwceIEc81zEpOVAK/EZyXY21SM1jsuLg5PPfU0rr/++rrArrBYLAzsEhERERERERERERERERF1MunJW1FRgcrKSlRXVzc5fa7XgQMHa+Pj482HRERERERERERERERERETUVm3puetMeu/K4jwXr4P32LFjzVUiIiIiIiIiIiIiIiIiIupOMn2u9OKV3rsNe/B6c+hlIiIiIiIiIiIiIiIiIqKeQeK3TQ3P7G3+T0REREREREREREREREREPYAEdWtqahjcJSIiIiIiIiIiIiIiIiLq6aTnrnAO8DK4S0RERERERERERERERETUw1RVVenALoO7REREREREREREREREREQ9GOfcJSIiIiIiIiIiIiIiIiLqRtHR0Zg7d67+vzne3o1DuV41NQ3CvURERERERERERERERERE1CYTJ04w1xobP348Lr/8cvMR8OGHH2L//v3mo8YCAwPh4+NTF+hlz10iIiIiIiIiIiIiIiIiok4WEBCAiy++2HxkkMeyvSkclpmIiIiIiIiIiIiIiIiIqItdddVVsFgs5iODPJbtnurSYZlPet9rrnWfgd89H6EvXGM+IiIiIiIiIiIiIiIiIiLqOO6GZU5OTsbMmTPNR41t2bIFmzdvNh/Vk169vr6+HJaZiIiIiIiIiIiIiIiIiKizDR48GFOnTjUfuSd/l+e1pMcGd32GhcB/Riy8gly7JjvzHTsEfolR8A5tehzqhry8vMw1IiIiIiIiIiIiIiIiIqLOtXjx4kbDMTckf5fntaTHBHf9EiIQ8tQCRGz5PwyreQZDM36BiM0/hF/8EPMZjQXdMweRe5chOv8xROc9irD/3IygO2fAK9DPfEZjDScdJiIiIiIiIiIiIiIiIiLqDNIjNywszHzUPHleSz18uz246xVsQdjq2xD59b0Ivvci+J8/wvxLy5x74XoPDkTAlYkY9PzVGJr1MAbemmT+xRV77hIRERERERERERERERFRb+RVU9N1XVlPet9rrhm8hwxExMYf6OGVm5Kb9EdU7DhpPnI16K9XI+h7M8xHjdke/B9sT60zHxkGfvd8hL5wjfmIiIiIiIiIiIiIiIiIiKjjTJw4wVwzSG/ckJAQ81HTCgsLsXPnTvORISAgAL6+vvD2Nvrsdl9w19sLEZt+oOfVbU7ueX9Axc5M85GrloK7Iu+bL6J8zSHzEYO7RERERERERERERERERNR5GgZ326NhcLfbhmUeeNv0FgO7HSH0xWsB3x4ztTARERERERERERERERERUZt0W9Qz+IG55loLmpkj15P5c32irRi4tH7iYc65S0RERERERERERERERES9UbcEd/0mR8M3Lsx81IJmRo2u9XBE6QGLzzXXPH8NEREREREREREREREREVFP0i3B3QEXjzbXPNDOnrvCMifOXGPPXSIiIiIiIiIiIiIiIiLqnboluOsdGWyueaADeu56Dw6Et3WAXmfPXSIiIiIiIiIiIiIiIiLqjboluOsV4GeudR3vsEBzjYiIiIiIiIiIiIiIiIio9+nS4K71kUv14p880tzigQ4YllkE3TdXf/aARfXz7xIREREREREREREREXWF9FcXIyxyNBKW7zK3UG/y9P/7k142ffGluYWoe3jV1PTscYpzz/sDKnZmmo9cDfrr1Qj63gzzERERERERERERERERUU90EituuAg//tSCZf/ZiYcusJjbqbeQwLy4/94f4b6f/Uivk3uFhTZ8vf8QampqzC3uXTDrfHOt75k4cYK51n4BAQHw9fWFt7fRZ5fBXSIiIiIiIiIiIiIiarXcTSvwl7ffwsef7sfhXLVh1DlYdOG1uPH7S3DpKKvxJHeqbNj70Yt47d21+HjVUaTLNv3a+bj61juwaJy7157G29+diTtXmQ9dWDD2gotwzY134KbFUxDha27WPHjd7T/AHd8cjxBzayNn9mP1Gy/iPx+sx+odNr0pdtpMXLpgCW5fuhhjm3yhk6yVuGXKg1iNpXg341eYk+947JlFz2/BK1cNAXY8gbBvvqS3PfS/VCybplcb2IXlkUvwW1m9byXyl03RW6l9GNz1zPN/fRm/+vWTqKqqNrc0LT8n1Vzre5oK7oaHh2PatGkYOXIkgoKCUFxcjOPHj2PHjh3Iy8szn+WKwV0iIiIi6gH2Icf7X6g0H7kYHQDvmy5EwHcvRGhUfY286I1nUHijtBY0zW/zM4h0KR5WoXjdGhSv2ImqD4uAbLVJvb/X7NHw/+5ChMwYDH/jiYaTnyJrxBrIfaWN38tQ9z2WXIaQf1+C4IbbMQEDa76DUGOzVv7xS8ibf1Cv+/z3YQxd5HhVPU+e09M095sdCn59L0oeUSuPfgfDfum+YnP2mYdRfH+ZWouAJeNeDBlmbHfVjjQzWX2/zer7DTD/0ISWfk9p6jYU/34DKj/ORa2uf/rCa0kM/G65EkGXxyBQP6te/fsFwH/nY4iYbGx3VvecBunJUATbh5+g5JVdqF4p+0eR33rpFFh+Og8ho4PVN3Cv6mwqzv59DSrezUTN1ipj49wI+FxxIQbeNB3WQcYmQy5Of/sZ2FeaD52p/el95fSWP2/3SmRP3abXvV+7F9HXR+h1V06fo9JDuEoPzR8S1+c3lX6IiIiIqBuUHMWKny/Bj98wAp2NWTDnoRV488eq7GpuqXNmPX773R9g+Sa7uaEh9dplz+KV+y5qEGxtLkjrZNrtWLPyQSQNNB97+LqIC+7Gv/51j9PrDIUbnsAtP3wJn0vR3p2I8Vj2l5fw0IVDzA3u5b5zBxLuWg/84EVkPXwRLHXBXs8wuNu5Fl95A77YbNRpOsJ/33mtT/dKbcqpUzlInDzLfNSy/hbcHTduHBYsWGA+auyDDz7AwYNG25CzhsHdLp1zl4iIiIioRallqHlkDUqmPoPc3WZAqy2qMnH69l/i7CUbUPWyGdgV6v1rX94He/ITOP3INhSbmzvTgEsXwbLEWK9+Yg0KjVUn6bD9wSy8X34hBvaCwG7HOYiKNxzHORcVH7u/sbNZLaWZ3ftQ+mo6zBCne8XbULKsqdaaMhS+/AecGbsSFc87AruiCrUr01GxQP3t5vdR2GRiKkPFz99HU81ebhWnI/f238K2YHN9YFfIb31+M8rGPobcv6ej3NzsrHTT68gZ/wLK70+vD+yKdbmo/vFK2Kb/AbkHPTy3sqvMz3sGp1fnNrkPiz/eZ64BNSu2tfxbH1H7o4U6fPnHq90HnImIiIiom53G6vsX1wV2Iy5YjMeefxHv/udVvPKHpVg0Srba8flvl+JH75zUz6lj34XlS++oC+zGLl6KP778qvHa3yzGpY7XLr8D3/7jLrXWhAtvxyvqNfI6vbz+BB5abPb23fESvvPYWjf1LqXh615+EEvN4ZFzNz2H7/xxi8tn2nf/Dt++1hHYtWLRD35lvv53eOqWKYiVzbn7sfzapVi+u8lvq9jw5efr9dod5081At5hM3GP83dRy1M36aco8/FUg7/dM6OZntBEPcSx4xnmGvD4Yz/XQe7mlv5Eeuw2F9gV8nd5Xku6tOfu2bv+Y665N+j5q821eq3tuVv8t62o2tV8g5C7zyEiIiKirlTfC9P7hTsxaEmksVltqdqyBsW370KNBGNnTEfw5iX6bu36XpDjEHDmWgTI0xvwDgrGAN21sAz59z+Msmf0Znj9VHp1JmNAlJ963wMoeeRdVK40wlReL/wQkd+NNXokdlLPXSE9G3OmboMUvhv2bCxZ/RcUfEsGIguA37aHEXleU/0je5aWfrNoqedu1dZ/ITu5PjAowW3rBwvRuNmiPWlGiYrFgL0/VJUk42FDhb9/GEXLHAFP19/j3KsaiybA8uAlGCjDxJ09jpK/vw/7E2eMv911JUKfTYbjRn+Xz1e8/62O+xLXHq3u05Nr+vV+8DKVfqfDMkjtr4PbUPrEGlSZt/c37OVdlfo+csZu0OkMoyPg99SVCJgbqdK3DfZ330fpz1NRK/spSp1Hh29HWJA80amH7INLMPjeBNmoVR3cgJJ7NqB6q3rQ5D5UxyZaHRvHDRQYDP/DDyLCGLHMSYMewg32l6tU5Ca/gAr5XMGeu0REREQ9hn3TrzD56hWqdAdELHkCa/6yxAhyOhRuwfLrb8Jvd8iD+XjlwLNYNFj/BemvLsHUn+3S60n3rcR/lzXo2evy2in449aVWKoDvsKpB+7iJ3Dg70vgWro+qf5+kdlD9yK8sOtFXBMt6y28ruooXvzOfNz/qTxYjDcP/w6X6i7DR7Hihvn4sd5+Dh763yosm+baD7nwyyfw7cUvYbs8uORX2Pn6Utd94VC4FveP/QFedHn/xrYvH43Lnpa127Em50Ek6a0NsOdup3j9zf/g5MnW32z87PMvobi4RPfSnZVc31P3um9fhRHD3Q5L1adt+uJLfOuqG/W6BG/7Y+9lh4Y9d+fPn4/ExETzUdNSUlKwdu1a85GhW3vuFr+wtdmlo7h7b8dCRERERD1MkBWBg4LNZTCsl9+AwS+ZUaGt+2DfbazW84N33fNdFyOwq+rmu9+vD+w++0MMWb4Qg8cN1s8JGjcdkf++FwPuMv5e+8gnsLnr/thBHD0dfScvRMAvjZB0zbLVOFP3mQdR8oieYQq4dyFCeklgt2NUwbbaKbArPtyH8pZGZWp1mlGy01H+vHpv86GLvA0orQvsNnQQtvvre1Vb//sdDJkRY3z2yAkY8psHEfJPs2no+TUocffZppofv4Umps9x4ZJ+X/ghIn5zCUJHGr/XOuMSRP333vqe4I+swVljVSnC2SfMwK4Eb7fdi8grR8Oq91MMQm+9E0P+Nx1e8vfsgyhf6abhYkCAuV8dn7cQQ/6RbL4mHZVbivTTnJWv2+YU2BVnULnRg0YRtb+KnXsWOyl59/36wC4RERER9SA2fPS2EdiVwO3TjzUI7IqQmfjhMrPAirV4f9Npc30X3n7aCOxi2j14umFgV6jXLnv6HkzUD3bhpf/t12ueGYZLr1lsrq9H+ilztSW+52DxNReZD1Zhr6M+suMt/EYHdoGkR3/fKLArQs5/EE8/bAbwPn0R76cYqw0Vbl2LF2Xl+oswvYnALnWvG667Ws+j25rlsvnzdGBX/OKhn7n8rT8Gdql5MseuJzx5HodlJiIiIqIeZ8CE0WZBtQy1bQi8Fq0258mRANetsa7z6mqDMejROxH46Q0IfG06fDsjuFuVibxlL6CgbhSyAAz+v8vgE6VWsw+izBwmuOiN1ajQAcEIWP5vegtzkPYx5ftQ8bKx6v3Py+An+0YCg+vMYHcreJRm3A4FXIWC5z9Ftfmokd3qO5oBW9+fXeamRzEQfJPju5ehYvU+N0MXB8BLeoFLgPmZbe4DzE5K1pkBb0m/N5m9yl1EIPSn5h3Au7fB7giCntxWtz+9fnMZwlzm1TX4T16I4M0q3au0HzDFDxXm9ub4jhtd9x1qixsGwatQ+okZ/F5yCSyPGqu1b+7yYBjqMlT+ek3j56l0Ufzr1t8xT0RERERdoHALNr1hrv9gCb5h9shtyHLBD7DOHE74xgQzKJqyBe+bA9vMuX6+GcB1I3E+br/QWN37znrsNVY9EjKo+XlvmxIRe465Vm/v9rVmEHs8ls4fr9fcmfjNOzBHr53E25vcBaPt2POlMeHvojkzG8wj3A1yt+DF+5dgpqpDhUWORsKFS3D/i1uQ6+6+y5KT+PjZH+DKC8/Vzw2bMBPX3e9u/mHpHW283y3vnET6hidwp/maO1c5gvt9z5+f/Zv+P25ULJLOY+9oal5QkB46q0WePI/BXSIiIiLqcapOZuqhkbVGka1K1JwtQmmjpcwMVOWiytF78qYJCGwiWuobPhqD505RywRY3QTB2qP2+AacmvMHlP++QdgqPBkDHzVaP2ofWY2zx3fVzfPqtfxKhPbaG3ubOiZFqGkmklm+cSeqdI/PGPhffgksPzV6Ntc+v839/FjNaD7NRMBbdxw4g4rfb4ZxX7WhKnUNSh8xApZelzee67honyMaPA5+M5vqVT0Bft81V3dnonEf4NEY8LQZjH3mfRR+5b63qiEXFZvMd2gu/c6YUPczq48YaajquGMfBMNvdoxeaywA1hmS7tUyOcLNjQ9unMytD377NtgH5TtR8YSx6nPdLIQumm48+HgbypvpxYwl6pjI/x9uQMlq197AtlffR6W8NmowvC41thERERFRD3HsaxhhSmBR4rmNe946WIZh4gUzMUeWMcYtkrlpO+sCtReMbxxMrXcO4s8zV1NSkdOKysHerxxDmQ7DgCa/XGPpaY6grHqRj/x/Gukpjjt1ZyK+bmhoN0adUzd88t5jJxrXZexb8MmzsnIRFs5oW/C5o8gcwpdNuAn3v7ILh80Abe7BXXjx5zfhwp+shMtttme24LdLLsJ1j63F5wfN+YRzT+PjV57AlRPmY/kO93MMF372K9x57Ut423yNvbnqTw9WXV2NqUkX6QD193+wzNxaLzU1De+8+75e/8mPzaHBqEOs37AJN9z0PVRW9tLE0wUY3CUiIiKiHqX85Dbk3VPfc9Gv0XQkB1E2+DGcabSsNIN2Oah5V6/AO3FkN/SE3YfSuPeNOUqXJMC/wfyk1u8ugb+jF+c33jKCm5MnIPCu+t6RvU9Tx+QxlJmBv8aKUPye2ePz1ikIUPtp0KWO3qhNDK3chJbTTCQGPGgOR+wydHIRzv7eHMb4pssQuLTxTM5Vx835dCdb4dtMYvIbbXZZeDfXTc9dlRYvuNIcCrwMlT96t5ngdX36leBm0x8ZA58rjbWa4zn6/7ITxv/ASPg2mu+2bSryUpH7c2Meaunx7jvFtWtG6cfbzN8bA7/ZwfCdPAX+k+VxGSo+Puh2X2iJ8zBwubG/q59YU78/8jaj5BFjn3v/cSH8O/jGCyIiIiJqp2q72ZsVmBDbykBlXeHwIsQONVebEDHU0VPWhkLnuzObpL7Xp7/CfY+ZAdnEazG75aktDYVb8PbLW8wHS5CUYKzZHbHLxaPdz6NbJwIjzJ7GOGNT38SVfft6rJSVSy5Ckp4DuLvY8PkbzxnzAy9+EFsOpyI/JxVpGx7EIrUpd+Wv8Nomx7e34eOn7sDyHerXXXA7Xvh0PdIO70TaVyvxxzskMH8Uv73lCXzuJr77+cr12D5qJh56/kXdc/ueGe7GP+r5fHx88Mgv79frK9/+L3bu3KPXHX52/8P6/7Fjz8H1375Kr1P7bdu+E9++4Xas/egzLL35TgZ4m8DgLhERERF1q5obn8FJ73vrlrwRK1FlDjPr/cdFGNye6GzDaOnZg8h95nXkNFhytzaeR7TVqpwrHL7qu9+Owf9eiJBG3380rI+OM1ZTjdf4PHolQrs+Ct298nai8nlj1eeKqRgoK5Onw1/31Gw+MNiWNOM1eSEG3Ctr6r2f+BRyxMu3voty/R0Gw/+XlzQfXB8zuPnKU8MerY0EI/zBy+Atwzdv3YaSV90HgZ15R7XQCNLMR+pAthPb6sbpPueZzY2HRH7kXy77NjfiBVS8avzJ6zdXwuoSNC5C6Xvmvf13TUegvpFhNAbcZfaAfmMfio01N3wR8t2F8HXsjzekiVCGyF6Darnh4fILEbQkUp5IRERERD1IbvpRc6310o+tN9daFjAwwlxrwqoHkSDDBNct5yLhhhVG4BLn4KGnb3c/7HPaWrz47O/wrGN5+h5cN/8m/HaH8eekR6/FHN3j9yTSHV2UW2TFgGbGWt775UodEJ9z+cwWgsSd7TTSzXti58y5CGPN7xwy7na8kiOB3q/x0AVmd+djq/DSKxK5nY+n//4grkkchpAQK0KGT8HS3zyHpySYnbsCH6x3MxlLxFK8++mrWHbVRbrn9sToVnSh7mG+tfhyTJls3IT805/9AuXlxtBUb771LjZuMiqhv3vmcXh7u9YWt375FZ7+f3/SS3a243YI8sSkiefivGnGENeffLoB1914BwO8bjC4S0REREQ9z4wY+H3+ICKWuKvQT8DAmmcwrNHyHYSaz6jTsPxfnImq+3ehssFSdazxQLqeq0Lxh/+C7X6zhyci4L/3IUT83zgEmlsaGnDpIlj0MMHKpckIXNR4OODepalj8gwGmnOwNlSycZc51O84+F/q+P2xGHCd2TP099t0ANZjzaYZEYCw/7vMqACtXIOSDw/C9muzZePRhQ2Clm4cOVM/7LM7LsH9Jgy7BEHmsNw197/uNB+zezXZLcxa28xH6t7ITqp3N073lfenNj3XsLPEwfB97YcIe3Cca09iCdCbc/z6XjG9Lr1b5041gsvO8wG7EzQdA5cbx6tm2Wrkf+UYIjsAfr90P78xEREREXUvd3PTeip21EXmWsvKStoYEBs1E4+tWoFl05oIKKasx/LHnsPDjmX5Knx8zPhT7PW/wwvfd/QYHobYxeZqi2wob3Jonl34XAdJh2HelLbvu44xBLHmYEmfP/0AfvvOFhzObdzTWBQe3omP9dpa3JLgHESXZT7u36D/iFUH3QT7b5qPOfru3b7hz398ChaLBSlfH8CP73kI+w8cws/uM3rt3nLz9Zg5wzEod73fPvk7PPXMn/Sy4nXdb5tM+1IOYNMXXza5bP9qN37yo+9jyBBjGDQZopk9eBtjcJeIiIiIupX3C3di8JmHMei/Zm9W6UX5r58g8oLBzfekbFIkvB3D1aYch8uUr0Ex8H1qCvz0Elvfu7HFXpfNOLkBtgX7UKvnjhWR8EsMbuG7R8DXMUTYIGs/LJQXoez9TGP1rtHwL6+fo9c3YbRxXLL3wb7OfeWtzWlm2CV1QwFXLXgJFR+qlahYDLhrQpPDH/uONIPNu22oamb+4MpUM7h/pTq2xppb9cNyZ8L+521uAsb16RfZZ1zTr4tMVDuGHx9p9HANGO7o6XocVY6pgk0+kx3pfgp8bzKHn45y800fXKL37eCdyXXnh+/ynyDqerWfzMcO9QH6WHXcyurnWg4fDb8L9B9QuXpXM78BCL7+SnN/HETZdHOI7LsuQ9CMdpyTRERERNR5fCyqNmPYl37aXPNQXRFvPdJPmatNyD3lmAPXihB3gcILb8cr/3kV7/7nCSybZm47/0Fs2foqfnB+M8NFRwzBnAvHuyyLbrkbL/xvC3b+YbFLz1qLIz68KtV1LtpGcpFhBjsx2Oo6D3HKFrwvcerWDBPdaayYc/09mCMHMHcXlt91E2ZOmIroCTNx3WMrcdgpQG0vaeFGU1OuuyqbT98aliph3Fgsf+bXev3t/6zC5QuvRVlZGUaPjsPjjz6ktztLzziJLzZvMx8Bb7z5trlG4ue//DW+ddWNzS7SW/f06TzzFezB606XtiMNev7qZpeO4u69HYvv5BjzWURERETUIwRZETgoGEGLFsFyk2w4g4qfG8Pmtk2EKvOZq6/uQ6lzZGnQOETcewMiZbk+wQxeBcB3jBnAG1Y/9G7NafffoPKgmzvIowbDxzEULbXs5DZUmD0+8fz7KHSepzd5W12v06pP9rkPDLYjzdQNBWzyenQRBjWYF9lZ8ARHl96DqNzSVEXyIKpWm6uqvtF45l5no2H9nXm7/DPvo3hFw28dAf8LzHdomH6dVO1Oreu46zPGaF7zHRljpt8iVG40g+cm6yIz3avFMtrsqX7lSNeGJzEgQO/bwMmLEPgbMxB+/0oUNPoeuSh90/EZ6Sgf4XQMB7+Eik3mn17e2eRvMDgNU64Nhv9Pk41huomIiIio5xl1LhwdWlenfO2216dmP4m9m7bgc1mOGIHCiLipdUMlb9rf3PDOR3HoK3M1cTQi3Q15HDIa518wE3MuWIJl9y81As5f/g4vrW0hKDnjHrzw1iq867S88tQ9uGZaw4DwEMQmDjPXt+CQ2bvXrWNHzeGggYmjhsP56+7d9Bb2qv8nXnWR+2Gi28neVBXFXgh3nYktk+/Gu5+uxAv3zceccWZtIPc0Pn72Qcy8/nfY2/CARtyNdXrI5iaWZcbwuX2dzKl7xbe+qdeLi41JoF956S8ICGhc+/v3W+/o//38jLsZjqefwJatjhRCbVVVVYma2mbH0+pXujS4G3TnjGaXjhD0Pffv7bwQERERUU8UgdBfXmgEXFeuQfHqtod3gxdNN1akN+DL6agwHrmwfWj2mpw8Af6OYDBi4GMOl1z93k4YVTYn5ftQ6QjizYiFDucGTUDQ/gcR5AjIUYtsH7vrsepGi4HBNqQZp6GA5dgH3hTbfG9fp/RR9f/WNJ6jVil6dTUqdstaAPwXTWih1zYwYMYSBJjz/9Z+2HhI8IFzzeCvpN9X092MvpyLgifMO8EnT4fFUcUZNh3+txqrtT9fg/yzxrqL4m2wO+Y6nqd+v7Hqhi9C/88MhO/eh9Ln64PJWuo2VHgyupj6DRVNBsUNLsOUezJENhERERF1n5CZuOB6c/3ZlfjIMTtNA/ZNz2Lu1TfhSrW8dsCMGCbOxEKzKP75G2t10NOtlLV4yewJ60lQ1HLhTfj5JbJmx4tPP4vtTUacW2di0nwjaIz9WLHW0ZO4sb3/exGf67VhuOYCx7DOYj82rpS5WCxYOMN5ezsNPxfXmKvbDzcRJD+iPttcvWaMI0htipiCa5Y9i3c3fI38tPV496Epxu/c8RxeM+fQtQw0J0nJPYmcJoec7j+2bd+Jjz9xnTP6t0/8rlFP0traWrz5byO4e+MNSxA7wtj3b7z5H/0/Ab/59S/x33dea3Z587UXERlpZhbKhXNm4a03/gGLv7+5hfrfCHBERERE1GP5jr4MgY8aQdLqR97FmWK92kAlahzDvzZYys16le/khWbwTFWufvAXnF72Ps4cPGM87/g+nP75E7DdabRCeD94IQbpNRGBwKXmQFwvv4+z6nUFx433Lj64DTk3v45KHcQbDP9FZgRqUASs9W+gNPX9qpqbIrUfyUT522YL0FO3I8rNPL3DchfCR/4ugcGNze81z9KMq+Drr4X/5YDPo1citMURw8bB+pTZs/TDDbB96184vTXTOKbHU5H3xBMovNnszX3XZRhYd6NAcwIQdu+V8HHqQezMJf3e+Rfk/vzTunRo270BOd96BnYzsOrz6GVO6TcYg1R6Noa1lmGOn0HOu6mw6fR3BrYP38Wpb6xElQwhPmMKBlzeQm9zp0B47bJ31XfQq5pt4z6jh/Xk6QhydwxrHsYAM9BctWZns0Mz6yD9b9T3bmGIbCIiIiLqCaz4xjVmT1msxX0Pr2w8ZHHhFvxlueNOwPlYeIGjV+wUXHOf2dNzx+9w3/JdjXv+luzC8vt+ZwZ+p+D2b3oSFD0HS5bdbgSBU17C8rea6xXcCtOuNYPGwPZHforlOxpHje07nsB9j0kAV7nkDix0Hnr52E58kqL+j1iKOY6hoztCxFTMNr/X56+8he2N7kq2Y/v/jB7Dsg9nT2hmmOqBwzDnxw/hDvNhTonxG0PGTsWlem0VXlrluj/tXz6Bueb8uw9v6KBIeg+2ect2XHH1TSgpKYWvrw+mTZ2kt/9vzSd6qODy8vrajgzHLMMyi28vuRI33nCtXn9v1f9gt/f9feWJCYkJuGDW+U0uSedNxh/+9Ffk5Bj1bNn2xmt/1/MeUz0Gd4mIiIioB/FF6F2XGUGv3ftQ9vcGvQW1gyhzHsbXaSl0DN0lwbPf/ASWW40+lLW/34DS8U8Yz4v7F+xPGMFFr998B4OX1N8NKgYuuhmBDxrBQnldSZzx3mfHr0TlSuPbeL92OwY32buwie935wY07qPZD6XuQqXMdSu9XC8d576Xa/gs+JvBzar3tqHUWG2CJ2mmoVhEfPAMhi7ybCjtAZfegOCXzOldVu+DPfkPxjGNewHlPzcD1TddiOCnWjGccHgyghw9iBtR6feXP4S/mX5rnlhTlw5tU9+v6z3u/cIPEdrgN/iOXojQz6fAS/ZHai4qr34BNp0Gn4BtwWZUb1XbR8fA8voNHgS2nebERS7sz2w2e7Ono/xNx++e4hRcdhaMoOvMoPgz21DsrhexE/neMVk/RHgzQ2QTERERUc9gueAHeHqJEWjJXfkgLrv6Hjz7zno9BPPqN36FW+bfhN/u0H/Gpf/vHiwyZ8ERsdc+hIfMQOf2p5dg5nd/hRX/M4Zv1q+9ZEnda5MeeghLRhnrLbFM+wEeusX4Th8//QRWZ+nVdjoHS+67G0l6/Sh++82ZuOWxFVith5tehRWP3YSZ33zJHJL5HDx03xKXOXvTN72le/RGXN/RQzIPw5I7zQB7yku47JKb8PAbq4whsP+3Ag9/dyYuW24EGCNuuQOLHPvQvgW/nWAEZW95ZT8KzYpT4aY1+FivWTA2wuyxO2oxbnfsz58twS3LV+Jj9f4fv/MEbr7jJSNwnHg7Fs3o2wG3jZu24trrb9OBWQnsvv7q37Hq3deQPNNIFes3bMJVS27WPXbFm/82euiOGjkC05Om4tol39KPJTD83ipdEaYW7Es5gK927NLr7LHbNAZ3iYiIiKhncQp61S5biTOperX1fGMw5KVfY9CnF8L31mDA0Usyyhdet06AZfODGPKgu16CwRj8m4fV65Lhs8RpqOXRAfC+awoG7H1YVc4jWhx6l9w7+645p+6l0zGgyV6uvhh4mRkYfH4bSvOM1SZ1VJppUgBCbv0JBh9eAv+7IuBVF9hXaWlJLPw/UH/750KEBJmbPeToQexWUCwiXnoI1g/cpcNkBBxW6fC7sW57uQZecAMi99+JAU/FwnuGU0qdEQGfPy6BddtPMGSkua1FTnMEP/8uij4uQ9XubajQrT/B9T3Y3Rgwe6o5v3E6Kte1fZh1IiIiIupphmDRU6vwx+uNQGDuplV4+K479BDMt/xkBVbr+WktmPPQSvzzpnP0c+pYpmDZihex7AIjKJi+agV+fKsxfLPLa5e9iH//eIpa85QVl37/QaO3ae563Pfi+qbnA24Fy+R78O+3bsccXd2wYfWzv8Iterjpe/DjZ7cYvZYjxmPZWyuwbLLztz2JjR8aQzkvmTW1Fb/DM5YLH8S/HzWHUz62Bc/+5B69D6+89Vd4dpU5x/EFd+NfD8+vnwPYMhM3PnqRfs3q+xcjLsYI9MZdbQSoI5b8Cjeax0Xvz4dXmIF49buffhDXqfe/7q6X8LF0qIyYgsf+eA+SOvqH9SCbvvgS377+NpSVlen5c//9+ku45OI5GDBggA44njfNqNDabEXw8vJCaWkZ/rvaCOB++9qr9P/Dh8VgVrIxbdTrb3gyrw3JfpV9fdGFF7DHbjO8amrMWwp6qNxpf0DFrkzzkatBz1/NOXSJiIiIiIiIiIiIiLpB7qYV+Mvbb+HjT/fjsAT9Rp2DRRdeixu/vwSXjjJ7gbpTZcPej17Ea++uxcerjhpBUv3a+bj61juwaJy7157G29+diTtXqdXFT+DA35eYw0M72LF9+Xxc9rT0Wj0Hj326Fj/QwyS39DoPnNmP1W+8iP98sB6rdxjB09hpM3HpgiW4felijK2LoJqyVuKWKQ9iNZbi3YxfYY6H8anty0er7y9rt2NNzoNmr+GmFR5chRUvr8TqDVuwXQfGrUhafBEWXXkHln5zfH1g10nuppew/J/qmJn7Xf+Oq+7GsltmIqLhXcwlJ/HxK0/gubfW4/OD9rrje9syR8DbwWkf37cS+cvM4bd7KemRe8PS78FeUaEDuzIHrAQbnUlv3MVX3oAF35yPe35yF15/8z/4vx/frwO9+3ZtwtChkfp5r72+Ej/66YN6e8ruLxAV1erU16tIUPxbV92o12X+XBlWub+aONG8Udq0bNkyc61ly5cvN9cMAQEB8PX1hbe30We3xwd3s+OfQtUR97fqh/xuMYJ/Mtt8RERERERERERERERE1L1y37kDCXetB255FmlPOfWepR5vzdrPcPNtd6GqqloPxfzGihdx8Vz3cajCQhvKysp1wFYCvTLnrgwhfN559cNUlZXbsXPnHr3+wH0/wb3LfqjX+yoGd+t1ZnC3Rw/LXFtehapj5lxOblSn5ZtrRERERERERERERERE3c2GLz9fr9fuuHgmA7u9zIAB/rqXrWMo5qYCuyIkxKoDu+kZJ7F5izH7svT2lSCvY3EEdsUbb75trhG1T4/uuVu6ci/OfPtV81FjPkOtGHryF+pXeJlbiIiIiIiIiIiIiIiIiNrmk0836ACvzLHriaf/35/w1DN/0vPxTps60dxaz26vwFc7duv1D1a9iRnnn6fX+yIJci+64nq9/vhjP8eExPF6vSl9uWdvvxyWueZMKXKT/thsz11h/c3lsD54sfmIiIiIiIiIiIiIiIiIqPPV1tZi2vS5uvfujddfgz/94UnzL/XkOYmTZyE7Oxc3XHc1/vzHp8y/9D05ObkYPzHZfNSy/JxUc63v6VfDMlelF6D0zd04fdHzLQZ2he3nH6Lw/g9g36RnCyciIiIiIiIiIiIiIiLqdDL0sgR2xXXfvlr/35D0Ar7pxmv1+nur/ge73a7X+6LIyAjdY9cRhKTO0SN67hYt34Dy/36Nyn2nUFNYbm5tG78JQ+E9OAChf1sC3zHh5lYiIiIiIiIiIiIiIiKijvPDH92HN/79DmJHDMPO7cZcy+5IAHhq0kV6/S9/ehrXf/sqvd5XFRScxf4Dh3Wv5eZwWGb3esWwzAV3vo2Sv39pPuoYEdt/DP9pw8xHRERERERERERERERERB3nL8+9iNLSUkyeNAHfuHSuudW9v734L5w9exYJ48Zi0cLLzK3UVzG42wYM7hIRERERERERERERERFRV+vzwV0iIiIiIiIiIiIiIiIior6gM4O7nNGYiIiIiIiIiIiIiIiIiKgXYHCXiIiIiIiIiIiIiIiIiKgXYHCXiIiIiIiIiIiIiIiIiKgXYHCXiIiIiIiIiIiIiIiIiKgXYHCXiIiIiIiIiIiIiIiIiKgXYHCXiIiIiIiIiIiIiIiIiKgXYHCXiIiIiIiIiIiIiIiIiKgXYHCXiIiIiIiIiIiIiIiIiKgXYHCXiIiIiIiIiIiIiIiIiKgXYHCXiIiIiIiIiIiIiIiIiKgXYHCXiIiIiIiIiIiIiIiIiKgXYHCXiIiIiIiIiIiIiIiIiKgXYHCXiIiIiIiIiIiIiIiIiKgXYHCXiIiIiIiIiIiIiIiIiKgXYHCXiIiIiIiIiIiIiIiIiKgXYHCXiIiIiIiIiIiIiIiIiKgXYHCXiIiIiIiIiIiIiIiIiKgXYHCXiIiIiIiIiIiIiIiIiKgXYHCXiIiIiIiIiIiIiIiIiKgXYHCXiIiIiIiIiIiIiIiIiKgXYHCXiIiIiIiIiIiIiIiIiKgXYHCXiIiIiIiIiIiIiIiIiKgXYHCXiIiIiIiIiIiIiIiIiKgXYHCXiIiIiIiIiIiIiIiIiKgXYHCXiIiIiIiIiIiIiIiIiKgX8Hr33Xdry8vLUVVVhdraWr1R/nesC+d1IiIiIiIiIiIiIiIiIqL+wsvLy1wz1h2P5X9fX18MGDAAgwYNQmhoKAICAnD11VfrvzssW7bMXGvZ8uXLzTWDvJ98hre30WfXa+vWrbU1NTVwLKJhMJfBXSIiIiIiIiIiIiIiIiLqj5yDu8LxWAKujqWsrEwHYiMiIrB48WL9d4cODe7u27evtrq6GrJIcJeBXCIiIiIiIiIiIiIiIiKipkmAVwKuPj4+epEAbElJCYKDgzu3525qaqoO7jr32nUEeBnoJSIiIiIiIiIiIiIiIiKq77Er/zv33nUEdyW2arPZcOONN+q/OXRocDcjI0NHcBnUJSIiIiIiIiIiIiIiIiJqnrsgryMAm5OT07nB3dzc3FpHYNexEBERERERERERERERERGRe47ArmOR4KssWVlZuO6668xnGTo0uHv27Nm64K5gcJeIiIiIiIiIiIiIiIiIqGmOHrsNA7yZmZm45ppr9N8cOjS4W1xc7BLNZZCXiIiIiIiIiIiIiIiIiKgx56CuMwm+yrYTJ07gqquuMrcaOjS4W15erqO4DYO5DO4SEREREREREREREREREdVrGNR1fiwB2IyMDFxxxRXmFkOHBncrKytrnQO5DOoSERERERERERERERERETXNOajrvJ6ent65wd2qqipGc4mIiIiIiIiIiIiIiIiI2sgR4JXg7uLFi/W6Q0cGd73lgzxdiIiIiIiIiIiIiIiIiIj6A3fx0qYW5+d3Jq+amhr23CUiIiIiIiIiIiIiIiIiaifpubto0SLzkaFDe+7qf4mIiIiIiIiIiIiIiIiIqM26oudui8MyExERERERERERERERERH1Z+7iqA2XruBVq5jrRERERERERERERERERETURjIs88KFC81HBg7LTERERERERERERERERETUzzC4S0RERERERERERERERETUCzC4S0RERERERERERERERETUCzC4S0RERERERERERERERETUCzC4S0RERERERERERERERETUC/S74O6ZM2f0Qv0Hj3n/w2Pe//CY9z885tRfMK1Tf8L03v/wmBP1fTzP+x8e8/6Hx7z/4THvf3jMe55+F9ytra3VC/UfPOb9D495/8Nj3v/wmFN/wbRO/QnTe//DY07U9/E87394zPsfHvP+h8e8/+Ex73k4LDMRERERERERERERERERUS/QocHdmrNlsH+eBvv6o+1b1HvIexERERERERERERERERERkcGrtoP6Uhf9/nOcve8DoKrG3NI+Xn4+GPSHxQi6O9nc0jHy8/P1/2FhYfp/6vt4zPsfHvP+h8e8/+Exp/6CaZ36E6b3/ofHnKjv43ne//CY9z885v0Pj3n/w2Peeunp6Vi4cKH5yLBs2TJzrWXLly831wwBAQHw9fWFt7fRZ7dDgrvVmYXIGva4+agDeXkhJvcReIcPNDe0X5sSYXUxjmzdhR25NQiNS8BFkyJgMf+kVdtwZPMe7MgDohInYfYYK3zMP1H3a9cxz64yNxh8LBZYQ0ORMGE0Rlj9zK1NqMjGjs8P4UipBQkzpmFSRAvPpw7T9otNJQrSU7HnUC4yc4thq/CGxRqIEfFjMH18NKx99cT2OK3WwJa6C5/sswGRcZg3IxaWvAP4ZGs2SgOHYM4FiYj0N8+dHJUfTlD54eiuyQ/bm7eHj5+IufGhjb9rZ5zHNaXI2L4Dm7Oa+dweyp7b4HgPMP/QDdpyzDevXYeMYvNBUwYMwvSLJiFuYCfPXKHSX+ahI0hJt6GgtAb+Q41zysoJM6iBtl7TStNVfr3zLOyDojH3gniEu2RfduTs3oHPj1UiMDYe8yZHwdJi2qtE3r4dWJdqR+Ao8zXmX4g6Cstw/U+vv563V0k6Nq5PQyasmDZ7CsZ0SkGgcRme5Q3qSszb+582HfOm2uECLQgdHIq4c2IRGx7oed25o+ryZVnYuGYXUgqAwLgEXDk7jmnPjbaf56IG9tzj2LY7HWk5pSitVMd9gAXhw4djVtIYRA7gRasnatd53l/a4ZxiRjGTp2D2qCDzDy3pmWU3HnMPNDjmI7zzOzW42yHJouqocWDFoN8vRsS677drkffQamtRuT/HWO9WlSg9W4yCgmKk7T2ElDx1lXFRCVuhTf3dhtMlDf9GvZN5zAtLXZa83AKkHUrDB//djM0ttShUq4pIvnqPPLVUdHW6UBeBtF34YF0KcirMTa3S3tf3RjUoOLgD736ahgMnpeJobLPb1EVo+y68/ekhFHT0YSzPxZ71m7Ex1YZqc1O38DitVqOiRJ0HBWopLEe13BpUXoqzeepxfhlK5HGtOndUXin54Zkenx/W5+0FTX3XTjmPq1BSZH5ucU/fRw00PN69TMFp1zzd7XKmGKWdfUJKIfPL7Vi1NQtpp1Q6UJ+bl1eE6m7NCKivqSorQ7bk1/mlsDc8X2uq1fVN/U3lQ3mFdg+vQcY1Ub/GpvKujhmsh6gDtK4MV30mFes/2Y6UM225BvfHMnLP02Ou5x2guqocp8+o76vKmqVVnfWF3ZThiXq8bqif90j96brTRDvcqQIc+ToNa1dtwMqNaZBiqEc6oi4v9bZdh3RgF9YozE4a2XMDuz2lfanVKpH39Ta8+f4BpJw0AruiutyOnCOpeOfdbW0ss1HP1N/a4RwxI/W5ZZWtODf7Utmtfx/zztYxMf+a+hTmPzkalovOadci71HH6b17hEob9uxOR0HvulJSO1hHxWHeJRMxf24CZk+KQLj0VKssxp4tB3CkuGe2bFbn7sfajVnIyC1DSRvSantf3yuVZWNPSj7sajUwZjguunw2brxyCmaPC9I9k+wnT2BPVql+aoeokTuXdmNzWiFvCiHqIufPVXm55OdqmXd+BEJ1KciCMUmJddvnz43v/F4+9nwcPiH5iR9GnJ+EG6+dgW8lj0RLA0IQEZEbrSnDlWdh87pDRqDA3vpyfL8sI/dAPeZ6TkSdp6vr5z1Uf73uuLTDJQ3HGD0ETQ0KjhzCJ1/ndlnwsvTEAWw8rNKZdyASpyf03OtKL25fsp9MwSfb8yFnsyUmFvMXX4jbrk/GAnV9D/dXG8vysXnzId5UR0TkBms7bWDPSMOO9JbGgaK+wj8kDHGxwxGnCpeJ05Jw1WVxiJRyZUkeDmQUNl2oDBiOed9egLtum4eLhgWaG7tGVbm9XXeqt/f1vZH9TA6ybWrFJwiTVaE9YagV1tBoJCYlYlK4ZJV2ZJ6y6cplh5Aerr2uduaH8Emz8b3bFuB7l8cjtKfesdqRuvE8po4XHqPycsnPZYkOgr+X2ujjh9Ch0fXbh0UgsLPTdqXKY6XO7WNBVGQorEFhiAwP6pohYoiI+phWleGqymFrR2GuP5aRe6Iecz3vNfphGZ56vS6vn/dQ/fW649ION2Ei5l2ehItGSVi/Bjn703DYk44W7a3L15SiqMwPI8ZGY9qsczG9J7cH9Mr2JaW6AAf3ZaNADqc6v+fNGY84VS+2BIRixLlJWDAnClZ5Wm4W9p1kO3y/wXY4pZ+V3XjM26xD5ty1rz+K3Ll/1esyrLL0vm2Pjn4/Z20bG7wAe9ZsxeYcp8JDSDQWfHMKRgSo9ep87PhwK7blqorm1Bm4anIYfKQLdkYqtu3LRMZpuypweiMwJARjJifi/FEyB6XccbYL61JsqGhYJvH2RcRQP5w9VeY6rnplPvZ8noIDNm+XcdrtOQfwyZZslAYNQfIFiYhBLg7sTsWeY4UoKKsx5ikYNhyzpvfPeQrae8zDJyfhqqkR9Y3u6jjo452nyh7nTsNVYwqxblMWbH5BiAoBbAWlKK0NREJSNOz7UhuNF19tO4Evt6rtjnkk/C0IHRaD5PPjEROgjo/TmPDBkVYMLCvGmaIaeFst8LaVoTRgkDrOkzDC6Y7B6rxD+GRzFgrgi0BUqQJoOWwlkrBUurMOgMXLG8Hm/Hi+RenYvDUNR3JLYZfPDwhEzNjRmD15OKxl6Vi/IQ2Zxe5fv2BqlP68nq4tx9x+ai/eXXsCBV5BSF6cjEmhji50lSg4dggppyphCQ/HwJzj2JdXg9CxiZh3rpzrpppipG3bhW2n1HGTfT0GOLj7CA5kyDAMNbBYrYhLGIPpCWEo2rcDn6cWo6hI5Q2ym9U5GmpR72QJwqTZk5EQXInMr7/G5v15yJPj4O0Nq/rsSTMmIjHcqNDUzb0QOghDaouRoSq2tmo/hEYOwbTzxsCan4bdMjdRnvoMH5UHREchOXm8kcYaKjuBT1btxZESVXE5NwqWM/nIVOmjVB1/a3gEpiZPRILeH06f65hz9+QOvP1JNmwDIzB/cRLi/OvPnchpM/CtSU77qBN1+Hnu4HbehxqUntyPjV9lIf1sJapr1HkyOBSJU8dj8giVv5dnY5t6TZo6bxvyCVMFlpkRyN74BdZn1MA6ajhGoNA4fuXesKjrxLjz1HUitn6u4uqCdOzYeRwHThWjtEKSSZA6Z8dg9oToxo2Wjs8ut2DMjCmYFmGkl9Jje7Bm91lUW6Mwd06CMfemzAOxdQ925NZiUKi3yrsq4Rsei3nJznMI1V+rqlVla1ZsMdatczrecg3sJm065k6qCw7gv6vSkIMgTF+QjGmOCUnLW7qGOp0Hg9T552NHwdkylHn7wK+yGhWBzeTR3iq/DapQ52UZCszxxCxBgQj080ZovMpT4qpxmNdvaqCtad12cDPe3FygzvtoLF48BTFy57uDlDU2bcYHev7cRCy5MBaB3up6l3YA21LUteOMXDtUhVJdO6ZNTUCcvgbYkfnFRqw6pF4zeiKunBaEau8QBJ7dj7VfnoZdlY3r5/atn9PXOjoB8yYY+Wt1QRo2b1ZlELk21frBOsSKEVEW2DLPGnN5z5G529UTWzwPqa/qvDJcKAZkpWO/Sns2lf9K86dloMp/fdW1eZBxbQwtbuZ622wZeTSm+J7AF0cbzEet6gwpm1KQUuiHuKRpmB6jtqprb0bKIXx1pAA56nvocrgqC5w/ebQxOlAD1WfU9cNdPSN5MhKDbEj5cj/2nChWZQj1nfzUOavOk+QZZp1CU9es9BSs/yob2YXqd6t6R3hUKGJVWfNkVhl8o0djXtJw+OSkeHwed7QOv56HluHA5j3Y40F5fe6IQmyU/TtgEGJDq5B9sgDZqjyk95Pal3OS4408qSF1HA98sQt78r0xYtoUJI8w6uXVtjRs3JiObNTP92vPS8O2neYcgtVGmX7cxHijzCivKTykvn8qcmrk+ydhjHcVLH6FqjyX2mge3tKMvfhkRz6qQodj7uzRRkOfys8z9+3Fxv0FRn45UKWV6FCEV6vyZQEQNWESZo8OQkmDMjzn3KWu1Gl5e8QITBst57jK6zJU/WxHFjIlr1P1M4s1SLe/JY92mmOvIhcpWw9gh6qjSz4fGGpFTHQIfM+qc78yEImStw6qrGuPCY1U52nRWWRml8LuF4io2GicPykCJYdTsfuYysfVZ+l8fHQcZk9V55XjgypU/t9c/uzU5uP8GaXexk0qyTPGqzriiV7dNtOmvL2F+rnklx+sVnljhbquzp6BeaGnjDpWo46qah+p69ZlCTXY7aYu31Jaqbv2WlT6CKpEZmYB8orNNp3E8Zg9rnEbR3XeAfVdVD3ZEobz50w02oolf961G5szVPlghLqOTlHlA8l7y7KwWX2vjHJ/DA6sxpni2s5tXwpxnDudqy3HvLowVR3TQ+qYquvprFlYEC+hXCfqnN38wXbsUdcz67jJmDckG1+4bUf3wZAIH5zJrYBPC20ac2c5yjnCqW7f1ra1anWcD6p85WC+UdZS53toeBgmnZ+IhMG6RNiA+/YEu1kXCi/xoP2nRpXRDuzF51/noUClzWp9g1sUpic56m1dozPOc623tcM5VKv0s3svNh826rD6NcNUvnLqBI4UeiNmxgwsGB9SXyZzTnPqHAgcHI7JSedi0lAJbjqlk14/527/PuaTBtp6/py7/Uno6GiVgauVwix8uT+7ybsE7ZkHsHZdGo7kyMXVGz41KkEWqMT8+Q58eUpeVY3qEpm3zHUuCb0UFKPExwdl6m85x08hp9RIpNUFp3D4pIwVbkPa8XwYm+3IO56NjDOlKKoZgGBvqWjuxnpH5U6dC3qegtRUrNmUpi5Q+q2oPaor9UkufHy9UWVXF2K1//NOqYrCwVxk5KjjmqcK8WUVjceLV4W4Lz/diz3O80hUqGOYloa1nx+BMZ1z/ZjwGQezcCDdhpwzxThT4Qs/u0ofmdkN7lizIzs1C2l5pbDVeqNcpSGj8C9UurNJujLn1JNC5GcpSMk0AruiukxVLPak4JM9uSitLscZ9Vuaen1fZhkUinB9s0Yxdm9Xhcu68fhVIWlUImYnT8H0sVGIDFYXWHVs0g5nIttMB6K6OBsHUmVMfVXJDK7FwU27sPmQeiznoboI2G3q3PxyL9YdLEBZsbE/60YDVOeoPvfzJV2oyurB3Vi7PdcI7AqVf9hyc7Hxs73mUOD1cy/kpGUh5ZhcnNRmee3JLHyyeiPe2XgCabnmZ1SqNJaejvW7VJ7l+Ey3VEX2a3UBOiWNT+phtfrcnGysV5+boX6H8+fm9Zf5utzM+1Cdewhr1qUj7YwULmSLOk/O5GPbJ1vxyaECVFfbYZPXOOfr5iL7zinZwHbsRP3xU+9jL5TrxC7sUNcOTRXsN36aokeLkHxHpyWVftJ27sGa/fmNRw7wC0RgrfqsvHwcSTdHFpBK5fHTyJHjdjIX6Y7ab0kuDqv8paCwGgPDAlCjvl/OcSmAONK+UinzjOfq11YHhCCoqQJNX6Eba1u6hjqdf8fU+Zearyp6papSrgpVLebR/vBRx88R2BX2YvUamYtD5REHef2mbiRBg/99rq4d0nAhVQR1TclLP4G1qtyQUWY+yWQ/fRz/e38HduSqa0GZuqZJOUgtdXP71lSjpG5+3ipVslHKTqgyyAGkSNlY0nNNpbrG5CNlTxYyHHN5y3aPzkOieh6V4UYFolznterabf7VrvJy49pcDntR89fbimbLyOUoV2V3nd7PqvK24ym1Ko2ri4PM/VqgC94qHe/ehTU71HVVrgPqM3Q5fP8hfLDVfdpuup5RhCObd2HjESlDmB8o5+wxVafYeKSuodues1/VMU4YDdiyQeodGdnY8XW+US4osuvz0+PzuDfwCcCQYA/K66FW+Dj2ryo/79iXi0y1vW4/pak854sm8hyVfxXJcZU0pcvIpio7zqj8TM/3q3aYBHvXf1w/h6AOQKky/bYNu7BbldNdqPJj2ubNeHdLpnqu8b2k/Gmrm4e3BlVynKT8cVblvfpj1TE/oOoNO/Lrvoe0MWQeOYE9acZcX2f08Jz9sAxPvZ5HebsO7Bp53Scb0pEh57A+FWRuXhtSNu3GZnX+aXJj6+a92Jhq5POitEBtU/XfA5nqXJbzTVeW69tj0g5m4UimUTeuLld1qkMy/+dmrN2t8nGzzqTz8X2HsOWYWf5X37fl/Nn9Z+j6fEY61u08gaLK/ts20xSfoAjEhkkzttqfucUoUXWvPMlznerbxiLXLXV9c1OX9ySt1F17Vb1uz6F8HdgVuk1newp2Gw13LiTI7yP5bGYu0k6baa7iLNKOFei8N+PYKeQ50l1upj7mBeW+iBxU28ntS+a2Hsp+VpX35Xf7BWFYhJzwDfhHIPlK6c23ADcmR6h9bFwHGx3zghKU+vujWq231KYRLDGjOu1tW1NpMWUH1n6ZbZS1fIw6VMEpaUdLQVrd+evMfXuCrgu1UB41SgQ1KDi8Cx98mavTpt4maf2kqrd9uB173KTPXqe3tcNpkhZ24ZM9Rh1W6NcclPSoH5qaSHMSN8rL1UOQZ+rv1c/Kbn36mHcuBndbyWfgUJw/MVTfjZ134AgOupvUXRrSj6pMVh15y9A4XHXD5fje0iQkx6jdXV2KY2kyb4gfwidfqLvXy0Xqrtu+gevON95XGucjh0YgRm4ALrch/bS+ssCWoxKLmZpKVaUwT9Jfpaq85UjBwRvhMWEYUJyJAyfVd/K2IOGi2bj9pstx49wofXdH6alTOGZzd2Ehj8kdGXsO4YBNHqhKxWDXYTR9BkfhogWzceO3JiJxsK+51aESOSrNyB1n8A9C4uwk3PhtYx4JuevanpmOL4/rN3bihxGTJ2LJNclYnDQKCcMkhdQgM+1U/bzP5fk4oguh3ogaMx5X37QAt82Lgh7EQHrXXW+ksZvnRqPo0BGkyOcPDMW0uerzr03CvEmh6rkytM0hHKlR6bXJ18fKlr4rIArTJoTp3116Mh2r3voI/3h7Iz7ZkepakYyNQpTcwV+gCu25ZqFd7T/biVPIlCuHNQzxA8/iaLY617wDkTBXnYdLL8T8cfLOlchMzUXQ9Hm46+ZkJEdKFuyte7jqvODmCzEt4DS2qUQiDevh8aOx+MoLcd380UgYrJ5bnKv+lmne2FHPGqeed7VKS0lhxp1cctXzCcSYGdNw3dXTMHu0PprqO2Yis6V6oHpdQvI03Hj9bFyVHGXc0ViYja8Oqwun8Yz+TYIOu44jRyUJn9AIzL58Nm6+dgbmnSt5QSXS9qQh0ycW88zzRi/Xq/wgxHh5YGgQApwzDTn+4xNw1bVzcd03RiNOblRV+XrKnhOwqeNoO5mJNMkWAsIw+4pv4Hs3zcXiCfJZ6pw9mmneEOLER+4SM/Il26lco/HAXoD0XPOJ6hqUnmPTx7I0T1U05fISZEXsyOGIG6TW1WenHa8/1nJTUVq+pKcgjBkVZlyj+rDqwtZfQ2U+qMVXzsZ188ZhQkt59Dkjcf7Cy3HXNfGIkXNL7dfpi7+h08mSseU4xOs3dRdVds1W574kM0uMKgtcNx+3LR6NGOlJWHgah7Ndh0GrLrShoATwlaFQPWJX5YxUpEglxy/IuM58ezYWq+tMwyGm2nIeUj/nSRnOLwLTpXHw2gSMkHStymiTLlflMblOXzMJwaebv94WBMY3U0YeBosn50JFIY4eL1bXWFXGmzQFNy9V9b/ZEeb3zkaG2XjcFOd6xtjKdGxLU4U69TvGJKm6wrWq3DY7Wvcytat9sE3qFJUFOLjzhC4r+IREIPkbyarMosr+4619/HruWXk9IdIoH9dR2xruo9Jj6UhpGIT1WA1KcrKRKTfHDAzDRVd+A7dfNw3TIlRmpspbR9KkvO+sEnmOm2s8zVuLT2DHXuN9AkfEYr6qN9x8RSKm6UIGUS/nUf1ckaDt7hO6fmaJjDbyySsmYroM4avKNwe+StVzdZZmHjHyTZVHRJ6boPJNVc/+RpxR/2qSH0ZMnWLUqccEGm0/8tFBYZiu8osbFyQgUQ8Rrer5x7N1Ocp+yvyc5vJnF40/o/TkKWT7jem/bTNN8bIg2KxM28tVRXboFNwo13FzuW1BrNkj0xuhYUFo2CLnaVpxpq+9C2djySWxRm9cqS+nu2kbUeWHGN3TzI7sLGO4cHtBnkqr+q8qvz6L9AK9FQWZhcb8suFDEBfXye1L9V1Ue6Sq8kpjX/oPQPCAlr5rC+3oMdHtbtNoddtaRT4Op8rxVmW7c1XZTtVbvnelzPkvT8rXHSdaUteecOkYWFsoj+r2nxJ17d9lzEdujY3Dgivn4uYrVTqWa395AXZIW1LzRcrep6e3wwkpk+03zn3juFyIGxcnYtLQ5tN1ozRXqNJNXsvpps/rw8e8o0myodbwUhn2mNGYJJWyCht27EyHUwecOpbwCCSOH46ZSXGIlAYE/1DERBkFtRJbkXFXnhN77iGs22kEdCInJmBa9BCM0AWDSuRknYW9sgyZWdIYYCopRPoZO6qL83BSN5QFInaoSnTqohMbH41J0+IxVXct94Y1KgKRuhBih62XTazfE+Tt34uV/1mHN//zCf6xYgM++No4DpahwzEhxqlRQBW0EmXYjUiZC0Zlyg3P5UobTpq9ucJVhpI8JgLWgaEYkXAukkdL8UId6/Q8l4uwZcRozJ40HOHWUISHhWHo6AiEqqRXnZeNNPNOtNJTmUjXGVAoEkaE6DTmVt3neyNmgkpjo9TnB0VgzOQETJZCYEUxjqq/N0ia/YgfQsdPx5L5qoInO1mRuyGP7DmEVW9vwnqVy8u+8QkZijFRcnDtSEsze9DLnYDHjH0XPipGnW/e8JW3UPlF4ACLOi+DEDsxHsnnRiNhmFkpbILcuJEtjUDWCJyvzuMYdUEKjYnH9ClG458t07yxw0FdeKafNwYxISotjRuDMVKYVaSAMHtcFEJDopCQGIVI+dCKchQ57h5uQui4BMxUr7MGWBE5LhHJutKgzoOTKm3238RRp7okF+mnZR9akJB0LhKHWhGoKvdjEuOQqPKD0EBVKChzymflzu3th4yAhjqms88baRTYTD6RIzFnmrpOBKnXDovH7CSj8m7Py0OO3Pmlzutx46Ix/fx4JAxW6U7lM+HDVB4j71FWClvj8YhgHRqugyXVhQW64cN+Rr1XiflnVTA5m5WHkspS5JmVysCICISrvGjMOcZwJHnp2eZdw6pieuy0vlHJJyIKcWFdW0DpFq29hgZFYfaMBHWeWhGqrvvDVL7e5jya12/qTt4+8DUTp4+vBQF+3qosOxLJSbFIVNeEIdIgmXscKXV3CFkwImkiZno6H06lKrdmGJXU8PEqr5PrzEArYtR1ZrZ5nanDc4FazbMyXLNafb1tAy/UnWcWfwssMoTeSHU+TI1G4phQBHo18y1d6hlBsGefhVxaAmNjVflS1RWCVLltTCJmxcv5VIlMVacosOXiaJ5RZhkrQ7wNU58hZf9p4zFJNwD3XZ6U16NchsGWct1EN/uoFBlZ5kgorabqA9KDR6hjPdDfBz4DopCYNAaTVFrTaVXVz9IPZtc1GPmER2Pe7LhGN724p8qc2blG8FjVB2QY1ziVNgIHx2LazDjjJgaiXs2zvF3qZ2lSP/MO0vPx6nxy8HBMSzLOg+qz+UgvKEbeiQKdb/oMjcXcqXEq31T17GEJdfUvd+S5yROijTr1xOHQ2YoEY6eMxzSVX1hVXW5SfIgOFtmLSlFWbVf15pbzZ+c2H7efIeWd8rblPH2aSgZ1+WqV2onOPdnKsrBjc7rOTwNHjMHseKfhuE2epRXncqa6NpyXgIQIK8Jjx2ByrBEWLC0qazwimrpOx8QE6bRQoPLmsxWVKDpVYMwlK6QTUI66BlWoMrHuKeaNyGHhCA7t3Palnq66utoYGUT9Ns9vGjU0bkdX1+/2tGm0qW1NynKqHDchDskTVV6ijpOPNQIxOs+qhM1W2nwZwrk9YbAV/oEtl0elzdBx7ZfnjQgNRGDocCROjsaIwYEIrlV5Ua8ZbsUzPb8dTuULp/ONtty64xIEa3gszp8R6zo9kjO3aU6lm+I+dgDboM8e807g9DPJY/4RSJwWg3CVodszjmPbCXVhdj7GclEfn4BJ0Rbk7dmGN9/6CH975SOs3GEGzmoaJIjybOzYat49NiwOc8dHwMd7AKJUIpKCgS07D3mFeUiXO43kwqFTlh2ZWaqgkJOPs+p1PiFhiAn2U/+rytykGIRWZmP9B5/gnys+xPNvyFya8kEqrdewgNhqFeaQJjLMiRQIBgZhTNIUXPONBNc5mHwtCHUd38NVhapQ6OOgjmGY3P1hUsd6UFigPtb2wmKXi3BgcCAGOpXULINjMEbuDHXciaYyr0z1vw7QxMQgRkoSTVGfL71sJLFmbt2Mv/3jAzwvyz8363HvZXuZOTRb/6UKyzEJmH/lPNy4IBHTx4cZQ0HJXZxf7DGG3/G2IvYc6e2sMvLMTGSq0nfdnYB+QYgbFQr/oAjEyQ0g6vjs+PAzvPnBVmw+Vq0qgVMwW1Ukm54CoxKlKq3ppnNbNj543TxGavnnp9n6OMOuLiqV9XmIT3CI+o7mcff2hsVP1r0RYA00KgCKDB+u11XeU1XbXB6g0uYQo0JiUGk6LEA/liHeihrcxdofVRUVqYqaWvFXF/pBTq1mA4cjef5cXLcwCYl1B7gGBakp2Jyqjqi6LiROPxdxQeZBMQ0MdR0WyDIoyEgfFWXqfK2FdYSqpCQMBk4dwn/lBpNXP8A/PswyKolSmXUzNItPcBhi5W41lU+czLUhL8toYPBRaUIXXvLzkVl4Vv1NUpqfng8i0NtPfdZQowDiuGu4PB9pJyTVeSMmbqiHDY29W2uvoT6BqvLkdB1oTx7N6zd1LwsiY8MgN7CWph/Am29vwAefH8Fp60gkJ0/EpDCbnv8xzex9EDg6HnPPjTDmDfOE5Gl6CCR1nQk3Gl0M6joTEeTSqMpzgdrGgzJck7zbdL1tNb9QxI4w7gDP3L4V/3x3Iz7ZfQqWuETMPj8BcY3uDHXiXM+olrqJPqFQeuwA/vmKo7z4Ed7Zp0uLkCH/y2SRn63KLJGDncosMn9vF87H1i08KK+7FGv8LK7lOvWcIYOMfVRaUAy3oyp6IDBCla0kHUq5/p3P8M4nO3CgJBTTZkzB9PhwlB5JwSfmjcPSo+j8CxKbTwcuqlX1Tnr6qpc61wcUn4BQqCI9UR/Qct4u9TNdT61Rde/3P6qrPz//1gFkSFZZU4kClR/azN6+1sEhLjfiW1R9rKksUT/XzCx8fLz1MI2QeXGDHDVmVc/W9W9FlU+qqjzLnyucijJuP6NW5Vks7jRWUwO72cDuY/GrDwbK/LQ79xuj5AVFIHmG+5tkPEorzuMYu9T55Vgbb1oXkHThjYGRKn1KWioswMmCAmSavTatoUZ6KZAb9QvykS2Vc/8gxEapjLpT25d6Pou/Oo6yUq3OZekl6yl37eiqntGeNo02ta35hyFh8hjEBdtxYP1GvPbGh/jbPzdi40njt7R0Hru2J3hSHq1vM2x47bdEJmLBFXOxZF6ia1t1H9Dz2+GaPi4+A+Wx+aAB92lO/V6VcPr7JaCvHvPO4PpLyWOWyNE4f4xuJseRPceR7dJeoAoE+7fj7U9SkSLzGUoh0tcPge4yV1Uozdh5AHvkruqBYZg5Y4x5YVaF2Ihwo9dvsboYpatCgBQ2QodgmnlnoC1TXfAzinVC0j215HVlWdi4ZjvW7zYme5e5fiwD/Vwrr9QqMkTGvEsmYv4lU3DVNfPwvW9fiHkTop0m5zepjLjRsC/O1IXfmDJJZdi6xO6gXucoKagLtdyA6CAFBxd+oYiLMwLD+k60gmwcPiWJz6K2h+m7xJqkPr9uDq2mqEoECVUojIzFtBkzsGTxRCTo4RpsOHLMGGc/cGiMMYRDmQ2HMwuQnW7cCWiROwFD1InoE4qEC6YgebQEStVFRuYU3L4Xb761AZvNnktNqVYF2hYv4s7H0XHnakMuacfzHEAqlC5UWtWvVt/LOW32W7If5H+1n1q6s7T6zBFs3JGPUnWOh09IwPQRzuELg+xv53zDx0fl1/K+al/b1Q6vzk3BB++nYNuhfOTIDSYqbQY6FRrc8gtBzFD5rBrknchEWqZZmUmIVelTrZbLUFKnkFGk1gdYERNhfC+f4CiM1cP42ZEhd7eeUtcYqXgGhKrt/aSFsLXX0IbnS3vyaF6/qaNJL0H5v7rKTcNCDeyOG4XMvMwyLBHfvGg4Yqze+oaejNR0rP9gA9789BAKKqSCqRKwUxquS5st5IWecPl6PBeoXZovwzWlTddbt5p7jR8iJ03BZVPDdL3NLnM97kvFqrfXYdXubF2na5JLPUOdj7ow0oyGZfqWynAdcB73NC2W1515qfKuSybjreph5gZpbG6pDuXEJZ0FxeKiS+ORGKk+r9KOnIxsbFu/Ff/87w4cka57KnNuWN0jIneaydsd9bPmyHncBo3aY0y+Kk92r/X5c1OfQW5UFeO09G5RgkODzJsMa2BLO4CNh4xG/YTzEzCmQaN+ndamlZba+BrwCQo3emzKVEjHs3FUogJ+VoybYPT2rC7Iw9HjeUYv0lD1XPN7dmb7Uk9nkRvQZTfY7cgrcVNSq1HXzkN7sXHzLuw4Zg613GQ7utpV7WnTaEvbWk0xjmzcilWbT+DIqWLYymrgG+AHi6cVlwaf6Ul5tK7NsKnv2xc5zl1pP2uhzNpd7XDVqm7t9rh4+dWN3NNIfzqGrdVXj3knYCpqK1VoGDExThUa1LqtABnS7duh/DT27DfmvgmNT8B1Ny3A95bOxWUJDROXKoQc/xobD8rF2IKE6YmqkOp0SAZGIDZMPVYFg5QUSaQSxI1EzDDjbrDqM1nYLXOSQX2XYXL3sbrIpx3FAblbbUAopl8+F3fdcjluW2DOmUZt4h8ShrjY4WqJRqS1vk9jq6mMw6ILHJWuQwfI3R4lZo9Z35YKAd4IHRFjHM+CXOxOyTQmWh8cgbFmgKZJMhyYzsn8MOYSlTYcY9I7LTfOilYpsX/K3LpO37X5t/cPGPOUOqhCYIxZUrTL3fFS1h8wBGNjZX9XIvNQGnYfk7PTz+VOQJ+BUZg050LctnQ2rrpI5RUyZ25FMVL2GkMFNcXf31cXF30i4nDdzY2P0V03zUZiSGdl3dWwu4zfoi6mKq3qi5Wfr+cF1L5MncS6Elmhzlu5i8xBVTAKTp1AWkY2CmR4ngp1fm5J0+enJXIk5k6Mcntu2cvMNGWqLi81hu1XhYNAvzKkfZ1lzDERMRwLrr1cHf9v4LpZEbp3XdMsCI8ZZPTAy8hEyhm14h+C2Gh1TRkq36ISGSnqe6rPtYSrSqWjwOIdpNKw0XPPdiIDuw+b1x2V54xoNirZV3TENbSteTSv39TxfAeYAdGKciNfciY9/8zhjS0BFrNxzA+hcROx+Jp5uPnKKZh9rvTqV/lBejp2nA5A4pzpmD/GXU7m5uJQWwW783CC/gEI1Wm5EgX5Zi81rRJFZ4wbFQ08F6j1WlWGc0d6/LTpeuuO80VdlRUatiL7WDFi8gxcd8M8XHd5Aqap8qTMG5W5Pw1pnk6Q5uUHf7NQFnruNKe555yWKyeqeksgAuTnV5Qir8hpx6i6ZZ45dUA9D87j3saD8nodOVbOv7WmUpXRjH3kI72KmmtUcgr8VtlVublBINgSPhqzF3wD3/v2DMw/P0rfvF1dkI0dB/LgMyIei+ePhsR+W1atsvNKp8CED/yDVP6t1qqLil3zeXshClynSifqdTzN2yv8zPqZfygukvy7UZ74DcwfGwprkPGa0rOFcI4hVanHzllku3iYP/fwaVB7qBrYTp7AEWl79Q7EsChjJJjqgjRs3J6r663hCfGYObyZAJ6jLt9cWhndjpua/ayqzi3XnRrkHDyh5+/1CQlVdfAIDJObrCtsSDloDCceHqPKGI5rUSe2L/V0PsGhRg+3mlKczHIzjYY9Fwf2nFD7LQtphXKda6EdvYvbNKrzjmN3utRkLIhLnoHbblmA265NwjQ9F3creVQeVdd+s82wulzlf85FR5W+ctQ5kpGpfnMvLr651Qva4XwGNHFcqtR7O39n8gyPucc6PmfrT4KGY/qUMJeh5LSqcpTIQVQXlbgxw81u3gVI10NB1KsuPI4tX+bq4TJDx8VjemyDQoRPAGKizeF7dcZsUY8H6XmAYuVC7tgcZMUwPcyHqvCVVultcudXQqRRqJC5eHSvX+pe/iGIGiTHTRX00jLrKygV0jPbmIfBGhaKQLPw1qTAKCREy/G2IyNNGki9ETkqBuHOPcPVxzS6w1B9frgOClYiJ/NsfaZWmY+U9Rvw5rsb8MkR8044d6/v44IHmY0j+bk44jypbZk6d/ONg+WrLi7GDTl+CB8VpYdmr87LRYY0nsicpcOMbL80Yy9WvbsO73yeigIfKyLjEjD7POOiIL2hbI5MXr+X8xXAD4GDgzBQrVWfzUNm3YTeNShNV+/53jqs/CjFCBZ1ihpkOk8UX1mAY0cLdaO7ZVCIy/CzraLyv8wMdfFNP4HMApXWK41Cp36cp9JwZTHyzMcZuc6N/j2PJcgcXqO6GIeP5dV9V/vpVKxduxdrPzuEI2dLkbnnAHbIcOcSnEge3WQFvjTrFNKLHGmgfj4YDJA5JGpRqksb3oiKG27c2asKMjnmfFGiYZuxgyUsHJGSkMz05RMahhhrkKpEGkM+OU708Jgwl6HfAyNVpUf37rXhSKZKCKriPCquuaFXVdrMUxUtdezSTqrrWWUl7AXZyJDHUthSJRx7odPjhgGmHqWDrqGe5NGN8PpNHc8yKBShku5UnuucXwl7bgbS5MYPCegOUWVNld/rssB7m7FNnfuBodFIPC/RmJNflRsKirz08MnuKko+/r7GdrtdVWLMc7xc5ft6DCOTnyoDRRqvzktNr5uTurrgBHanOpePeS5Q67WuDGeWcZ0vRzLEnafXW/WnxmVkb1gCjZsp7CWldSPlyJz3eTIPk6m6WHrDr8ObH+5CWpk694bGYfqMOMRKuaJceqw4CmAt8LZgSLhFf54tR32G42U1dmTu3oqVqgy6ausJ2ANDjcZkdT1K+/o48nT5U51PGWk4oKdkqefReaxe27uu+c2X112ocp30AHSknuriLBzIkh3rjeBwR+8wJ96Ou/lrUFRSbuavlSjKUWmm7mfbkbN7szoeG7B2X67uXRR37kTMGmfU+UsL1RdS9fpQXTBrwEe9vyS0avWe5lCyqC5Ddo7z3H3eGDgk1ChflOVh96Fco36n0m7moRNIZ55JvZyneXuA1ayfVRQjI7u+TFFtSzPy3FVbsScPCB8aoutB9uws7Dlp3v1QkYuDB/Lr8vp28zB/1vOqesrtdae/kWtXCtZuNoK4PpFRiJM5EaUta+sRZKhrrU9ELOZMiW6m3upUl282rTgOWlv4IVjVt/V0q2ZmbY1R+XxAKGJjjMxej6Yjwelo52lKOqt9SenpbTGWUMTpOkINclL2Y4c5lLWmvmva3jQclv0h8wyrfYaW2tGV1rdptF2VKr/pIqQ1FIkjw/RnVNtyke5SfvKQR+VRbwSqcolOGYX5OKzKBQZVXzu0B//9aC8+2HIcBXYzACbH9VQB7HJjb91jVd5R5QtbjlGm6w3B4J7fDqfOfbMt1/W4qLwrMxvp5iWno1UXq/xCHcO09Cxdj6guya97nKPKj9Vl+XXnf47N6TraC/CYe87nV4q53mbVxwtQ8s+v9PrAW86D78jBer2tOvr9nJWVGTXswEB3tagm1JYjJ/UkTpTUIjAqBglDBxrXTHjBYh0Ir/xMnCgyavGBQ4chIcoH+UdPIae8AmfOFKFSXUyP7DqCvTJkhFKrMlF7ZQVK09OwV0/mb0FYcA3yVEI7fuIUTpzMQ5F/MCKCBsDfpwjHUwtRKm+vKoTTpo5EqMUXvqXZOHSqQt8oHDgiDkmjQuDn5YWa4mwcPlGurmGFKjO3o+xUGrbszoeRfqtRYS/HxNHR8qDf6Nhj3lh1cQ4OHrWh3CcQcfExCPM3b+2uUgWRQzk4U+mLIecMx8hBQQjys+HYsWKUFp3BgRNnYC87jV1bD+NQgTqSqrAyaUYCYgdWIe/YCRwvND87usFne0llvxBHjxYZDRAqrUxNGouogPpbyr2q1N+PqPPIXoYztrPITlMFN58hOHeIXX++LS8fWcVluiB3IuUwth0rURfzARg3KQ5DA3zcv97LilhzrpCeri3H3DKgBvnHc3HGXoFT6dnILTyDrJOZ2Lv7OI7L+a0KhGOmjq6bB8tbnYdVufXnvvWcsZgxMljf2e9deRopKXk4nW9DQU0t/CrO4NihLBy31cAnJByTx0Ug0FtdPLJP4uiZGpTYbLCdOYUDx4ow+Jxo+OdlIdNWjswslUZUAa88Lx2bt2fiVFElfCNjMWVUECpzT+LAKZUCggfj3HPCoduX6tItEDRsGMZFBBhpx34Ghw6pfKDWHzHxwxGtjrGLurSq3qKkAIfS82AvL8D+Lw9ir57r24Kx5yUgPtQHpTmun+tXmoP9khZrqlBeWohy/4HwyZMhf2tRVVmGouIKBNTk4LNPU7H/WA5O2IMwMug01n18GPuO5uB4sR/iwouw4aMD2JOag7SzPhh9zhDj97RCe8/z0jP5SDuSjpQDx+uXE0WwRgao/NzpPA63wlKm8t9clYdnZyMtvwz2syex/StVmFL7zyd0KJKiz+KLL09Dva2+RlhK83TervP3gkqEDg5AkSpgyTmOqjIcP5ql0l0JTqnKzMZUoyUudNw4VVEZCHtOlkojVSjKV9eB6lLkHjqCranq3JUnqX1eWV6JoIghLvNGaT5qg7o26aGgVCqIGDcGk4YGwmKpVvmLcazhMxAJ085BjHN68LVgQHkODmQbNUSfsGjMnBSNIPMpkt+5HG9fXxTu2YXP9mTj6HEbAmLCUb5vB9buPIWjEjmKGgLfI7vwwXb1O9JUuoqIRpw5h117temYO6ktz1PnhcrnoM6Lseq8CPTx6BrqbR2EIPW8Ruefgwd5tMs52YrP7m/XbzK0Na17+/vDu0DlUwXVKr/K0uWOvDyVzx48gk278lEsl6+QKCRPi0WIXy2K048hJasEuXml8PVX+Y7K7/ceKUJ5rR+i4kdhTKgfik6dxKHTlSr7qUBRUanu/R/qX4ZT6vwuKC9DtqpgVdtV5WbXcRw6qxOves5QjB8RikFBlcg+fgZFpSVIO3AU+9SyLeV0/c1u6voxWpWjQsp5LvRnnV+GsyNX6mn2SpxVaSw/6ySOFPhiMApxvMCD662XuzJyKOKCi5F6tBjlJcU4XVqGirOZ2LEzC6q4oPggdORwdQ7V4MT+DGTkFeG0KtP5eZUhJy0DB9X1pNo/APGJIxExwLWLqPt6hg8sgTXIVeed/Ib000WqVlqOvPQj+GL3Gch0j0PGjUZCxCAE+9hwNF2V821nsH+vOu++PoJd8j2N4it8Vbl0/KjBGOjjwXkcAxz9YnuHX/M743ru0Fx5XdTtX/Xn8lz1O3JLUF5wEls3Z0Au8xgwGEnTRyPC4npcZKjO2kJVFsipUM9X5fhKO4pOqLzqa1U2ko/ysSA2Phbh5ZnYfcSm8l4b7OpDq8+qctTBHJW3qap99AhMjA1W9YSzSDucj8KqWrUvitTvCEBUuAUlmep7F1ehIF+VJ6pVOfHAYWzPMOr/CBiEc8dGIGhAIAJKJPBVgZLsU9j19XHs23MU+812AmmvCIqOwbgoC8oblOFbW9Ymao9OzdvDHPUzOwqyTuOMKqPUlqj6+FdHceC0OkcHhCMpMQah6hpQoepvp1T9NPdYOnap+t6OnSdUvdXI56QMHzV6OIYHSX3JTXuMtOsdykNhtR+ix4xAjFlBqlR5Rspxdb0YEIx4lU8PCfYgfw6Dx5/RW9tm2pS3u6uf7z+KHTsOYmeqzQhA+VuRNDsRo63eOpj12UG5VntjUKg/yk9nG/XukznItfsjylqJ485tcnV1+ebSSjQGlLm79tagJCsDB3Ir4TtoiLp2hqLhpUH4+tei4Pgp9fnqgUqj8VPGINbqDz/vszieqsrV8iTrECRNinGZ6q2z2pcCfPOwoZPbYhzadMy9/GENUXUEVY4oqrCrskgmjp46jcyMDHy1/ZCqm5jt3qPGYvZYf5zctgc7mm1HV+WOFto0XNU0auNqVduafxGOyflZrsqONpUWi7Kw86t0nDTjPJWqfFDpOxDRYebrtSY+U/3S0pyW238GjYjGwPwsVUaQvOwUTpWWovjEMWxJMcog1pFjcF5EEb74aB++OpyDI7nViB7ujSPr92CLKoMcyaxAWKwFJz/fgY371WP1I0NHq7zL0ZbdCh12njva4GTppe1wvgE+KM9S15gSOS6Z6v8y5KcdxOe7C4zzXl0NrCotjR2i8iqP0lwTz6tTiTMpu/DelhM4eiwXhcHhiCo8hFUb03HkWDZOWwYjxn4U769T5Xl1/mer+krCsCCndNg2POb6ZZqnxzzK347XX39db3FITk4211q2ZcsWc83g5+enqiLe8PIyztn2HlPyC0XilOGuQyn5RyDhXKNHrz0vFzu2p6uKXyUsIYHGHdHlxThyshildp1EVCKxIzNNVQ4PGUvKwUwczlOVfPUnn5AIxOo7rqVSHQZVL1P8EBodBmPkCVUAHWYMmyeH0xobh3HSq1e9Z8b+NGzel68u/haEyl0Hii0zX/9PncCD62DgsDGYGmcUwqsL8rFntwTx9EOEjxuDRA/H57FEDIUqSxrrqjIwosEwvT4hqoIwTN6rBgUZqsKfUYDTqiRskc+Ple2VKmNNx8bPD2DbsVJU+wchcdYkJMrdj828vk8LikXynDiMkFvgKkuRkSrnYy4yZegXP1VxTDoX0827LTWfEIyKUwV6WZc7Ac8x7tITPoPjkDxJekhWInPfIaxddwg7ZAh1P7Wfp8UZdxKp18SMMe7OVKVvHEnNR0ZuKew+YUicHGPctWkrwJ4vD+CTrVnIUVcG64g4zEuKMc/31vD02HkjcKA3qgvV5+4+YQ57o9LtiOGYpIcXaswyaDAi5WbJapWPqX12stgXUVHGiAP2vHwcOF4I49Lfw6mKREFhqetyuhglDcfWU0c8ZryqkOt8Wc6PE9i2Oxs58iMHWDEteQwG11aiwtzldlVwceTtOn9XlfWzTofDoiofPhWlSNunCjeZUgNUgiIwLUHuLA1E7PgYROoeGTYc2JmGHWnFsAcEGr3xalT6Ss9DQaXZIOHMewDCh6nCkLk+bKh5Z7AlFLFmPiO9eWODjfV6fggfGWFe07wRPmqoy51vjY63rS/lC55dQzOL3ezvBlrKoxvj9Zs6gXcQxpyfiOnDjHJHqcqTj6h8SMqgktv4WMOQPHs8Rshwx5LfTFF5W6hcA3Kx+fMUfPJlNgrUKW4dFYfpeog7Vf6MCNLlW7k+yXXLJpOxB8VgcryR75dmZmHbl6rcm+uI2NbzCY3HgssSkBBhZCp26dXno/Kcwcb3M/BcoDZoTRnOPwxjxxrXR3uuOifSVL5+thZRCZ5db5sqI/tGxmGS3q7K2EfSsXmHKuOXqIfOVB1x2nnRuqelLSMd69elYON+mzof/RAzIV6VLZq5VjSoZ/hYh+P8CcbvKD2Vjc0bD2DjngKUyntNSsBsPXmfOp9GT8aVc4cjxhzNwy7tnOp3hdcNYWj+7+F53Os0U153x6Z++459uWYvZ29Ejo9DnPNwj3VU3hU/0piiqULV7fekYvPXKk90KRap/R8nvYrUp8vQmVtTsHajDL8tXysKMx3DxgWEIkp386rU8/WnnVY5tE8oxkyI0r2/qgtVnXF7KnZInU2e70z9phHnJ2HB1DCjsUl6U6snWaxBRtoVzfxeoh7N47xd1c8SzPqZel6aOh8/UefagTzJsyMwe068kb+rPHj6vGlIjjPa5arLZfohdZ4ODjRGNuognuXPnuuXbTPCUT+32VGqL0feCI2JxkXfnIFpEfoI6mNo1KDVvjmZW1/vPpiFlPRClDSqtnmYVhxaH+sCfK2INRpuVRp2jLKoPjk0ElFmJ1OZbq/RqE6d1L7kMlRoDyV1hPmXqnNdyiqqzFVwSkY3LECB2ZAUGBOLy2bEwuqtyjEetKPra3QzbRrt43ru+Qwajsm6jVelwfQTuvyXYVP5inncpd332OmyJkdccyH1MU/afxCKcVNjjN8k++FgOrYdNEYO8QkfjtlTVfmit1z7+1I7nF84EidFGLEaec6hdOyR13n7wdrwfO/PeMw7nFetYq63mX39UeTO/atej1j3fVguOkevt1VHv5+z/HyjQSgsLEz/75lK2HJP62G1BoYNQaRKEK4qUZp3GtmqAl//d/Wa9FSVYMrVlSgYw2KjMSJ0gEpsmTh4rAAYPAxxweU47W7CeFWtHhiu3megzqlhL8hFjsqlLc6fXaMSf04+CqotCI9UCcn5K5WrQs3+TFUp9YE1IgKjhkfBimJkHj+O9KIBSJ462nxi/9A5x9yJzGuQWwi7VyDCo8Lqh1VWF9mCnFx18vshNCpCZQjm1VW2n8pEWlahUUi1DEDUsOGIizSH4FbHvPRMNvKK1J9C1We7HFxT2QmsX70XB4r9MGZuMuaNMkuJzlQayZPhGFSBrsoSjHPGxKk0pb6DfH7WCRzJLNIZTmh4BEYMa5CGRFOv7wXadsxN8rtPZiPzjFxcvDHQOhgjYqPqj18dVejctxUrt9tURhWLq+YnNiowyhAZ6aoClm1TFUefAYiNH60qp65PqrZl4/CxXJ3WrEOHIzFW5s9W20tykaYKq9lF1bAEh6g0EqPyELOSoMh7Z+arC9LAUMSEO9KOU7qty0OU6mLknZLhJNzkF8KRViU/CQ9EUfpxpMl7S/oYGoMxw+srFu4+156Xhj2p6hzwC0ZcfBxiAlTl+2AaVH1KD6uZONQbebnqAqeuNhZrmKrUVCEvx5jryKLeJ0pdrAtkGDv12FfmUIpw/B7Pte88d5cPq+/iq85p9V3kJp1G53GlTV3cM5GeVyrz/KvCRQjGJqhzRG6lk6GPso3f25CvfxAiI0NQfdY4xwPDBsH/7AmknCxW7+MNy+BIjImLNgoQJvsZVfg4fAalKg2FR0chbmgofO0qfaRmo8AnHOPGRDc+pkKGXFL72e4TqD6z8TGUwE6Mm7EA7Tl78e6HJ1DgG4rZi2Y0muPZ9XiPRKi65mTLwfSR9KUqpMX56ppViSovY58Flqlr2FnzsbomhQ5wfb+2atd5LiqL1f6Rnj4NzosWrqGxKo1H1ea5Of+ctJRHN3VO8vpNbrQ7rUtel5mOIyeLUCoZlgwnGhah8hqVvhomXl1GyESGyjtk5CbLkBhMOsdpGDP197y0IzroYxk8FIljosxyj/EZB9Vn6MDCoHDERfihtKQSPoMiEBOi1vPUNU3lFRb1OMpflWNlWNpBgSg5vBVvbi5AdUg0Fi+aghjJ/3gu9FtdU4aTHhPH1Tmh0nmVKoefE4sxqvzj8fW2qTKyyttzjp3AUbW9Wir1kVGICazS55I1IgrhjuufLkOcUtcRGcLZB6GxcUgY2kTZp6l6hqZ+R56qU+jGBh8EDgpFbGwMwh239avvqeuLUoaJUK9V71WEIIQHVSPt801Ym1aJwLhELJkTa9446Pl53JHX/E67nmvNl9ftp1SZZ60q8/iHYfYFQ1GdcwY2abjxC0RUrKqftVQmLZfeB5nILJJGdvWaEerzK0v1d4kaqvaHfrF5nDILUKD2nc/AwUhIiHUp68kw0CkHcmCrGYAYlZ7izJte7AWqziY9qlUa8gkMRqxEuYrtqLaEICbSCh9HmVOV9aLUd60qUuXJQBkSNBcbV+9ASqE3RiTPwoJxVrdleKKu0iV5u+Stx1X9LL8c8A/EkKFDESfnifm0unMgQJ0/od6wFUoHDJWPFabgnQ/Skafyx+kLkjEt3Md9e0y1+h7Z+bDVNiy/5yNT8n11XkYOsZplphby56bafJr6jKauOz1Y2465u/q5DyzB6toVovZtg4zLcUzdBc4swWGIGuQDm7s2uRbSSlPXXmm7ySxQ10R578EyZ757MjSqXON9VH4cVZffSppQx7xU2gBUmaDR8euk9qWhQLbZNtFZbTEO7b+e25BxWJX11bkpcR4fL28ERoxAYpyjLcPYh7oc0ohzO3rLbRrO3F8fHWnRg7Y1tU3mSk47K/UcVXZS+ZMMJ1uQpepfp8oROipOlzOdNXdN9rQ8qtsMj6v9oae78VZltUgkxqu/yZs5yoAVZhtURCBKc9W5oB8HqsdW2PPU7yuvNtq9GpUxPdNx53m93t4OZy/MQtqxPHWuG2XDmNGxiKo+a577Q9S57+dxmmsunQjH36vUX6zqNaEqZWaqD5LHEssI97Eh+7QxZczA0Ah1ralvU24rHnPzyU5aOuYleVlYuHCh+WzDsmXLzLWWLV++3FwzBAQEqH3mq3vvCgZ3qc/rS8e8ukIVJP1VAfXINry9MR92axQWLJxm9LqhOp16zGVYdfjBUp2Nzf/bgT1nvBEzYwYWjDeCstQ9mLe3l0wXoCrOPuVI27IZaw/ZETgqAUsujGtDT/Gu0ROPOfNo6gx9I3+zI/PLzVj1tarhBIVh9kUTkRgRiGpbOjZ+nIIDcjOQS5CJ+itezztQZT52fLQN23JqEDgsDvNmxesevKUnU/DBuhPIq1RlWDPw151l2E455h6W152Du/MWT8cYc4SA3kLmiVzz/gFklHsjckIi5k0eDquPHTlf78AH2wtg93EEq9y0RBF1oZ6Qt5em78DKT7NR6hOIhFkTMVMCRtUFSNm0AxuP2QG5yWzBFMSw3N4heD33UB9qX+r+Y9772jR6O57n/Q+Peeulp6d3anCX2RtRb1FTjLQv1uH5f3yI1yRooE7fyDEjWfnoYtX5h7Dq1Q/w/AopeKsNQeFIjA1hYJd6t/LT2PbfD/H8K+t0JUiGBBozri1DgPdjzKOJmmFB1NjhxnBrxfnY+L6cKx/gb28bgV0MDMO0idHMc4g6kl8oxiRE6KHCSk+mYdW/1XVeXaP++ZEEdtVZGTkc54/s3sBuZ+kv5XWfoChMOEd6ctQgZ99evCa/+ZVP8I4EdmUoyvg4JJjT7hD1d4G6F6PKEKtLceDzrfjHK+p8eXWzEdj1tmDMpHMQxXI7dTG2L3UgtmkQUT/ELI6o1/CGJcCvrpAXOjoec8eHsdDX1fwGINAxkkWAFdNmnYu4XjJcNVGTvH0R6BgmzNuCEUnnYtrQ9g/Z0r8wjyZqjk/oaFy2YAqS40MRauY3lhArxkyIx+KF0+vm/SeijiJzvk7BlZfHI3FEEAJl2DFvtS0iDInnT8Q130hEZF8NZHhYXve1WBA6OFBPSxLo2wvL896Bqsw2A1fNkSGkLcaQpX4WhA+LwvS507F4+nA2ahM5yLzn82Zg/tQIRIYYZXafAGP4xHnfTMa80X3zZhfq4di+1HHYpkFE/VDHDMv8eRpyL3xerw/6/WL4T47W621VsTsLZ3+6Sq9HbLgLljlxer0jsPt4/8Nj3v/wmPc/POb9D4859RdM69SfML33PzzmRH0fz/P+h8e8/+Ex7394zPsfHvPW6+xhmTskuFt9yoas6F+bjzqQlxeiT/0SPpHB5ob2YyLsf3jM+x8e8/6Hx7z/4TGn/oJpnfoTpvf+h8ecqO/jed7/8Jj3Pzzm/Q+Pef/DY956vWLOXZ+hVt1jF95e5pb28/LzQeifr+jQwC4RERERERERERERERERUW/VIT13HWrOlKJyXzbQ3rf09oLfpGh4h3T8JEC8w6D/4THvf3jM+x8e8/6Hx5z6C6Z16k+Y3vsfHnOivo/nef/DY97/8Jj3Pzzm/Q+Peev1ip67Dt6DA2G5MA6Wi85p3zInrlMCu0REREREREREREREREREvVWHBneJiIiIiIiIiIiIiIiIiKhz9LvgrpeXl16o/+Ax7394zPsfHvP+h8ec+gumdepPmN77Hx5zor6P53n/w2Pe//CY9z885v0Pj3nP06Fz7hIRERERERERERERERER9Ve9as5dIiIiIiIiIiIiIiIiIiLqHAzuEhERERERERERERERERH1AgzuEhERERERERERERERERH1AgzuEhERERERERHR/2/v3mLsKu+78T8znrEZDsYYA8YcYmwcB0iA/J0E6rQG5KSQdl5ykEIVRW//UdSLUvUmtVT9bypV6rVFpV7Qiyhq8ypEbyLlCAoksQAnHJLiAiaEEGPjgfqAMWAbGzC28X9+a9YyazZ7z+zZM+PZz8znI23N2muv2XNYe631rOf7HAAAgAwIdwEAAAAAAAAyINwFAAAAAAAAyIBwFwAAAAAAACADwl0AAAAAAACADAh3AQAAAAAAADIg3AUAAAAAAADIgHAXAAAAAAAAIAPCXQAAAAAAAIAMCHcBAAAAAAAAMiDcBQAAAAAAAMiAcBcAAAAAAAAgA8JdAAAAAAAAgAwIdwEAAAAAAAAyINwFAAAAAAAAyEDPzp07T5bLAAAAAAAAAEzC4OBguTRiw4YN5dL4Nm7cWC6NGBgYSH19fam3d6TPbs/JYcUSAAAAAAAAAB0bGhqa1nDXsMwAAAAAAAAAGRDuAgAAAAAAAGRAuAsAAAAAAACQAeEuAAAAAAAAQAaEuwAAAAAAAAAZEO4CAAAAAAAAZEC4CwAAAAAAAJAB4S4AAAAAAABABoS7AAAAAAAAABkQ7gIAAAAAAABkQLgLAAAAAAAAkAHhLgAAAAAAAEAGhLsAAAAAAAAAGRDuAgAAAAAAAGRAuAsAAAAAAACQAeEuAAAAAAAAQAaEuwAAAAAAAAAZEO4CAAAAAAAAZEC4CwAAAAAAAJAB4S4AAAAAAABABnpODiuXJ+29A2+nY1v3DC9M8i17e1L/tRen3kUD5QoAAAAAAACA7jY0NJQGBwfLZyM2bNhQLo1v48aN5dKIgYGB1NfXl3p7R/rsTlm4++Zdm9OBf7wvpePvlWsmp6d/Xlr0r7ens/9ubbkGAAAAAAAAoHtNd7g7JcMyn9h1MB34h59OWbAbTh47kd74+x+l9/YfKdcAAAAAAAAAzF1T0nP36OYdad9NdxfLi+66Pc2/flmx3Kl3n9qdDnzjJ8XyhQ/fmRasW1Esz6Tn/vhyeujXW8tno938p9emqz58WflstOr7xtrmkd/8Pm199sXyWSTwC9KXBtemheecWa5hprWzH8nfRI7ziWx76M230g/ufTStWrEsffqGq8u1zcX54LnnX0q3rl+TLrvkgnItp0M7x/m9D/w2vbzr1fJZSucvXpg+/7kb04IF/eUaAGAmxXX6gU1b0tKLFqfBWz9Vrn1fVS67Yc1q5XqALhb3Z7/Z8nzb9WPjnf/Ji3q4uWG8/dx4HlCOA3KSRc/d+hy7EewuuHnlpB6jwuHJzt87hSJ0/eqXb0l3fv0vTz3i4hMXoQhkGkUI0Cr8qcQ223bsHvW+EQB974ebRwUIzJx29iOzx0SO87G2jQJoowhtxzquo5Aa5wNOv/GO86NHj6Xv/ehX6a23j6avf/XPT+3vM4c/Az/+2ePF6wDAzHvpf15Nx46fSPtfP1SUrToV3xvlA9d4gDxM1fmfmacebu6JANdxCzAxUxPuzmHRSujaa64oApnqIlSFAHtfeb0IeiIAaiZCnv2vHUzr1103qhXiJ65flRYuPCs9/bv3e/Ny+rW7H5n9mh3nrcS20eP2md/v/EBlYNxojnVcx/e8/fbR8hmnQ7vH+Y6hvenQoSPpTz75kVG9dNet/WgR+D7x1LZyDQAwU+K6vmvPa2nl8ouL57HcqSiXxTUegO43led/Zo56uLkr6sI2P/q78llrUX/+ta98Rq9dgGHC3Slw+aUXpHTyZDp4aGR+4Kjkj4qAO764Ll1y8fnFumYOH3knpZ6edO7Cs8o1IyI4iO+L92gMhzh92t2PzA2Nx/lYzlt09sjx++7o4zdC37hJadZ7N0LjCI+XXnRe6uubV65lurV7nMeNw9/89W0fGCo7biyWLF6Y3jhwuFwDAMyUffsPpLfeeiddtfqy4vq8/cU95SsAzGbO/7ODeri5KUL86OgUdWXNRsEDoDnh7jRYtXJZ0YpovDlBzj7rjKZhUdXiMIb7NI/jzGl3P0KjCPqK43f+6OP3skuWtOyVHy0U43uuvfqKcg2nw2SP8zhfx80nADDzYkjOM888I124ZFFaecXFbQ/NGZWJ3/z2/ek/vvvL9OTW7enub92Xtj77Ynpt+Pu/9Z2fF89jeo4YJjJ6FDU2wK16GsXrsV28T/3nVu8fr9fVt43Hd77/YFGpGeviZ8aj/vOq92k6/cfwunitWSNCgNmu0/M/3UU93Ny1etWlLUfBq4vjOspJjWWhqozUrPwEMFsJd6dAFCLrPXCjMNmOuGgtOf/ctGnz06MKnVVLtRjuk5nT7n5kbmg8zluJAmYUKj929fIPNM6YP7+/GNY3eu/WC6KxfayL75k/v69cy+kw2eM8WojHcM1RgQAAzJy4n4pRUKKnTzUSUhhvaM4ohz2waUu6avXlRYXyx69dWcyrH1NynL944am59j99w9Xpuo9eUfQMi+t/XdVjLF6P8lyo/9wYsSmm5yhGdikrGuNrbLNqxbJTldixzSOPP1tM2xM/M352+MVDTxZf4/5x6UWLm/ZIi3XxWuMoIwCzXafnf7qPeri5rdNpr6J+LRrQffrGa4ryUzyi88SPf/a4gBeY1YS7kxQXkGjVXb8pn4jBWz+VblizumilXbUuil5/WqpB92h1nMecIPVjNx6/2fJ8+uqXb2k5/0dVKVdvjRg9eaNH74oPLS2ek4fYf4/91x9SX3+fIaMAYIZFJf7xY8dHptIYFmW2GJpzrB4gVbAblYER3o4nKp2jZ1jjKCzxvOoxFiO3RIXi62+8Wb46ErwOnDF/VDAc03ccq/2+lQiZq4A2QooIi+s90KJBWeM0H1VDQY3NgLmok/M/0H3i2I16t+eef2lUOWcscYzHsR5lp3o9XBUU7xjaW64BmH2EuxPQLMh56Ndbi0n+26kMaBQXoBgmIi5CVYvweMR8nfHe9Z59wOkxkeM85gWJILc6duMRPS2+98PNxTB7rUSvjujtGYXMKLDuf+1g0aPXMOz5iPN3tAKN/Rj7XGMcAJhZEaBGY7l6r58IO+Na3djTNux95Y1TwW6rRnmNmoWt8TWeV6O2VL3GImyI8kL1evQIjgC4GA1mWLwePXUbR4VZfN455VJz0Rgw/s7qfUIsaygIzFUTPf8D3Svm3o3jORrSt9M4IxrLRYjb2MCtauRRb2wHMNsIdyegHuRE0NPfN6/oedtuZUCjavjl29avGRXqRIAUw4BpZQin32SP86K14OrLi2Ghqkq/RtU2//30C8VcuzE8e9VDg+5XD3ZvHT5/23cAMLOqALUakrMSz2OEjXoQWvnDtpeLcHWilX6Nw31WX+ujeETvsaqXbvX6FR9aOir0jTAiKh0n2kCsMTyORyzHuvrfDjAXdHL+B7pXHMfR+aHqENGu6JRR76QRj+hMEaNjAsxWwt0ORdATQ6u225KolRiyK4buahQttos5md4V7sJM6fQ4H6/HRYjeHVGhGD2FoycveYjKg+/+4OHi/HzHF9cJdgGgC0S4GWWqmEajXqkXo7HE+ioIrYtGfNGAb9v2XW0P/ReqniARzoZmIW01fHOECvXXq9A3KisjjOh0GOV6eByPWG4c3hlgLujk/A90t6pDREx7dvjw2+XasUW5rj6qXvWIsh7AbCXcnYRq/P5fPPRkuWbiWgW4UQnQKvgFTp9OjvN2eoBEBV/MJRLhsYAwDxHs/uDeR4tz81e+dNOEe9oAANMj7p2iPNWqUq8+121dfM+qlZekTZufbjniSjPRMC+m1YhpdA4eOvKBhnpV79oIjutz4Vahb4zeEmKbTsTvHSO/xFy/ESAbBQaYqzo9/wPdLTpEhBj1cixRbx51NIZfBuYi4e4kRMX+DWtWFy29O5kfN+YRiAvQ/Zu2jGpJGHN1xntW8zYBM2eix3mx3fMvFcHteOFfDMGuFWEe6sHu5z93o3MzAHSJKHvVA9RG9V60zbS6JxtrJKXqPWMIwP7+vlHzPFaiJ+3x4yeKYUGrELcKfaNc0cmQzHXx98bfHr3VOu0BDJCzyZ7/ge5V1cWNJ8pWUX8e9XBxTqhE/V304o86doDZat4/DyuXO3Zi5xvpyH8+USyf9bVPpL7li4vlTk31+02F/a8dKoZziWFa65X6F5x/bnpl34HipvrsswaK53HhuO/nv01PPLmtmDc3bup3vvRK8Twesf2Hr7wk9fXNS9d85EPpxaFX0sOPPHPq9UOH305/9cV16dJlS8qfwkxodz8ye0zkOI9tX9ixu/hsVJ+JePxx+6700auWF8FtJSoFo2AZx3R871iisu/Fob1pxfKl6dyFZ5VrmS7tHufR2nvbC7vS4SPvpCef2X7q9cbtAIDT61ePPZveGS5rRQVgs8ZXcc914OCRotLvgiXnpjMWzB9VLovXo9fX1uFywI6de9OVVywr1i08+8zieQwJGNf6qgxYf89XXj1QNOiL+XQb9fT0pOeHy4UR4la9T8Lw6qKsd93HVowqF7YqL7Yqn0ZPlRde3FOEy63+doCctbrnjse77x4fvm/bN6Hzv/vr7qcebu5pVc4JUR6KfR6N7arXm5WX4msc4w9s2nKq3LZr9/70F5/9ZFE/BzBTDh48mO65557y2Yi1a9eWS+N77LHHyqUR/f39qbe3t7jXDD0nhxVLk3D0oe1p3y3/Xixf+ODfpgU3ryyWOzXV7wcAAABTJXqHbHr4qbT+putnbEjkex/4bfHVSDAAAADdZWhoKA0ODpbPRmzYsKFcGt/GjRvLpREDAwOpr6+vCHiDYZkBAABgAmK+25mc6zbC5Zj3t3G+XwAAAGY/4S4AAAC0KabR2P/6oRmd6zbmkIy5JJvN9wsAAMDsJtwFAACAcURv2W9++/70ne8/WMy1G/O/nW4xFPPd37ovbduxO922fo25dgEAAOagqZlzd/OOtO+mu4vlRXfdnuZfv6xY7tS7T+1OB77xk2L5wofvTAvWrSiWAQAAAAAAALrVdM+5OyXh7ok9h9LuZf9SPptCPT1p2Z5/SvMuOqdcAQAAAAAAANCdpjvcnZJhmeddvLDosZt6e8o1k9fTPy+d929fEOwCAAAAAAAADJuSnruV915/Kx17Zm9Kk33L3p7Uf92y1HvuGeUKAAAAAAAAgO6WxbDMAAAAAAAAAHNdFsMyAwAAAAAAADC9hLsAAAAAAAAAGRDuAgAAAAAAAGRAuAsAAAAAAACQAeEuAAAAAAAAQAaEuwAAAAAAAAAZEO4CAAAAAAAAZEC4CwAAAAAAAJAB4S4AAAAAAABABoS7AAAAAAAAABkQ7gIAAAAAAABkQLgLAAAAAAAAkAHhLgAAAAAAAEAGhLsAAAAAAAAAGRDuAgAAAAAAAGRAuAsAAAAAAACQAeEuAAAAAAAAQAaEuwAAAAAAAAAZEO4CAAAAAAAAZKBn586dJ8tlAAAAAAAAACZhcHCwXBqxYcOGcml8GzduLJdGDAwMpL6+vtTbO9Jnt+fksGIJAAAAAAAAgI4NDQ1Na7hrWGYAAAAAAACADAh3AQAAAAAAADIg3AUAAAAAAADIgHAXAAAAAAAAIAPCXQAAAAAAAIAMCHcBAAAAAAAAMiDcBQAAAAAAAMiAcBcAAAAAAAAgA8JdAAAAAAAAgAwIdwEAAAAAAAAyINwFAAAAAAAAyIBwFwAAAAAAACADwl0AAAAAAACADAh3AQAAAAAAADIg3AUAAAAAAADIgHAXAAAAAAAAIAPCXQAAAAAAAIAMCHcBAAAAAAAAMiDcBQAAAAAAAMhAz8lh5fKkvXfg7XRs657hhUm+ZW9P6r/24tS7aKBcAQAAAAAAANDdhoaG0uDgYPlsxIYNG8ql8W3cuLFcGjEwMJD6+vpSb+9In90pC3ffvGtzOvCP96V0/L1yzeT09M9Li/719nT2360t1wAAAAAAAAB0r+kOd6dkWOYTuw6mA//w0ykLdsPJYyfSG3//o/Te/iPlGgAAAAAAAIC5a0p67h7dvCPtu+nuYnnRXben+dcvK5Y79e5Tu9OBb/ykWL7w4TvTgnUriuWZ9NwfX04P/Xpr+Wy0m//02nTVhy8rn41Wfd9Y2zzym9+nrc++WD5L6fzFC9PnP3djWrCgv1zDTHl516vpgU1b0rHjJ8o1Y+9v8jaR43wi2x568630g3sfTatWLEufvuHqcm1zcT547vmX0q3r16TLLrmgXMvp0M75+t4HflucFyrO1wDQXary+9KLFqfBWz9Vrn1fVS67Yc1qZXqALhb3Z7/Z8nz60uDatPCcM8u1rY13/icv7dyfk7/x9nPjeUA5DshJFj1363PsRrC74OaVk3qMCocnO3/vFBoYWJC++uVb0p1f/8tTj7j4xEUoAplGEQK0Cn/C0aPH0vd+9Ku0a89r6etf/fNT73nJxeen//N/N40KEDj9ogAR+/DTN15zat/EDcIjjz9bvMbsNJHjfKxtm31GIrQd67iOQuq2HbvLZ5xO7Z6v33r76Kjz9ZnDn4Ef/+zx4nUAYOa99D+vFg0z979+qChbdSq+N8oHrvEAeZiq8z8zb7z7c2afCHAdtwATMzXh7hwWrYSuveaKIpCpLkJVCLD3ldeLoCcCoGaeeGpbERTctn7NqF5f0bPvqtWXp8f+6w8qE2ZI/N+f+f3OoudkvSVY8Xx43yh0zC3NjvNWYtv4nMTnp/H4jRvNp3/3fi/9RvE9bw+fEzh92j1f7xjamw4dOpL+5JMfGXW+Xrf2o8V5PM7nAMDMiut6NJxdufzi4nksdyrKZXGNB6D7TeX5n5nT7v05s0/UhW1+9Hfls9ai9+7XvvIZvXYBhgl3p8Dll16Q0smT6eChkfmBq9D2ji+uK3rhNlMVPJcsXth0eJl4z7feeift23+gXMPpFOHNHV/4s6ZD+TTub+aGiez38xadXZwDjr47OtyN0DduUpr13o3QOMLjpRedl/r65pVrmW7tnK9D3Dj8zV/f9oGhsuP8HefxNw4cLtcAADMl7p3iHuqq1ZcV1+ftL+4pXwFgNnP+nx3avT9ndokQ/xPXryrqyoyUCNA+4e40WLVyWdGKqJ05QcjP4SPvpOO1OXihUQR9MVzvgvmj52G97JIlaeHCs5r23o0WivE91159RbmG02Gy5+toqKNXDwB0hxiS88wzz0gXLlmUVl5xcdtDc0Zl4je/fX/6j+/+Mj25dXu6+1v3pa3PvpheG/7+b33n58XzmJ4jhomMHkVx/a+rehrF67FdvE/951bvH6/X1beNx3e+/2BRqRnr4mfGo/7zqvdpOv3H8Lp4rVkjQoDZrtPzP91FferctXrVpS1HwauL4zrKSY1loaqM1Kz8BDBbCXenQBQiU09POnfhWcXzKEyOJ3qGRiu0VgXOxveke0QL0Ajo2tnPzB7tHpNRwIxC5ceuXj5q+N4wf35/Maxv9N6tF0Rj+1gX3zN/fl+5ltNhssdxtBCP4ZqjAgEAmDlxTxWjoMQ9VnWvFcYbmjPKYQ9s2lJMvRIVyh+/dmUxr35MyXH+4oWn5tqPqXOu++gVTUdXqnqMxetRngv1nxuNQ2N6jmJkl7KiMb7GNqtWLDtViR3bPPL4s2n9uuuKnxk/O/zioSeLr1HpufSixU17pMW6eK1xlBGA2a7T8z/dRz3b3NbptFdRvxYN6D594zVF+Ske0Xnixz97XMALzGrC3UmKC0i06q7flLcrhpyIi839m7aMuthEC+54z1ZDNjNzquCuumlgbmh1nMecINHDomoZGI+Yj/mrX76l5fwfVaVcvTVi9OSNBgMrPrS0eE4eYv/F3Oh9/X2nKhAAgJkRlfjHjx0fmUpjWJTZ4n5qrB4gVbAblYER3o4nKp2jZ1jjKCzxvOoxFiO3xD3e62+8Wb46ErwOnDF/VDAc03ccq/2+lQiZq4A27jciLK43CI4GZY3TfFQNBTU2A+aiTs7/QPeJYzfq3Z57/qVR5ZyxxDEex3qUner1cFVQvGNob7kGYPYR7k5AsyDnoV9vLSb5b6cyoFHcrMe8rnHzXw33FY8IkWK+gbgQ0T0i4Iv9HQWGTvY3eZjIcR7HaQS5VcvAeERPi+/9cHPRSKOV6NURvT2jkBkF1v2vHSx69GowkI+4gYhWoLEfY59riAMAM6vZ6DoRdsa1urGnbdj7yhungt1WjfIaNQtb42s8r0ZtiUc0+oqwIcoL1evRIzgC4GI0mGHxevTUbRwVZvF555RLzUVjwPg7q/cJsayhIDBXTfT8D3Sv6AgVx3M0pG+ncUY0losQt7GBW9XIo97YDmC2Ee5OQD3IiaCnv29eGrz1U21XBrQS71EFQ1Ur7RvWrBYWdJF6sBv7i9lrssd50Vpw9eXFsFBVpV+japv/fvqFYq7dJeefe+rYp/vVg91b16+x7wBghlUBauPoOvE8RtioB6GVP2x7uQhXJ1rpV43WUQ33WX2tj+IRvceqXrrV61d8aOmo0DfCiE5GamoMj+MRy7Gu/rcDzAWdnP+B7hXHcXR+qDpEtCvqbOudNOIRnSneOHC43AJg9hHudiiCnhhatd2WRO2Inn5x4Yn5nSYbGDN1Yr9EISH2i2B3bun0OB+vx0WI3h1RoRg9haMnL3mIyoPv/uDhomXoHV9cJ9gFgC4Q4WaUqWIEpHqlXozGEuurILQuGvFF2X7b9l1tD/0Xqp4gEc6GZiFtNXxzhAr116vQNyorI4zodBjlengcj1huHN4ZYC7o5PwPdLeqQ0RMe3b48Nvl2rFFua7qOFV/qMcFZjPh7iRU4/f/4qEnyzWdiwqFmFMgLmCG/O0e1fzHzYbkZW7o5DhvpwdIVPDFXCIRHgsI8xDB7g/ufbQYSv8rX7ppwj1tAIDpEQFqlKdaVerV57qti+9ZtfKStGnz0y1HXGkmGubFtBoxus/BQ0c+0FCv6l0bwXF9Ltwq9I3RW0Js04n4vWPkl5jrNwJko8AAc1Wn53+gu0WHiPDEU9uKr60smN9f1NEYfhmYi4S7kxAV+zF8chHMDt/YdyoqEqJCIeYU+OzNHy/XMtPqwa6e1HPXRI/zqqFGBLfjhX/RYEArwjzUg93Pf+5Gwx4CQJeIslc9QG1U70XbTMztFtf3+zdtGdW7K0ZiiQZ+MZdbo+o9Y3Sf/v6+UfM8VqIn7fHjJ4phQasQtwp9o1zRyZDMdfH3xt8e9yud9gAGyNlkz/9A96rq4sYTZasIgqMeLs4Jlai/i178UbcLMFvN++dh5XLHTux8Ix35zyeK5bO+9onUt3xxsdypqX6/qbD/tUPFcC4R8tUr9S84/9z0yr4DxU312WcNFM/jwnHfz3+bnnhyW3rm9zuLm/qdL71SPI9HbP/hKy8pvr8KDML/uu2GdNZwwZPuEPs09k9931WPp5/ZkS5Ycm46d+FZ5dbMBhM5zmPbF3bsLo7x+mfjj9t3pY9etXxUT++oFIyC5aXLlhTfO5b4zL04tDetWL7U5+s0aPd8Ha29t72wKx0+8k568pntp15v3A4AOL1+9diz6Z3hslZUADZrfNXXNy8dOHikqPSL8vsZC+aPKpfF69Hra+twOWDHzr3pyiuWFesWnn1m8TyGBIxrfVUGrL/nK68eKBr0xXy6jXp6etLzw+XCCHGr3idheHVR1rvuYytGlQtblRdblU+jp8oLL+4pwuVWfztAzlrdc8fj3XePD9+37ZvQ+d/9dfebSH0qs0Orck6I8lDs82hsV73erLwUX+MYf2DTllPltl2796e/+Owni/o5gJly8ODBdM8995TPRqxdu7ZcGt9jjz1WLo3o7+9Pvb29xb1m6Dk5rFiahKMPbU/7bvn3YvnCB/82Lbh5ZbHcqal+PwAAAJgq0Ttk08NPpfU3XT9jQyLf+8Bvi69GggEAAOguQ0NDaXBwsHw2YsOGDeXS+DZu3FgujRgYGEh9fX1FwBsMywwAAAATEPPdzuRctxEux7y/jfP9AgAAMPsJdwEAAKBNMY3G/tcPzehctzGHZMwl2Wy+XwAAAGY34S4AAACMI3rLfvPb96fvfP/BYq7dmP/tdIuhmO/+1n1p247d6bb1a8y1CwAAMAdNzZy7m3ekfTfdXSwvuuv2NP/6ZcVyp959anc68I2fFMsXPnxnWrBuRbEMAAAAAAAA0K2me87dKQl3T+w5lHYv+5fy2RTq6UnL9vxTmnfROeUKAAAAAAAAgO403eHulAzLPO/ihUWP3dTbU66ZvJ7+eem8f/uCYBcAAAAAAABg2JT03K289/pb6dgze1Oa7Fv29qT+65al3nPPKFcAAAAAAAAAdLcshmUGAAAAAAAAmOuyGJYZAAAAAAAAgOkl3AUAAAAAAADIgHAXAAAAAAAAIAPCXQAAAAAAAIAMCHcBAAAAAAAAMiDcBQAAAAAAAMiAcBcAAAAAAAAgA8JdAAAAAAAAgAwIdwEAAAAAAAAyINwFAAAAAAAAyIBwFwAAAAAAACADwl0AAAAAAACADAh3AQAAAAAAADIg3AUAAAAAAADIgHAXAAAAAAAAIAPCXQAAAAAAAIAMCHcBAAAAAAAAMiDcBQAAAAAAAMiAcBcAAAAAAAAgAz07d+48WS4DAAAAAAAAMAmDg4Pl0ogNGzaUS+PbuHFjuTRiYGAg9fX1pd7ekT67PSeHFUsAAAAAAAAAdGxoaGhaw13DMgMAAAAAAABkQLgLAAAAAAAAkAHhLgAAAAAAAEAGhLsAAAAAAAAAGRDuAgAAAAAAAGRAuAsAAAAAAACQAeEuAAAAAAAAQAaEuwAAAAAAAAAZEO4CAAAAAAAAZEC4CwAAAAAAAJAB4S4AAAAAAABABoS7AAAAAAAAABkQ7gIAAAAAAABkQLgLAAAAAAAAkAHhLgAAAAAAAEAGhLsAAAAAAAAAGRDuAgAAAAAAAGRAuAsAAAAAAACQAeEuAAAAAAAAQAZ6Tg4rlyftvQNvp2Nb9wwvTPIte3tS/7UXp95FA+UKAAAAAAAAgO42NDSUBgcHy2cjNmzYUC6Nb+PGjeXSiIGBgdTX15d6e0f67E5ZuPvmXZvTgX+8L6Xj75VrJqenf15a9K+3p7P/bm25BgAAAAAAAKB7TXe4OyXDMp/YdTAd+IefTlmwG04eO5He+Psfpff2HynXAAAAAAAAAMxdU9Jz9+jmHWnfTXcXy4vuuj3Nv35Zsdypd5/anQ584yfF8oUP35kWrFtRLM+k5/74cnro11vLZ6Pd/KfXpqs+fFn5bMShN99KP7j30fT220fLNc23qxw9eiz9+GePF8uf/9yNacGC/mKZ7lDt/7H2IfmbyHE+kW2r88GqFcvSp2+4ulzb3CO/+X167vmX0q3r16TLLrmgXMvp0M5xfu8Dv00v73q1fJbS+YsXOmcDQBeJ6/QDm7akpRctToO3fqpc+76qXHbDmtXK9QBdLO7PfrPl+fSlwbVp4TlnlmtbG+/8T17Uw80N4+3nxvOAchyQkyx67tbn2I1gd8HNKyf1GBUOT3b+3ik0MLAgffXLt6Q7v/6Xpx5x8YmLUAQylShQfu+Hm4sgp9ouvi8uRhEMNIrt/8//3ZRee/1QuYZuEvusVYjH7NPucR7G2jYKoI0itK0Hg42ikLptx+7yGafTeMd5NMD53o9+ld56+2j6+lf//NT+PnP4MxANc+J1AGDmvfQ/r6Zjx0+k/cP3VlG26lR8b5QPXOMB8jBV539mnnq4uSfqzB23ABMzNeHuHBathK695ooikImLUNz8P/Zff0hXrb58VA+9aF20ft11af9rB0eFOxEARaElWhbG+9A9qjBn7yuvF4FdBHnMTY3H+Vhi2+hx+8zvd36gMjBuNJ/+3Yvlsw+K76n39mf6tXuc7xjamw4dOpL+5JMfGdVLd93ajxaB7xNPbSvXAAAzJa7ru/a8llYuv7h4HsudinJZXOMB6H5Tef5n5qiHm7uiLmzzo78rn7UW9etf+8pn9NoFGCbcnQKXX3pBSidPpoOHjqR9+w+kt956Z2RdgwuXLEpnnnlG0ZowREgULZMiNDJkTPeJsCYqdO744rp0ycXnl2uZq+rH+XjOW3R28dk5+u7ocDdC37hJadZ7N84HER4vvei81Nc3r1zLdGv3OI8bh7/569s+MFR23FgsWbwwvXHgcLkGAJgp1b3YVasvK67P21/cU74CwGzm/D87qIebmyLE/8T1q4q6smaj4AHQnHD3NIreXjGEZxUCLJjfX8wZMN4cnMyMVSuXFa3B2pnbBeriGI9jPY7xussuWZIWLjyrae/daKEY33Pt1Xrwn06TPc6jZbFePQDQHaIRbTSmjUa1K6+4uO2hOaMy8Zvfvj/9x3d/mZ7cuj3d/a370tZnXyymzfnWd35ePI/pOWLEpehRFNf/uqqnUbwe28X71H9u9f7xel1923h85/sPFpWasS5+ZjzqP696n6bTfwyvi9eaNSIEmO06Pf/TXdTDzV2rV13achS8ujiuo5zUWBaqykjNyk8As5VwdwoUPXF7etK5C88q17Qnwl4Flu4VNwVQafc4jwJmFCo/dvXyUcP3hvnz+4thfaP3br0gGtvHuvie+fP7yrWcDpM9zqOFeAzXHBUIAMDMicq+GAUlevpEGazq8TPe0JxRDntg05ZiWp2oUP74tSuLefVjdKXzFy88Ndd+NMi97qNXFD3D4vpfV/UYi9ejPBfqP/fwkXeK6TmKkV3Kisb4GtusWrHs1D1hbPPI488W0/nEz4yfHX7x0JPF16j0jOl8mvVIi3XxWuMoIwCzXafnf7qPeri5rdNpr6J+LRrQffrGa4ryUzyi88SPf/a4gBeY1YS7kxQXkGjVXb8pB2aXVsd5zAkSPSyqloHxiKHWv/rlW1rO/1FVytVbI0ZP3ujRu+JDS4vn5CH2X8yx3tffZ8goAJhhUYl//NjxU9PjRJkthuYcqwdIFexGZWA7oylFpXP0DGschSWeVz3GYuSWqFB8/Y03y1dHgteBM+aPCoZj+o5jtd+3EiFzFdBGSBFhcb0HWjQoa5zmo2ooqLEZMBd1cv4Huk8cu1Hv9tzzL40q54wljvE41qPsVK+Hq4LiHUN7yzUAs49wdwKaBTkP/XprMcm/oZVhdpjIcR7zgkSQW7UMjEf0tPjeDzcXw+y1Er06ordnFDKjwLr/tYNFj97Gnr50r7iBiFagsR9jn2vcAwAzKwLUaCxX7/UTYWdcqxt72oa9r7xxKtht1SivUbOwNb7G82rUlqrXWIQNUV6oXo8ewREAF6PBDIvXo6du46gwi887p1xqLhoDxt9ZvU+IZQ0Fgblqoud/oHvF3LtxPEdD+nYaZ0RjuQhxGxu4VY086o3tAGYb4e4E1IOcCHr6++alwVs/1XZlAND9JnucF60FV19eDAtVVfo1qrb576dfKObaXXL+uad6aND96sHurevX2HcAMMOqALUakrMSz2OEjXoQWvnDtpeLcHWilX6Nw31WX+ujeETvsaqXbvX6FR9aOir0jTAiKh0n2kCsMTyORyzHuvrfDjAXdHL+B7pXHMfR+aHqENGu6JRR76QRj+hM8caBw+UWALOPcLdDEfTE0KrttiQKsV20Jjpv0dnlGqCbdXKch/F6XITo3REVitFTOHrykoeoPPjuDx4uzuV3fHGdYBcAukCEm1Gmimk06pV6MRpLrK+C0LpoxBcN+LZt39X20H+h6gkS4WxoFtJWwzdHqFB/vQp9o7IywohOh1Guh8fxiOXG4Z0B5oJOzv9Ad6s6RMS0Z4cPv12uHVuU6+qj6lWPKOsBzFbC3Umoxu//xUNPlmtG38g3cuMN+Wl2nI+nnR4gUcEXc4lEeCwgzEMEuz+499FiHr2vfOmmCfe0AQCmRwSoUZ5qValXBaGN4ntWrbwkbdr8dMsRV5qJhnkxrcZzf3w5HTx05AMN9aretREc1+fCre4VY/SWENt0In7vGPkl5vqN+06jwABzVafnf6C7RYeI8MRT24qvrSyY31/U0Rh+GZiLhLuTEBX7N6xZXbT0jhv7UA0fEZO/1+fcjMqCqDRw4w15aXacj6XYbvj4j+B2vPAv5vDVijAP9WD385+70bCHANAlouxVD1AbjdX4NsTcbnF9v3/TllG9u2IklmjgF3O5NareM4YA7O/vK543iga9x4+fKIYFrULcKvSNckUnQzLXxd8bf3v0Vuu0BzBAziZ7/ge6V1UXN54oW0UQHPVwcU6oRP1d9OKv180DzDbz/nlYudyxEzvfSEf+84li+ayvfSL1LV9cLHdqqt9vKux/7VAxnEsM01qv1L/g/HPTK/sOFDfVZ581UDw/d+FZ6coVy4oLyGP/9Vx64slt6Znf70x/euM1RZhTiZv6GN6z2uaVVw8Uw8Y8+cz24vnTz+xIFywZeT9Ov9h/9/38t6f2X1TO7HzpleJ5sb+G9/uHr7yk3JrZYCLHeWz7wo7dxWej+kzE44/bd6WPXrV81LEelYJRsLx02ZLie8cS54UXh/amFcuXOvZPg3aP82jtve2FXenwkXdOnaPrD+cDAJgZv3rs2fTOcFkrKgCbNb7q65uXDhw8UlT6xb3VGQvmjyqXxevR+HbrcDlgx8696corlhXrFp59ZvE8hgSMa31VBqy/Z9y/RYO+mE+3UU9PT3p+uFwYIW7V+yQMry7Ketd9bMWocmGr8mKr8mn0VHnhxT1FuNzqbwfIWat77ni8++7x4fu2fRM6/7u/7n7q4eaeVuWcEOWh2OfR2K56vVl5Kb7GMf7Api2nym27du9Pf/HZTxb1cwAz5eDBg+mee+4pn41Yu3ZtuTS+xx57rFwa0d/fn3p7e4t7zdBzclixNAlHH9qe9t3y78XyhQ/+bVpw88piuVNT/X4AAAAwVaJ3yKaHn0rrb7p+xkZmuveB3xZfjQQDAADQXYaGhtLg4GD5bMSGDRvKpfFt3LixXBoxMDCQ+vr6ioA3GJYZAAAAJiDmu53JKXciXI55fxvn+wUAAGD2E+4CAABAm2Iajf2vH5rRuW5jDsmYS7LZfL8AAADMbsJdAAAAGEf0lv3mt+9P3/n+g8VcuzH/2+kWQzHf/a370rYdu9Nt69eYaxcAAGAOmpo5dzfvSPtuurtYXnTX7Wn+9cuK5U69+9TudOAbPymWL3z4zrRg3YpiGQAAAAAAAKBbTfecu1MS7p7YcyjtXvYv5bMp1NOTlu35pzTvonPKFQAAAAAAAADdabrD3SkZlnnexQuLHrupt6dcM3k9/fPSef/2BcEuAAAAAAAAwLAp6blbee/1t9KxZ/amNNm37O1J/dctS73nnlGuAAAAAAAAAOhuWQzLDAAAAAAAADDXZTEsMwAAAAAAAADTS7gLAAAAAAAAkAHhLgAAAAAAAEAGhLsAAAAAAAAAGRDuAgAAAAAAAGRAuAsAAAAAAACQAeEuAAAAAAAAQAaEuwAAAAAAAAAZEO4CAAAAAAAAZEC4CwAAAAAAAJAB4S4AAAAAAABABoS7AAAAAAAAABkQ7gIAAAAAAABkQLgLAAAAAAAAkAHhLgAAAAAAAEAGhLsAAAAAAAAAGRDuAgAAAAAAAGRAuAsAAAAAAACQAeEuAAAAAAAAQAZ6du7cebJcBgAAAAAAAGASBgcHy6URGzZsKJfGt3HjxnJpxMDAQOrr60u9vSN9dntODiuWAAAAAAAAAOjY0NDQtIa7hmUGAAAAAAAAyIBwFwAAAAAAACADwl0AAAAAAACADAh3AQAAAAAAADIg3AUAAAAAAADIgHAXAAAAAAAAIAPCXQAAAAAAAIAMCHcBAAAAAAAAMiDcBQAAAAAAAMiAcBcAAAAAAAAgA8JdAAAAAAAAgAwIdwEAAAAAAAAyINwFAAAAAAAAyIBwFwAAAAAAACADwl0AAAAAAACADAh3AQAAAAAAADIg3AUAAAAAAADIgHAXAAAAAAAAIAPCXQAAAAAAAIAM9JwcVi5P2nsH3k7Htu4ZXpjkW/b2pP5rL069iwbKFQAAAAAAAADdbWhoKA0ODpbPRmzYsKFcGt/GjRvLpREDAwOpr68v9faO9NmdsnD3zbs2pwP/eF9Kx98r10xOT/+8tOhfb09n/93acg0AAAAAAABA95rucHdKhmU+setgOvAPP52yYDecPHYivfH3P0rv7T9SrgEAAAAAAACYu6ak5+7RzTvSvpvuLpYX3XV7mn/9smK5U+8+tTsd+MZPiuULH74zLVi3olieSc/98eX00K+3ls9Gu/lPr01Xffiy8tmIQ2++lX5w76Pp7bePlmuabxce+c3v09ZnXyyfpXT+4oXp85+7MS1Y0F+uYaa8vOvV9MCmLenY8RPlmtb7kfxN5DifyLbV+WDVimXp0zdcXa5tLs4Hzz3/Urp1/Zp02SUXlGs5Hap9OtYx7nwNAN2tKr8vvWhxGrz1U+Xa91XlshvWrFamnwWa3XfPVPns3gd+W3z+xnLtNVekj1293GcQYBzt3J+Tv/H2c7z+my3Ppy8Nrk0LzzlTOQ7IynT33J33z8OKpUk48eLr6ch/PlEsL/z/bkkLbl6Z+pYv7viR3jl+6v3O+n8/MbJuhu1/7VB65dUD6a++uC796Y3XpE9+/MPF4+yzBoqL0LvvHk+XXzoSxMSF56f3/6bY7nOf+USx3eorL02/fPip9D+796cPX3lJsd3Ro8eKC9Kbh99OX/nSTenGT36k2PbAwSNp0/C2Fyw5N5278KxiW06/2I8/f/C/07q1Hzu1H5deeF568FdPDx9IC9IF559bbslsMZHjfLxt42v1GTn67rHi87Rv3xtjHtdRSI3w8L333ktXrljm+D+NojKuCm2XX35R0+M7tolzeH2fO18DQHf53XNDac8rrxeNM1csX/qBgK8ql126bMmY5fkol/3ioSfThy67cPgGel65lm5S3Xdfvfry9KX/9elT5fEXh15Jjw6XqU93+Szu86vf4dqrr0gv7Xq1aNxZ/93iXqLdzyDAXNXO/TmzQ9St7XzplaJ+rVm5LV7ftee1IsiN11xDgZwcPHgw3XPPPeWzEWvXtj8N7WOPPVYujejv7y+C3Z6enuL5lAzLPJfFxSVa327bsbuoAIhHtCiKdfUWRNG6KFoZ7X/9UHERCk88tS299fbRdNv6NaMuXtGz76rhG9TH/usPRQDM6Rf/92d+v7PoOVnfj8Xz4X0T+zj2NXND43E+ltg2Pifx+Wk8fqOS8enfvd/rs1F8T73XAdMv9tH3fvSrtPeV14uWotFwo5k4b8f5u2otWonzdfQMGmu/AgCnR1zXowJw5fKLi+ex3Kkol8W9Gt0pesg+8vizRRm9cWSc6LEd5bNuvZ+OsuTXvvKZUfeZALR/f87sE3Vhmx/9XfmsNddQgPcJd6dA0ZPv5Ml08NCRogLh+LH3e/fVxQVoyeKFafuLe05VPMTzelBQie9/66130r79B8o1nE4Rtt/xhT9rOpRbfX8zd0xkv5+36OyiMjBaFNZF6Bs3Kc2Ga4vQOMLjpRedp3fIaVQ1srnji+vSJRefX679oDhvtzpfr7zi4iL41eADAGZW3DvFPdRVqy87dd/F7PTS/7yaFi48K33i+lXlmtGu++gV6dBwuX3H0N5yDQDdrt37c2aXCPHjeh51ZVWHKADGJ9yFCTp85J10vDYHLzR648DhdOZw4XTB/NHDyVx2yZKiEqpZL89ooRjfE0O4cfqsWrmsaPXZLLRt19lnnaHBBwB0gQj8zjzzjHThkkUTanwVlYnf/Pb96T+++8v05Nbt6e5v3VcMB/na8Pd/6zs/L57H1BkxTGT0KGrsDVr1NIrXY7t4n/rPrd4/Xq+rbxuP73z/waJSM9bFz4xH/edV79Os4jPWxWvNGhHONlVD6aK83TB8YyU+A1Hufv2NN8s1I8N8Vvux+v+2+p/Vt4nHVFY2x76OfVx/z+r3iq/Nfu5M/84Ap8NU3J+Tp9WrLm05Cl5ds2toqMpI1TWwWXkNYLYR7k6BqERIPT3FfD7Rsqyvv29kXYO4AEUFQ/Tqi5vQ2LZVhUP9Peku0QMgKgqiwoC5o91jMgqYUaj82NXLP1DZNH9+f/qTT36k6L1bL4jG9rEuvmf+/L5yLaeD4xgAZoe4p4pRUOIeq7rXCuMNzRzlsAc2bSmmXokK5Y9fuzLd+fW/LIb7PX/xwvT1r/558TyG/o3eoM1GV6p6DMfrUZ4L9Z8bjUNjeo5iZJeyorEKKGNO1qoSO7aJoYbXr7uu+Jnxs0PM/Rui0jOGG27WIznWxWuxzWwXo+PE/zLuq1uJz0CEv9Hosi5C+/i++P/GI/b7ps1Pn7onj/0SFcLx/tW+j9GcYr9Md1gan8X4favfLYYkjZ/7w/seLRorVOsbh5yeyd8ZYCq5P5/b1q39aHEtix7cExHXumjg9Okbrzl1rYwywI9/9vipayXAbCTcnaS4gMQNYnVTHo8b1qwu1tVvpOJm8Qf3PjpqyOYYciIuNvdv2jLqYhOtdeP7Ww0BysyJfRo33VWlEXND43FeiTlBoodFvYV8zMf81S/f0nL+j6pSrt4aMXryRoOBFR9aWjwHAGBiIiit32tFmS3up8bqAVIFu1EZ2DhvazNR6Rw9gxtHYYnnVY/hGLkl7vHqPUYjeB04Y/6oYDgCymNNpvOJsLEKaON+I8LieoPgCPkap/mI5VgXrzG2COzrQzk3hvExjHMM5xwNMqv7vdgfsV/G6000WTEsZVRsV+LeIO4R+vv6Rt1bNDYymMnfGQCmSpTdot7tuedfGlXOGUtc4+JaV1z3atfKKig2PQMwmwl3J6BZkPPQr7cWLWrrlQFxMalaylbbxffF9zferMe8rnHzXw33FY8IkRpv7Jh5EfDF/o79107lD3lq9zgPcZxGkFu1DIxH9LT43g83F400WqnPARYF1v2vHRxVGQMAwMQ0G10nws4oczX2tA17X3njVLDbqlFeo2Zha3yN57E+Xo9HNASNsDAqHKvXo0dwBMDVCE/xevTUbRwVZvF555RLzVWBX32kqFjWULA9ce89Vpk7QvnGz1GIED7C+AjlQ+MQyI1DcXei+N0apnUJY/VQDu3+zgDQ7aIBVlzT6iNUjKUazaOxgVvVyK/e2A5gthHuTkA9yImgp79vXhHiNqsMiADwb/76tmLb2Ca2bWwlXInXq2CoCn6j969eu92jHuzG/mL2mshx3kx8RqIRRwwL2KqCp9rmv59+oZhrd8n555469gEAmJgqQG0cXSeet5oy5w/bXi7C1YlW+jUO91x9rdaHCNWqnpXV61d8aOmo0DfC6E5GamoMj+MRy7FurNByNql6RzcOuVwX/5eo7B0vGG2mPtdy9YgwNxqBHjx0pNimfg8fj5meI7Kd3xkAul2UZaLzQ9Uhol1RZ1u/BsYjOlOMVVYAyJ1wt0MR9DTOddNMVDTEHD5RqXDb+jVj3nBHT7+48MT8Tu0GSUy/2C9RSIj9ItidW9o9zhuN1+MiRO+OqFCMCpfoyUu+Yh49c6QDwMyJcDPKVDECUr1Srxo9qQpC66IRX5Ttt23f1fbQf6HqCVLNe9sspK2Gb45Quf56FfpGZWWE0Z0Oo1wPj+MRy7FurqgC7ghvW5XR4/8SFcPtlMsb1edarj+i8Xa3NsjM8XcGgGaqDhEx7dnhw2+Xa8cW5brGa2A81OMCs5lwdxKq8ft/8dCT5ZoPil55MfdTDNU6VkveqFCIOQXiAmbI3+5RzX/cbEhe5oZ2jvNG7fQAifNBzCUS4bEKl+4Xla/1IRjrOu15AwBMjbgWR3mqVaVefX7SuvieVSsvKRrjTmRI3WiYF9NqxOg+0SuysaFeFT5GcFyfC7cKfWP0lhDbdCJ+7xj5Jeb6jQB5Lo4CE2F2hLdPPLWtXDNa/G86Gao6wuAiNM5oKOMcf2cAGEs1J36r63ylGs3D8MvAXCTcnYSoyI/hk4tgdvjGvlHVEzfmcRrrZrvq3Rs3n5+9+ePlWmZaPdjVk3ruGu84b1Q11IjgdrywLxoMaEWYhzgHRID7g3sfHVX5G+eJqLTV+xoAZkaUveoBaqN6L9pmYtqcqBS8f9OWUb1AxwrMqveM0X36+/s+MNdpiPDx+PETxQhOVYhbhb5Rlphsw7D4e+Nvj/uVTnsA5yzur+M+O/7+KI/VxXDE8ZmIYR3HGjmrmQiD4/MQjbQr8bn43o9+NSXz6k6HHH9nABhLVRc3nrjORxAc9XBRLqpE/V2M4tJYRgCYTYS7kxQV/nFjGTf29eCnCgbHG2I5brQiLAjjDdvM6VXNy9Bs3oZvfvv+UYUGZrdWx3kM8xfD/dU/G1GZFMPH6OmdhzhXV/uuGrqxfszH/qxEEB+hfX2fxzCP//uv1s+53jIA0C2ih2Y9QG1UBaqNlX6VeD3uwyLI/fHPHj8V8FaBWXXdr5cBq/cM8bXZPVxM1xC/V2OIG6Fvf9+8SQey8XMHhn+/eLT622e7KKN/9cu3pG07dp8qm8Uj9mWn5bPYl3d84c+K5er9Yi7b+CzM9Ly6reT4OwM0M5H7c2a/qi5uPLHdrcNluQc2bTn1WXnk8WeLOhx1c8Bs1nNyWLncsaMPbU/7bvn3YvnCB/82Lbh5ZbHcqal+PwAAAJgqERRveviptP6m62eskVdVyW0kGAAAgO4yNDSUBgcHy2cjNmzYUC6Nb+PGjeXSiIGBgdTX15d6e0f67Oq5CwAAABMQPYZncq7bCJdj3l9TQwAAAMw9wl0AAABoU0yts//1QzM6123MIRzz/jab7xcAAIDZTbgLAAAA44jest/89v3FPIAxD3/M8Xa6xVDMMZdczDMbcwU3m+8XAACA2W1q5tzdvCPtu+nuYnnRXben+dcvK5Y79e5Tu9OBb/ykWL7w4TvTgnUrimUAAAAAAACAbjXdc+5OSbh7Ys+htHvZv5TPplBPT1q255/SvIvOKVcAAAAAAAAAdKfpDnenZFjmeRcvLHrspt6ecs3k9fTPS+f92xcEuwAAAAAAAADDpqTnbuW9199Kx57Zm9Jk37K3J/Vftyz1nntGuQIAAAAAAACgu2UxLDMAAAAAAADAXJfFsMwAAAAAAAAATC/hLgAAAAAAAEAGhLsAAAAAAAAAGRDuAgAAAAAAAGRAuAsAAAAAAACQAeEuAAAAAAAAQAaEuwAAAAAAAAAZEO4CAAAAAAAAZEC4CwAAAAAAAJAB4S4AAAAAAABABoS7AAAAAAAAABkQ7gIAAAAAAABkQLgLAAAAAAAAkAHhLgAAAAAAAEAGhLsAAAAAAAAAGRDuAgAAAAAAAGRAuAsAAAAAAACQAeEuAAAAAAAAQAaEuwAAAAAAAAAZ6Nm5c+fJchkAAAAAAACASRgcHCyXRmzYsKFcGt/GjRvLpREDAwOpr68v9faO9NntOTmsWAIAAAAAAACgY0NDQ9Ma7hqWGQAAAAAAACADwl0AAAAAAACADAh3AQAAAAAAADIg3AUAAAAAAADIgHAXAAAAAAAAIAPCXQAAAAAAAIAMCHcBAAAAAAAAMiDcBQAAAAAAAMiAcBcAAAAAAAAgA8JdAAAAAAAAgAwIdwEAAAAAAAAyINwFAAAAAAAAyIBwFwAAAAAAACADwl0AAAAAAACADAh3AQAAAAAAADIg3AUAAAAAAADIgHAXAAAAAAAAIAPCXQAAAAAAAIAMCHcBAAAAAAAAMtBzcli5PGnvHXg7Hdu6Z3hhkm/Z25P6r7049S4aKFcAAAAAAAAAdLehoaE0ODhYPhuxYcOGcml8GzduLJdGDAwMpL6+vtTbO9Jnd8rC3Tfv2pwO/ON9KR1/r1wzOT3989Kif709nf13a8s1AAAAAAAAAN1rusPdKRmW+cSug+nAP/x0yoLdcPLYifTG3/8ovbf/SLkGAAAAAAAAYO6akp67RzfvSPtuurtYXnTX7Wn+9cuK5U69+9TudOAbPymWL3z4zrRg3YpieSY998eX00O/3lo+G+3mP702XfXhy8pnIw69+Vb6wb2PprffPlquSenaa65In77h6vLZ+x75ze/T1mdfLJ+ldP7ihenzn7sxLVjQX67hdDt69Fj68c8eT6+9fqhcM1p/37x06/o16bJLLijXMBtM5DifyLbV+WDVimVNzwF1cT547vmXfL5mQLVPm53TK87XANDdXt71anpg05a09KLFafDWT5Vr31eVy25Ys7rl9Z58NLvvnqny2b0P/Lb4/I0l6gQ+dvXyGf8MtlPubabxb5yp++LGMnkz8TvFOSC23bXntdP6mRjv92tVNwS8r9PzFHkZbz/H67/Z8nz60uDatPCcM5XjgKxkMSzz0Ye2p323/HuxfOGDf5sW3LyyWO7UVL/fVGi8mFSqi1C9cF5VKFy1+vJT66qLz5LhG82qkqEKEEP9RkO4072qffbW20c/8FkgfxM5zsfbtl4wrY7/48eOj3lct7sdU69eUdXqpiK22f/6oVH73PkaALpLFaoMDCxoWl5vt1Iwttv86O/SZ2/+uEZcXapZGT1EmW3vK6/PaPmsum+85OLzPxDitfsZnC7tlHsbVb/zmcPHVb3uotU+ON3ibwrNGnTMRLjbSnV+ElbB2Do5T5Gn6jrSqtzWWPc209dQgInIYljmuSwuJHEjs23H7uICE57+3YtFS/H6zU1cgOLCEzeZVQHliae2FSHhbcM3nfWbjPi+CIYf+68/FDeFdAfB7tzV7DhvJbaNSqRnfr/zA8fvseMnivNDK/E99V4HTL/YR9/70a+Kc3PcNMYNRTNxQ9EY7IY4X8f5fqz9CgCcHnFdjxBn5fKLi+ex3Kkol0W5n+4U99SPPP5s01AxAr4on3Xr/XSUJb/2lc+c9krpdsu9jeL77t+05QPBboi/Id4rGjtW9RzdJj4fd3zhzwS7kIFOz1PkL+rColHdeGbqGgrQjYS7U+DySy9I6eTJdPDQkaIgEpUA5y06u3z1fdFqt6+/Lx0+8k6xXVQ2RE/eZiFhvOdbb72T9u0/UK5hpv3ioScFu3NY/TgfTxz/8Vk5+u7oyqQIfesNPOoiNI7weOlF56W+vnnlWqZb1cjmji+uK87RrWx/cU/L8/XKKy4ugt/xgn8AYHrFvVPcQ121+rLiuh3Xb2anl/7n1bRw4VnpE9evKteMdt1Hr0iHhsvtO4b2lmtot9zbqDqu/uSTH2kakK740NJiX2js2Fo0FBXswvg6PU+Rtwjx43oedWVxvgSgPcLdKRY3O9Gi9Y0Dh8s174swN4ZbPfusM8o15KLZcKzQShz/cR5YMH905cdllyxpWfERLRTje669+opyDafDqpXLilafkzmui3N6m8E/ADB9IvA788wz0oVLFk2o8VVUJn7z2/en//juL9OTW7enu791XxHEvDb8/d/6zs+L59HrLu4JokdRNNStq3oaxeuxXbxP/edW718NHVupbxuP73z/waJSM9bFz4xH/edV79Os4jPWxWvNGhHONlVD6aK83aI3ZnwGotz9+htvlmtG7umq/Vj9f1v9z+rbxGMqK5tjX8c+rr9n9XvF12Y/dyp+507LvXFcpZ6edO7w/7OZ2AcRwhSNW8vP6nh/T131ua62aXaMTUb8Do3HUXWs1X9u/L4h1lfr4hHf36hxm+p7m4ltG6ftAZqbivtz8rR61aUtR8Gra3YNDdN9LQHoRsLdKdB4sxOthKN3Xv0mIC4+MUdADLccF6vqBqhVhcN4N1CcPlFAiP0ZQ4R874ebm95IM/u1e0xGATM+Ix+7evkHKpvmz+8vWrzH56leEK0+Y/E98+f3lWs5HaLiDwDIX9xTxSgocY9V3WuF8YZmjnLYA5u2FPdpUaH88WtXpju//pfFcL/nL16Yvv7VPy+ex9CucZ/XbHSlqmdjvB7luVD/uTFyU0zPUQ+/4mtss2rFslOV2LFNDDW8ft11xc+Mnx1iBKEQ95Ex3HCzHsmxLl6LbWa7GB0n/pfNRsuqxGegWaPrCO3j++L/G4/Y75s2P33qnjz2S1QIx/tX+z6GeY790liRPNXisxi/b/W7RRgYP/eH9z1aNFao1jcOOd3u79xpubdVw9W6xeedM/L5ro1c1OrvifWV+P0iGP30jdec2i5+VkyHVP190yHu7aN+JnoHxs/86pdvKepm4n/98vB9X/13bhxyOup54u+I/3FsE//z+NubBbzxN0RQESLgbRYUA+9zfz63rVv70eJ8Gj24J2KmriUAM024O0lxAYkbxPpNedxQ/++/Wl/crJ9qMfTDzcVNen0+oBhyIi42MX9N/WITBf54z1ZDgHJ6xf78m7++rSgc3Lp+TVH546Zsbml2nIeoFIhW39VxHo+oJIjKgVatsqtKuXprxOjJGz0LYkgzAAAmLu69YpSkYiqNYVFmi/upsXqAVMFuVAY2ztvaTFQ6R8/gxlFY4nnVYzgCsLjHq/cYjeB14Iz5o4LhCMGO1X7fStUYOERAGWFxvUFwhHyN03zEcqyL1xhbBPb1oZwbw/gYxjmGc64PQRz7I/bLeL2JJiuGpYyK7Uo13HF/X9+oe4vGRgYz+TuPpdXfUzSaHRa/V/x+xe9a+/uqyv3pHlL7hjWrT93bxde41zt46K104/D/sdL4O1eNSBqP0/jf73/t4KjjMsRrMd9vFQLH50xvMoDmqnPxROZxn+lrCcBMEu5OQLMgpxpep14ZEEFQDN8VN4pVi6FoERotgusF+aqgHzf/1XBf8YgQqfFGiO4QhYWo/JlIQYO8tHuchzhOI8itjvN4RCOOaMwxVgOA+hxg8TmKioBWc1gBADC+CFAjhKn3+omwM8pcjT1tw95X3jgV7LY7VGqU1RrD1vgaz2N9vB6P6DUcIU7c91WvR4/gCICrkChej566jaPCRA/IsTSGTSGWY52GguOLe++xytwRyjd+jkKE8BHGVz1To4dQ/X6hcSjuThS/W5PesWP1UA7t/s6nW6u/p1L1wG5slFA1zKgaSMR9Vf1/3WpY6ono65vXdLqs8X7nYhqWkyc/0CijavgRvfRbic/dbevXdNQrDWCuiAZYcU2rj1AxlnavJQCzkXB3AupBTgQ9/cM3BDEUT70yIG7ooudeDONVXx8XlZivtVmroWo4n3hUrT/rrUjpLlFZ09ffN+aNG/lq5zgfS9FacPXlRYvuVhU81Tb//fQLxVy7S84/99SxDwDAxFQBajUkc6Uqt9eD0Moftr1chKsTrfRrHO65+lqtDxH8VD0rq9ev+NDSYpsq9I0wupORmhrD43jEcqwbK7ScTare0Y1DLtfF/yXuvccLRpupz7VcPSLMjUagRbg3rH4PH4+ZniOynd+5U/E/jP/lWCFxHEfjBaOtREPa+u8djwhvq/0bDWzr/+sYVWsm752OD583GsP9+N/HPhjvfFKFDWN9dgHmsijLROeHqkNEu8a7lgDMRsLdDkXQ0zjXTV2zFtfVTWirAn+0SI0LT2MwDMyM8Y7zVsbrcRGid0dUKEaFS/TkJV9FQw9zpAPAjIlwM8pUMQJSvVIvRmOJ9VUQWheN+CKg27Z914R6AVbhTDXvbbOQturFF6Fy/fUq9I3KygijOx1GuR4exyOWG3sSzmZVwF0Eji3K6PF/iYrhdsrljepzLXdTqDiW6fydi8/WyZMtQ+LYB3GMFeFuBw0M4lhs/L3jEcdnN4pev43hfvVoZ3h3AMZWdYiIzlOHD79drh1bbtcSgKkg3J2Eavz+Xzz0ZLnmfc0C3LFuMKNCIYb6jQuYG4KZF/sjhnuKIbYbxY1rzOfVbBgnZp+xjvNW2ukBEhV8MZdIhMfdWknE+6LytT4EY12nPW8AgKkR1+IoT7Wq1KvPT1oX37Nq5SXF9DkTGVI3GubFtBpxrxCBV2NDvSp8jOC4PhduFfrG6C0htulE/N4x8kvM9RsB8lwcBSYCx7i3bjW8bfxvOhmqOu7Vx+ul2m2m+3euPretGrxGY4XYFxNtsDpe4/duVDTm7OkZcxSv+B/FdFzRu7dRNcpAJz3KAeaSak788Yaxz/FaAjBVhLuTEBX5MXxyEcyWIWC1LlqN14PBKMRHpUGzG8z6a5+9+ePlWmZSVI5EK7FHHn92VEv+WI518dpcq0CZq5od52Mptnv+pSK4HS/si4YcWhHmIXpxR4D7g3sfHVX5GyMuRKWt3tcAMDOi7FUPUBvVe9E2E3O7RaXg/Zu2jAquxgrMqveMIQD7+/uK540ifIzhW2NY6CrErULfKEtMtmFY/L3xt8d9Z6c9gHMW92IxX3L8/VEeq4tQLT4TMazjRHuSxr16fB5i6pRKFdZNxby602Gqf+e454me71U4Gf/Daq7YH//s8VHHSWwbx0En98fxvlF5H/dO8VmuVD+/cb92gzhm4z4vepM13hPE7xy/e/xd8dmLz2D9b4j/W5xnYl/FeQeA1qq6uPHkeC0BmCrz/nlYudyxEzvfSEf+84li+ayvfSL1LV9cLHdqqt9vKux/7VDRYzMq+Os3iBecf256Zd+B4qby7LMGiufxWHrheenBXz1dFPqfeHJbeub3O9PVwzc8n/vM8N/TN6/87pFgN8KC8L9uuyGddabeoN0iKmRi/tWfP/jfxT6Mxx+370rr1n4s/T/XXVluxWwykeM8tn1hx+7i2K4+H9Vn5KNXLR/VAz8qBaNgeemyJcX3jiXOCS8O7U0rli81zO9pEAX9+37+22Lfxb6MStidL71yan/Gfv/wlZcU28bXI2+9k3750JOnXj9+4r10xxfWdTTkHwAweb967Nn0znBZKyoA6+W3Stx7HTh4pKj0u2DJuemMBfNHlcvi9Qiltg6XA3bs3JuuvGJZsW7h2WcWz6v7uaoMWH/PV149UAQ9MZ9uo56envT8cLkwQtyq90kYXl2U9a772IpR5cJW5cVW5dPoqfLCi3uKcLnV3z7bxf9p9ZWXFuW5x/7ruVPls/ifNCufRTk9VGW70Ph/j317zUc+VGy7afNTxfs9+cz2Yj/e8YU/a/v/fGK4jPj8C/9TVE43DpndbF9HhfSbh99OH1l1afE7hFbv0Xi/0O7v3G65Nz5zsT7eu/pfxXtcP/yZfXHolfTwI8+c+p5du/env/jsJ4v7n7p2/574++O4fGDTllPHWqv3HEuzfVtp/F1a3W+1+zvH1/h//PT+35z6Pxwa/r6/+uK6Yp+GeN8rh88N9c9mtU++OLj21PsDo03k/pzZoVU5J8Q1IvZ5NC6qXm92DZ2qawnAVDt48GC65557ymcj1q5dWy6N77HHHiuXRvT396fe3t7iXjP0nBxWLE3C0Ye2p323/HuxfOGDf5sW3LyyWO7UVL8fAAAATJUIgjY9/FRaf9P1MzaiT9Wz0kgwTLWoOI/hzn22AACgM0NDQ2lwcLB8NmLDhg3l0vg2btxYLo0YGBhIfX19RcAbDMsMAAAAExBzus7kXLcRLse8v6aGYDrE3IXmhQUAgO4l3AUAAIA2xbCu+18/NKNz3cYcwjHvb7P5fmEyotfuth27Rw0nDgAAdBfhLgAAAIwjest+89v3p+98/8Firt2Y/+10i6GY7/7WfUX4dtv6NR+Ynw4mKz7XX/vKZ4p5ZgEAgO40NXPubt6R9t10d7G86K7b0/zrlxXLnXr3qd3pwDd+Uixf+PCdacG6FcUyAAAAAAAAQLea7jl3pyTcPbHnUNq97F/KZ1Oopyct2/NPad5F55QrAAAAAAAAALrTdIe7UzIs87yLFxY9dlNvT7lm8nr656Xz/u0Lgl0AAAAAAACAYVPSc7fy3utvpWPP7E1psm/Z25P6r1uWes89o1wBAAAAAAAA0N2yGJYZAAAAAAAAYK7LYlhmAAAAAAAAAKaXcBcAAAAAAAAgA8JdAAAAAAAAgAwIdwEAAAAAAAAyINwFAAAAAAAAyIBwFwAAAAAAACADwl0AAAAAAACADAh3AQAAAAAAADIg3AUAAAAAAADIgHAXAAAAAAAAIAPCXQAAAAAAAIAMCHcBAAAAAAAAMiDcBQAAAAAAAMiAcBcAAAAAAAAgA8JdAAAAAAAAgAwIdwEAAAAAAAAyINwFAAAAAAAAyIBwFwAAAAAAACADwl0AAAAAAACADPTs3LnzZLkMAAAAAAAAwCQMDg6WSyM2bNhQLo1v48aN5dKIgYGB1NfXl3p7R/rs9pwcViwBAAAAAAAA0LGhoaFpDXcNywwAAAAAAACQAeEuAAAAAAAAQAaEuwAAAAAAAAAZEO4CAAAAAAAAZEC4CwAAAAAAAJAB4S4AAAAAAABABoS7AAAAAAAAABkQ7gIAAAAAAABkQLgLAAAAAAAAkAHhLgAAAAAAAEAGhLsAAAAAAAAAGRDuAgAAAAAAAGRAuAsAAAAAAACQAeEuAAAAAAAAQAaEuwAAAAAAAAAZEO4CAAAAAAAAZEC4CwAAAAAAAJAB4S4AAAAAAABABoS7AAAAAAAAABkQ7gIAAAAAAABkQLgLAAAAAAAAkAHhLgAAAAAAAEAGhLsAAAAAAAAAGRDuAgAAAAAAAGRAuAsAAAAAAACQAeEuAAAAAAAAQAaEuwAAAAAAAAAZEO4CAAAAAAAAZEC4CwAAAAAAAJAB4S4AAAAAAABABoS7AAAAAAAAABkQ7gIAAAAAAABkQLgLAAAAAAAAkAHhLgAAAAAAAEAGhLsAAAAAAAAAGRDuAgAAAAAAAGRAuAsAAAAAAACQAeEuAAAAAAAAQAaEuwAAAAAAAAAZEO4CAAAAAAAAZEC4CwAAAAAAAJAB4S4AAAAAAABABoS7AAAAAAAAABkQ7gIAAAAAAABkQLgLAAAAAAAAkAHhLgAAAAAAAEAGhLsAAAAAAAAAGRDuAgAAAAAAAGRAuAsAAAAAAACQAeEuAAAAAAAAQAaEuwAAAAAAAAAZEO4CAAAAAAAAZEC4CwAAAAAAAJAB4S4AAAAAAABABoS7AAAAAAAAABkQ7gIAAAAAAABkQLgLAAAAAAAAkAHhLgAAAAAAAEAGhLsAAAAAAAAAGRDuAgAAAAAAAGRAuAsAAAAAAACQAeEuAAAAAAAAQAaEuwAAAAAAAAAZEO4CAAAAAAAAZEC4CwAAAAAAAJAB4S4AAAAAAABABoS7AAAAAAAAABkQ7gIAAAAAAABkQLgLAAAAAAAAkAHhLgAAAAAAAEAGhLsAAAAAAAAAGRDuAgAAAAAAAGRAuAsAAAAAAACQAeEuAAAAAAAAQAaEuwAAAAAAAAAZEO4CAAAAAAAAZEC4CwAAAAAAAJAB4S4AAAAAAABABoS7AAAAAAAAABkQ7gIAAAAAAABkQLgLAAAAAAAAkAHhLgAAAAAAAEAGhLsAAAAAAAAAGRDuAgAAAAAAAGRAuAsAAAAAAACQAeEuAAAAAAAAQAaEuwAAAAAAAAAZEO4CAAAAAAAAZEC4CwAAAAAAAJAB4S4AAAAAAABABoS7AAAAAAAAABkQ7gIAAAAAAABkQLgLAAAAAAAAkAHhLgAAAAAAAEAGhLsAAAAAAAAAGRDuAgAAAAAAAGRAuAsAAAAAAACQAeEuAAAAAAAAQAaEuwAAAAAAAAAZEO4CAAAAAAAAZEC4CwAAAAAAAJAB4S4AAAAAAABABoS7AAAAAAAAABkQ7gIAAAAAAABkQLgLAAAAAAAAkAHhLgAAAAAAAEAGhLsAAAAAAAAAGRDuAgAAAAAAAGRAuAsAAAAAAACQAeEuAAAAAAAAQAaEuwAAAAAAAAAZEO4CAAAAAAAAZEC4CwAAAAAAAJAB4S4AAAAAAABABoS7AAAAAAAAABkQ7gIAAAAAAABkQLgLAAAAAAAAkAHhLgAAAAAAAEAGhLsAAAAAAAAAGRDuAgAAAAAAAGRAuAsAAAAAAACQAeEuAAAAAAAAQAaEuwAAAAAAAAAZEO4CAAAAAAAAZEC4CwAAAAAAAJAB4S4AAAAAAABABoS7AAAAAAAAABkQ7gIAAAAAAABkQLgLAAAAAAAAkAHhLgAAAAAAAEAGhLsAAAAAAAAAGRDuAgAAAAAAAGRAuAsAAAAAAACQAeEuAAAAAAAAQAaEuwAAAAAAAAAZEO4CAAAAAAAAZEC4CwAAAAAAAJAB4S4AAAAAAABABoS7AAAAAAAAABkQ7gIAAAAAAABkQLgLAAAAAAAAkAHhLgAAAAAAAEAGhLsAAAAAAAAAGRDuAgAAAAAAAGRAuAsAAAAAAACQAeEuAAAAAAAAQAaEuwAAAAAAAAAZEO4CAAAAAAAAZEC4CwAAAAAAAJAB4S4AAAAAAABABoS7AAAAAAAAABkQ7gIAAAAAAABkQLgLAAAAAAAAkAHhLgAAAAAAAEAGhLsAAAAAAAAAGRDuAgAAAAAAAGRAuAsAAAAAAACQAeEuAAAAAAAAQAaEuwAAAAAAAAAZEO4CAAAAAAAAZEC4CwAAAAAAAJAB4S4AAAAAAABABoS7AAAAAAAAABkQ7gIAAAAAAABkQLgLAAAAAAAAkAHhLgAAAAAAAEAGhLsAAAAAAAAAGRDuAgAAAAAAAGRAuAsAAAAAAACQAeEuAAAAAAAAQAaEuwAAAAAAAAAZEO4CAAAAAAAAZEC4CwAAAAAAAJAB4S4AAAAAAABABoS7AAAAAAAAABkQ7gIAAAAAAABkQLgLAAAAAAAAkAHhLgAAAAAAAEAGhLsAAAAAAAAAGRDuAgAAAAAAAGRAuAsAAAAAAACQAeEuAAAAAAAAQAaEuwAAAAAAAAAZEO4CAAAAAAAAZEC4CwAAAAAAAJAB4S4AAAAAAABABoS7AAAAAAAAABkQ7gIAAAAAAABkQLgLAAAAAAAAkAHhLgAAAAAAAEAGhLsAAAAAAAAAGRDuAgAAAAAAAGRAuAsAAAAAAACQAeEuAAAAAAAAQAaEuwAAAAAAAAAZEO4CAAAAAAAAZEC4CwAAAAAAAJAB4S4AAAAAAABABoS7AAAAAAAAABkQ7gIAAAAAAABkQLgLAAAAAAAAkAHhLgAAAAAAAEAGhLsAAAAAAAAAGRDuAgAAAAAAAGRAuAsAAAAAAACQAeEuAAAAAAAAQAaEuwAAAAAAAAAZEO4CAAAAAAAAZEC4CwAAAAAAAJAB4S4AAAAAAABABoS7AAAAAAAAABkQ7gIAAAAAAABkQLgLAAAAAAAAkAHhLgAAAAAAAEAGhLsAAAAAAAAAGRDuAgAAAAAAAGRAuAsAAAAAAACQAeEuAAAAAAAAQAaEuwAAAAAAAAAZEO4CAAAAAAAAZEC4CwAAAAAAAJAB4S4AAAAAAABABoS7AAAAAAAAABkQ7gIAAAAAAABkQLgLAAAAAAAAkAHhLgAAAAAAAEAGhLsAAAAAAAAAGRDuAgAAAAAAAGRAuAsAAAAAAACQAeEuAAAAAAAAwDQ5fPhwuTS2drYT7gIAAAAAAABMk507d5ZLY2tnO+EuAAAAAAAAwDTZsmVLuTS2drYT7gIAAAAAAABMk/3796f77ruvfNZcvB7bjafn5LByGQAAAAAAAIAODQ0NpcHBwfLZaEuWLElr1qxJy5cvT2effXYxx24MxRw9dlsFuwMDA6mvry/19o702RXuAgAAAAAAAEyBscLdTjSGu4ZlBgAAAAAAAMiAcBcAAAAAAAAgA8JdAAAAAAAAgAwIdwEAAAAAAAAyINwFAAAAAAAAyIBwFwAAAAAAACADwl0AAAAAAACADAh3AQAAAAAAADIg3AUAAAAAADcTBjMAAATtSURBVADIgHAXAAAAAAAAIAPCXQAAAAAAAIAMCHcBAAAAAAAAMiDcBQAAAAAAAMiAcBcAAAAAAAAgA8JdAAAAAAAAgAwIdwEAAAAAAAAyINwFAAAAAAAAyIBwFwAAAAAAACADwl0AAAAAAACADAh3AQAAAAAAADIg3AUAAAAAAADIgHAXAAAAAAAAIAPCXQAAAAAAAIAMCHcBAAAAAAAAMiDcBQAAAAAAAMiAcBcAAAAAAAAgA8JdAAAAAAAAgAwIdwEAAAAAAAAyINwFAAAAAAAAyIBwFwAAAAAAACADwl0AAAAAAACADAh3AQAAAAAAADIg3AUAAAAAAADIgHAXAAAAAAAAIAPCXQAAAAAAAIAMCHcBAAAAAAAAMiDcBQAAAAAAAMiAcBcAAAAAAAAgA8JdAAAAAAAAgAwIdwEAAAAAAAAyINwFAAAAAAAAyIBwFwAAAAAAACADwl0AAAAAAACADAh3AQAAAAAAADIg3AUAAAAAAADIgHAXAAAAAAAAIAPCXQAAAAAAAIAMCHcBAAAAAAAAMiDcBQAAAAAAAMiAcBcAAAAAAAAgA8JdAAAAAAAAgAwIdwEAAAAAAAAyINwFAAAAAAAAyIBwFwAAAAAAACADwl0AAAAAAACADAh3AQAAAAAAADIg3AUAAAAAAADIgHAXAAAAAAAAIAPCXQAAAAAAAIAMCHcBAAAAAAAAMiDcBQAAAAAAAMiAcBcAAAAAAAAgA8JdAAAAAAAAgAwIdwEAAAAAAAAyINwFAAAAAAAAyIBwFwAAAAAAACADwl0AAAAAAACADAh3AQAAAAAAADIg3AUAAAAAAADIgHAXAAAAAAAAIAPCXQAAAAAAAIAMCHcBAAAAAAAAMiDcBQAAAAAAAMiAcBcAAAAAAAAgA8JdAAAAAAAAgAwIdwEAAAAAAAAyINwFAAAAAAAAyIBwFwAAAAAAACADwl0AAAAAAACADAh3AQAAAAAAADIg3AUAAAAAAADIgHAXAAAAAAAAIAPCXQAAAAAAAIAMCHcBAAAAAAAAMiDcBQAAAAAAAMiAcBcAAAAAAAAgA8JdAAAAAAAAgAwIdwEAAAAAAAAyINwFAAAAAAAAyIBwFwAAAAAAACADwl0AAAAAAACADAh3AQAAAAAAADIg3AUAAAAAAADIgHAXAAAAAAAAIAPCXQAAAAAAAIAMCHcBAAAAAAAAMiDcBQAAAAAAAMiAcBcAAAAAAAAgA8JdAAAAAAAAgAwIdwEAAAAAAAAyINwFAAAAAAAAyIBwFwAAAAAAACADwl0AAAAAAACADAh3AQAAAAAAADIg3AUAAAAAAADIgHAXAAAAAAAAIAPCXQAAAAAAAIAMCHcBAAAAAAAAMiDcBQAAAAAAAMiAcBcAAAAAAAAgA8JdAAAAAAAAgAwIdwEAAAAAAAAyINwFAAAAAAAAyIBwFwAAAAAAACADwl0AAAAAAACADAh3AQAAAAAAADIg3AUAAAAAAADIgHAXAAAAAAAAIAPCXQAAAAAAAIAMCHcBAAAAAAAAMiDcBQAAAAAAAMiAcBcAAAAAAAAgA8JdAAAAAAAAgAwIdwEAAAAAAAAyINwFAAAAAAAAyIBwFwAAAAAAACADwl0AAAAAAACADAh3AQAAAAAAADIg3AUAAAAAAADIgHAXAAAAAAAAIAPCXQAAAAAAAICul9L/D6pEmv9gkxT4AAAAAElFTkSuQmCC;fontSize=10;" parent="1" vertex="1">
          <mxGeometry x="300.76" y="293.13" width="118.67" height="55.23" as="geometry" />
        </mxCell>
        <mxCell id="AIz6P5B00cFlkQq6YOMH-9" value="" style="image;aspect=fixed;perimeter=ellipsePerimeter;html=1;align=center;shadow=0;dashed=0;spacingTop=3;image=img/lib/active_directory/site_collection.svg;" parent="1" vertex="1">
          <mxGeometry x="511" y="280" width="50" height="47" as="geometry" />
        </mxCell>
        <mxCell id="AIz6P5B00cFlkQq6YOMH-11" value="" style="image;sketch=0;aspect=fixed;html=1;points=[];align=center;fontSize=12;image=img/lib/mscae/Event_Grid_Topics.svg;rotation=-180;" parent="1" vertex="1">
          <mxGeometry x="700" y="274.77" width="60" height="60" as="geometry" />
        </mxCell>
        <mxCell id="AIz6P5B00cFlkQq6YOMH-14" value="" style="image;aspect=fixed;perimeter=ellipsePerimeter;html=1;align=center;shadow=0;dashed=0;spacingTop=3;image=img/lib/active_directory/cluster_server.svg;" parent="1" vertex="1">
          <mxGeometry x="345.1" y="560" width="50" height="50" as="geometry" />
        </mxCell>
        <mxCell id="AIz6P5B00cFlkQq6YOMH-15" value="" style="image;aspect=fixed;perimeter=ellipsePerimeter;html=1;align=center;shadow=0;dashed=0;spacingTop=3;image=img/lib/active_directory/cluster_server.svg;" parent="1" vertex="1">
          <mxGeometry x="511" y="560" width="50" height="50" as="geometry" />
        </mxCell>
        <mxCell id="AIz6P5B00cFlkQq6YOMH-18" value="" style="verticalLabelPosition=bottom;verticalAlign=top;html=1;shape=mxgraph.basic.rect;fillColor2=none;strokeWidth=1;size=20;indent=5;" parent="1" vertex="1">
          <mxGeometry x="677.5" y="81.95" width="95" height="100" as="geometry" />
        </mxCell>
        <mxCell id="AIz6P5B00cFlkQq6YOMH-20" value="" style="shape=image;imageAspect=0;aspect=fixed;verticalLabelPosition=bottom;verticalAlign=top;image=data:image/png,iVBORw0KGgoAAAANSUhEUgAAASAAAAEgCAYAAAAUg66AAAAAAXNSR0IArs4c6QAAAARnQU1BAACxjwv8YQUAAAAJcEhZcwAAEnQAABJ0Ad5mH3gAAC+NSURBVHhe7Z1ncBznmeefATDIGAxyTiQIgAHMYhJFUonKyXKQd/d2z17f7vmu/OHu9r7cJ3+5utraq9ururW3dl3evd1ykGVZVqAyKVJiphhBEiRyznkwgxzu/T9onmiKAegeoPudeX4ompwGVWY3uv/95Mc1ryBBEAQbiDB+FwRBWHFEgARBsA0RIEEQbEMESBAE2xABEgTBNkSABEGwDREgQRBsQwRIEATbEAESBME2RIAEQbANESBBEGxDBEgQBNsQARIEwTZEgARBsA0RIEEQbEMESBAE2xABEgTBNkSABEGwDREgQRBsQwRIEATbEAESBME2RIAEQbANESBBEGxDBEgQBNsQARIEwTZEgARBsA0RIEEQbEMESBAE2xABEgTBNkSABEGwDREgQRBsQwRIEATbEAESBME2RIAEQbANESBBEGxDBEgQBNsQARIEwTZEgARBsA0RIEEQbEMESBAE2xABEgTBNkSABEGwDREgQRBsQwRIEATbEAESBME2RIAEQbANESBBEGxDBEgQBNsQARIEwTZEgARBsA0RIEEQbEMESBAE2xABEgTBNlzzCuPPgg1MzIzRwFg3DY33kH9qWH0O0Nz8rPFdIXi4KNIVRbHuBEqKTqHU+CxKjcui6MhY4/uCHYgArTC43BCY3kAbNQxepZbhm9QXaCff5ACNTY/S1Mw4zakvIdhAgCIpJjKO4qM95IlJo+zEQipOWU8l6hcEKYIiyeVyGX9fWAlEgFYIJTs0Ph2gztEmutZzkuoHrrDlMzbtE4vHJqIi3JQQnawsoRyqyNhOlVkPU2ZiPltFLvUlLD8iQCvA1OwEdftb6WLnZ1TVfZyGJ3ppZnZaiZJceicAsXFHxijxKaAtOQdYiDIS8pRARRt/Q1guRICWEQiMf3KErnR/QWfaPqQOXx3NzE0b3xWcCIQILtnO/GdoQ9ZuincnGd8RlgMRoGUCQtPhq1fC8xFV9Rwn38SA8R1BB1Ljsmlb3uNKiJ5mayjCFWl8RwgmIkDLwOTMGNUMXKLPm96kpqFqmlYumKAfccr6KU/fSo8UvUwlqRvILS5Z0BEBCjLIZFV1n6TPm39Hnb4GCTBrDuJAhd5yemL1d5UYbado5aIJwUMEKIigpudy1xd0tOkN6h5tUuIj6fRQAO5XobeCnir9E86WSXA6eEgldJCYmZvi1PqJlreV+DSL+IQQsGLbhmvomHKpW4drxaoNIiJAQWBeiU1PoJ1Otb5H7b46uUFDkNn5GWoauk5n2j+kofFeKaEIEiJAQWB8JkBXuo5T/WAVzc7NGEeFUAP1XNW9Z+m6+oU/C9YRAbIIXK12XwNVdX9B49OjxlEhVBmZ6KMr3Z9Tn7+d22oEa4gAWSQwNUKXOj+jrtEm44gQ6rQM36CrvadocnbMOCKYRQTIAoj91A1coctdn0vcJ4yYnBmn8x2HqcPXKLEgi4gAWcA3OcRZL4zREMKL/kA7HW9+m6ZmJBZkBREgC5xqfZ+ah6uNT0I4gdhfde8Zquo5YRwRzCACZJLWkRplhn9C07OTxhEh3MDwOLTbDE/0GUeEpSICZAKY3TC/+8c6jSNCOIL4D+Y7HW95h2bmpfzCDCJASwTB5mu9p6lu4JIEngW2gK/3nKGWoWoJSJtABGgJ4AbrU1bPFQwVGxezW1igN9BKF7uOkW9y0DgiLBYRoCWA9Gtt3wVqHrpOs2L9CAYzs1NU13+R6geqaHpuyjgqLAYRoEUCd6vH30rVfWd5gDzsIUEAsIwHxrqoWrnmg2Pd/FlYHCJAi2RiOkA1/ee5ClbGqgp3glhQ4+BVahi8IrVBS0AEaBHA+ukYbaLrvWfIPzViHBWEr4DVgy55NKr2j3dylbzwYESAFsHE9BjdUK4XrB+5sYR7gZEdNf0Xqbb/ksSCFokI0ANAx3PnaCP3/sioDeFBTM4E6Hz7p9QbaJdY0CIQAXoAqHY92foer04WhMXQOnKTLncekyr5RSACdB9g/aDoEHu9BGEpnG77gCcoCvdHBOg+9I910GeNb8ibTFgyKNX4rPFNSVo8ABGge4CRmydb3qMuX6NxRBCWRv3AJY4dSuLi3ogA3QNkMrDRFJkN4Q9xR8aSNy6TshIK+Xd8Fr4OFlKea/+E2kbqjCPCnchesLswMtFP7978GV3sPCJFhwYuVwR5YzNpbcZDVKF+pcXnkDvCra7PDA2O91BN/5d0rec0DcvGiD8gWonz3qIX6dny71NMZJxxVLiFCNAdwFzGW+tQ7T+ph0kyXyDSFUXlGdvpmbI/o3zPGvU5UgmSS30HvxauGepe2kZq6Wjjb+lG35fKhR3n74U7LvWVlVRML1b8BVVm7eYjwleIC3Yb0OLO0Wa62nOK/JNDxtHwBuKzOecAvVb5X6jYu46ilNUDa+j2Bwmf8aZfnbqRXln3H2lH/kGKjUowvhvewBoc5D6xM8pS7DWOCrcQAbqN8Rk/1Q1cpJbhat50Gu5EKGFZn7VLicoPKSUu0zh6f9Lis+nx1a/R2syd/N8LC31itQOXqGGwSvaJ3YHcIQbc7T7awovnRqfE+gHp8fn0bNn3KTk23TiyONLjc+nRkm9SckyGcSS8WegT6+Fewn5lDUlW7CtEgAzGpkfpZv8FjmNIy8WC9bMt73HKSSo2jiyNIm8FbcrZZ3wSYAU1cbf8ZZqU+Nj/RwRIgQ0HXaPNvOEgMC2FYyAx2kvl6duMeM/SiXBF0kN5T1JURLRxRBie6Keq7pPUF+jgeKMgAsSg3+ty1zHqHm2SG8MgNS6bEmO8nMUxS2ZiwZLdt1AGbj6maXKWcE5iQUAESAHr52z7R1Lzcxtx0Umc8bIC/ntPjAjQ7UzMjPEyS9+ExBlB2AsQROft6r/nec/C7SjLJwjGYESEvOPuBIPLPqn/Bbv+4U5Y3x0wiU/zdlM9u5YRn0GdTmREFMdcrLhLOsDnq84VllWk+oVzvr0eSSfOtn9Adf2Xwt7lD1sBQmoUg8YON75uHNEHd2QMx1byPKtpTdpmDhYXeddRanwOFwCaDRw7FYhOUkwqV2GjDWRD1l5al7mLilPWq3PO4iJI3cQXwnOo5uc0ON5tHAlPwrYVA2MSPqj9ZzrV+p5GaXeXehBTaFVqJa1KqaTspEJKdCcrwYmkydkxGhjr5l31DQNV1BdosxTTWqse8O9s+E9cWGgW/P//3dm/Uv+ey8aRpQNBLfSWU1naVipILlPCm0buiBhei4TSiW5/M1sSKPJDD59OfWg4j6fW/Ck9uuqbLKLhSOSPFcafwwZ0uN/oPcvul39q2DjqbOBuIKu0s+AZ2lP4nLIEtikBKiZvbAY/lMhaZScWUV7SKv4cmPLxTBqzcYaMhHzakLmb4t2JxpGlg//vcx2f0JDJt3xsVDxVKmtnf8mryurZQ7lJJeRR55YQnayE2KvOOYvPOVsdj1F/F+cbUKIUlODVCoCCRFTf498PSy7UXei7EZYuWH+gk670nKChCT16cxDnKUnZQM+WfY87q/M8pQuu1h03LGIjqcpi2ZS9T71Vv0W5ykXT9abGOZcqq+ex1d/hHrOEaM9dXUtYDrlKiCHKT5f9GVuGiA/pAKy1vkA7VXUfJ99EeG5VDTsBQi9Ow8AVahm6zhstnQ4eOnSiP1/xA6rMfpg8ygW7X48VBCfOnaAspO20LfdxthZ0BDVIB0v/SInLKiWsUcbRu4NrBNd0o7KW0Ay7TlluVksIVgpURdf2X+DxreG4bTfsBKgfu91h/Yz3aREvqMx6mL6hHqrV6s3u5qrixVk0sAx25j9NWcpF0ZGNyopDzGexDa0QXgTni7xl9Kq6XhuzH1n0f2sncMMG1D15tec4b1UNN8JKgBC0rO49R+2+OsdPOoSAwIJ5Ze1/UCJSqN7yS3el4LaUpm3iB1MnYNFsyNzFbtjScXHgHPN3tucd1GII2BS2qioLqHHoWth1y4eNAKHmp3u0ha73nna8v434zpbcAzxFLy0hxzhqDqTqFywnfYh3e3jiohnRvQX+ewxQeyj/oOGGOjsWhm75q90nOT4ZTt3yYSNAsH6wYqed5/M61/WKjUqkzTn76PFVr/FYC6tBZB3rgqIjYoISw4EIHSj5Jm3NeZStQSeDUpCmoatUM3CBJsPICgoLAUKpU7uvXr1hTnDjqVOBWEB8Hi35NrtdwYhhjE37tSv5n5wNcM+UVSDeKCfYW/wSbcp+hK+vkxmdHKIrXV9Qb6BNi/hkMAgLAcJ0wzNtH/IP1qkg5rM+azftL36VspOKuO4nGHSNNvL56wTEp8PXEBThhIgjEL+v+BXakLnH0QV/EJ3WkRq61HmUQwbhQFgIUFXPSbrec9qxP1S0GqDWZV/RK5TjKQma+GBbRdPgNUsV0XYA4bnSfVy5JcH5d2OIfk5SiVFTtImvt1PB4LIvOw6zEIUDIS9AiP28fePvHex6KTchPp+rfTFFEA9LsLjSdZxdTx2Dmo2DVSxCwQKijoD8E6WvUWaCuaziSoGWkreu/9T4FNqEtADhTfph7f/lXVVOJc6dSI8UvcwNpcF6M+O8MfTqXMdHNM6tCfqBFplPG36lhOhq0CxXuGMlKevpgBJ7THx0LvNcKHuy9VDIx4JCVoDwg2scuspjVp0K4hEYW7ot//GgZH1wzuPK0rupxOfT+l9SFyY8qi9dwVrst6p/wsPccV7BOBc0gKK4k2uEouKNo84D53q08Q3qD3Twp1AlZAUItT4IPI9OOrPmB0V2GKXxcNELlOC2niKG1TM80Udftn9C7938GTUoy0H34fp4CLEk4P2af+LzwiCvYASm0baxM/8pWp1aabLYcWXAz/NU6/vKinVu5tYqISlACOTVoL8GAdhZZwZgMbtnd+HzlJ1obuvE7eChxPiN481v0+GGX1OHr14dC43NHnC/MLfps8bf0Inmd6jX38rHrILO+j2FL1BGYr7lWqvlAlXRNf3nQ7pPLOQECDU/2DpwvecUd7s70QWB67U97wm2gKzW+uD88IAebXxTvS0PcUWtE8/ZCgiio0/qdNv79FnTG9SpXDOrIoTiTMwY2pb7mHLFnNmugfPGvXxN3csj4/3G0dAi5AQI2a7agYs8mMup3e4Qnm25j1JclPlZO7dAZfeRhtfpYtdnFJgK3ZVCEFUEpi92fkaHG3/NiwSsCm2cO5625DxKJSmVxhHngW75+sEr1DB0lXvGQo2QEiC4Ir2BdrrRd45GJgYs36DLQUpcFu3If4rS4/Msp4LxEMLlutpzgsan/cbR0AbLA1DR/knDL9g6sIaLe+0wSyjenWQccxawgvrHnG3RWyGkBAg+M9LPTUPVjux2R43PuoydtB6d3hZT7ljxe4TF52TYbfSAJVDVdZw+qvsXGpkcMI6aI8rlVhbpFtqe+4T65MxY0LSy5DFytq7/Isc3Q4mQESC8GTBmAw+kM2tfXDx6c1POfsvpX9/kIJ1seYcL9ULthlwsqO6+3PUFp6qtup4J0Um0KXc/9985FWxVvdZzmgbUiwd3e6gQMgI0MR3gcQZtwzeNI84Cgc7StM1U7K0wjpgD1s6lzmN0rv1jRzfWrgTTyuI933GELnV9rq6LleZVF5V41/IMbOf2is1T3cBlqu47pyxAvXr77kdICNA8zXGqEgFKJ/rIyLgg5oMb3ErGBXU9uAlPtR3izmkBHeQDnB2rVy6KlbontxKedZk7uXHVuWn5ca6HwiaQUIkFhYQAjU4O0xfNb3HhlhPBfBsUveVaaDTFDdftb6ETyvXq8beGzA1oFSQe0PF/pu0DTkBYAUP8S1M3OjYtD1BygW0uoRL3CwkBuqAsn5r+i8Ynp+HiJYJl6Vst9R8hzvGlcrvqBi4FrUs8VECQtlb9/C91HbWUDcQw//KMbeSNzXSsFYSs2IXOI1ygGApoL0CYG4MCPKfOvIlwuSg/eQ0VJpebtn4QcEUtyMWuY5zpE74OhOd8x2Geq2y2SBFtGTlJq6jQW0FRDh5ji3M91vQmjUzqX5yotQBNK9GB69Vv0fReTjDfGLN+YAWZY5772U62vOdYF9MJwCVFXRBcMYyzMEtyTBqn5TGlwMm0Dtdwt7zuaCtAaLmo7jmjTO9LykJwbt9TekIeu19mWy5m5mbpcvdxbsrUca7PyjJPNX0XqFa5qWaHsKE+K99TyhtXnTwzCOUXyPoi+aIz2goQOqOruk8YVoEzA7Iw4wuSKyzVl/DmzK4vQrrNIphMzI5xiYIVKyhDvTTgNqNI0anA4uv1t3HmNzDtM47qh5YChDjIzf4L3B/j5IBsgjuJ1mfuMB3QRHAVo2Q7RhuMI8KDgJWIZlXcH2bT8siCYXBZUkyqccSZTM9NclKifuCKpRIEO9FOgBY6hNt5vxfeck5OR6fF5/KYVbP0jXWoB+l82PR5BQtewdRz0lLMDIFo3k3m0GwY4D6xQCcPbNO1T0w7AcLGhJvKz28ZvuHYzBdA/GBVWqXpjnfEMJqVf98+UmscERYLsmCYEoD+KbNxM29sOuV6Sikq0tlLHeENNCgLCOcKi1k3tBIgKHyXv5mtH1TAOpnICDQ5mp/3g9ETCKZiFKmwdHzq/oBr4jcZO0PJBIpHnb7aGc8Etp/c6hPTzQrSSoDQ71Pde5ZXlgRjNOdykhqbTVm8fWHpl3jBzeyglqEbjj9Pp4Lr1jRcTd3+VuPI0in0llOCo4fXLwBPoH7gsvIMzmtXpKqRAM1Tx0g9R/2tNR6uDEUpFaY3ccL9wkB9WEE4b8Ecg2OdPJ4W9WJm8ESnUE6Sc3vDbgf3yuXuY9Tjd+7yzbuhjQD5p3x0uu1D6lc3ldPBDVuQXGa6sxq7wTHTSKqerYH6sObhG6ZLGCIioriMQpmxxhFn0zJ8k1c7Y4qiLmghQDCn4c9f6DpiOqi4ksQoyycnscT0qh1UdmMdSzCGr4czuG86fHWmp2OijSbPs8p0HG+lgft1ovVdaleeAgp1dUCLK4vFgtiK4NQZz3eSGpfFq1/MVtJim+mYxsVlzmGhjaXH30Jzc0sXc5d6PNLjc7mdRhdwvp83v0XjM3qUbjhegOC/n2v/RKt0dEpcJndWm2FWPSiY9YwBa4J1kJrGCAuzI3rxc8xMKDA+6cHN3nNU1X1SiwSG4wUI9T4Xu45yYFYX0HgaG2lu7CqCiQNjnVqdr5OBW4L5SWY3SsCNhhWkExOzATrdeoh3qDkdRwsQHsYv2w/zVgBd6htcrkjyxKRRtMmhVhix4Jsc0uZ8nQ4W+qFv0OwEyUiXm1LiM41PeoD4D6y+851HHJ/IcKwAYcwqZuBgx5dOFZ7RkTHkiU0xHYBGwBStBELwQNkG4ohmiIqIopRYvQQI4JyxnqptpM444kwcK0CwAur6L5GPu5r1sQZio+ItLRz0Tw5rE0DUBbhfwyYr5yNcUZQYnULuiBjjiB7AgkYxK5pVnby8wJEChIuHJjvUNTi53+tu4EY1W/8Dd8E/PUJTM1L/E0xwD/lNumDIZCa4PRTrtrZKyQ4wxL55qJpbNZyKIwUIw5a6R5toeKJXi0j+7biVC4ZfZpidneaiOZn5HFwQ0Lfi1kZFRauXirN7wu4GMqq9gTa2hJw6rsORAoRKTqSidZz8j9iP2XnCM/NT7LtLADq4wLIcx3U1+TLDRlvdXLAF5ll4u0dbTGcBlxsHCtA8jU/5eRaOjsv4UTUbEWF2+PyM6b4l4d5AeJANMmtN42dqNqlgNzhvZJGn55zp1jtOgJBCxOrh0YlBLVsRMIYDmRMzzOHLIefMNdxBaIFyQhcVBGhaWdVmxd01r0cv2N2AO48MoFMLW50nQOprdGqYZ/vqCN6WKOE3g5Nuc3YCg+AJzjtAUHEaiIGYacfQHVh9gZlR8k/7TLugy4kjLaBx5bfq6orgB272B40HxSnRH8Si5ky2L9wC1wLlFHaD6QSREdG88SIcmZmd5LG+TowtOtICmpyZcGzU/kEg42K2jSISXyaXFwabwbEuGuNZ1OZv2qHxHhq2sJ0iWCCVHhMZazqOM+9Sd6W+Xhhnw5BZdiKOEyCAug1dR1HA5TD7b8cbGnvknQBGmjbxllHzAoRNrk648eEWozYLY1bNAEtOl0kMdwONuFNzk2IBLQ3nXazFsGABmbtZ8YbGShgnRIPw0J1u+8CYyrh0egPtvMveCT9HVDPHuhPYEjIDrHGswNEVCA/PB3LgI+VIAUIa28wsZSeAvjWzb33UD2GOkNshmxi6fI30Sf0veRPJUsAg+CONv+GuficAYY93JxmflgYeXlg/Otak3QICzNs9TArwcuK4pxwBQ5jL6ELWEdRdIIZlBrgKidFex2xiwMN3tu0jOtr0Jg+6epAJD6tpeLyPTrS8S1e7j/NnJxAV6ebragplOYzNjHJQXlcWCimjHWBXfx3nmRnqKqGhU9fCL1Rxo5n0QQ/rvUDjo5Vm1mAzoc7li6a36OO6X3Bv3oSyBL5+bvN83q3q+582/JpONL/NTbVOIToilrxxacanpYEqatSl6daTeDt4lvBMOcG1vxMHWkCwApJNN3TaDRoAccOa7edKjk2jhGhnjQD1Tw3R6bZD9Lvr/4cON/ySqrpO8GokDPpqGblJV3tO0af1v6K3qn9CZ9re55lGZgU4+Li4kTQlNsv4vDQQwLWyYdVuEPfC+Seqe8psDGw5cZ4AqYuUHJPGIgSXRDcQ7MPSRGy2MIM3NoM8seksxE4CbTEtQ9V0rPFNevvGT+k3V/8X/arqb+iNqr9l4Tna+FvOmjltABbuIW9sJiXGmHPBkFQYGHNuN/mDiHRFqecpXVnVSeqeEgF6ILhI8Up8UuNzOCirIxgqZjZmEO9OpIyEPMcEom8HVg1cLaxGgrvVOFilLKGbvMEDlp8TwT2UlVjIMRAzzMxOa7EK6l5gMgN23DvVo3CkiREbFcdbRXV1wwbHe2ncZO8Nsn85SasoTgmRYJ1oJeR5ntWmq6BRQYw1SboSExlPmXiWokSAFg2EB/uYkLlwotn4IIYmejkOZDYOUpBcyi6oYA3cO0nKncfLzEwRIsYCD4x30ZjJxYZ2A/cTG1qyEgscm9RxpADhZslIyKdcC28uO5lU1k/XaJPp6lnEgbKTirXNBDoFxBPzPKXkiU0z9SJDT1+Hr0HJkFMC6ksD7if228MFc+qL3JECBLxKuVenblSuiLkCMjuB5dM2UsOBWzPAAlyVUqmtC+oUoiJiqDhlremsInqoWodroETGEZ1w8XYWPENJZmugVgDHCpBbvf0r0rcpd2SNltmwhZoZc3EgWH3F3rW8X0wwT3pCHuV71pgOQMON7vY38QtFNzCTalXKBiVAmziu6FQc/WQjG7Ql5zHlx6caR/QBneDd/hY245cKzOXU+GwqTdvMaVRh6cCNL/Gup+zEIuPI0mkevkGBKT1XZKfGZdP2/CeVFZRiHHEmjhYgKHdl9h4qU5aQbg8iCtjqBy6bbkdA79Ka1M2U6PAbyKkgjrZGCbjZHjBUQDcNXtOyBQOxn005+6hUuV9Ox/G+DVai7C18gaP5OoGCxIbBq9xHZAa8wQu9FWxG69qYaxe4dgXJZbQqFdfOXPAVY0w7Ruu5EFE3cpJKaFfBs6a3s6wkWtzZBcnlfEF1Y2Csi/cymSUlLoPWZe3iYKKweBB0Xp+1mzyx5l13uF8DY93axX8gOgdKXuXMlw5oIUCoCt6a+ziVKGtAJ8amfVTde065YeYGlOFNvjZ9OxV51/KfhQeDhEWhul7l6VtNu+0YP4IXh9l98nYBa68yay+tzdjBHfA6oI1tnxafSfuKXzHt09sBzPe2kVpu2jQLAvBbcw9wLYvwYDBJYEcegq/mrxeW+bWP1JluKLaL1Lgc5Sk8o1URqzYChKFKyAptyHpYG3UH/WPtVNN/wXQwGm/08vRtVJa2RaygB4BY2YbsvVz7YraIk18aw7XU7W/Wyv2Cl7AlZz+Xb+gUM9TnX6rwKGtgk7rBMhIK1Cc9WjTQS9Q4eJXXTJsl3u3hGFgmn7dwN1C6gJT7roKnLVmLIxP9VDd4ZclTIO0E557vKaf1mbspNirBOKoHWgkQrAHEQyoyHjIGLDkfWD5ww1qGbnJq3gw4b2R1dhc+x2IkfB2MsoVIF6gH0WzbAWY/d442KverRiv3C+e+IWsXty45cebP/dBKgAAaVNdn7qKcpGJtXBJU1NYMXKRRC1MCIbibs/epG223FunVlQQtK2szdirreB/FWOj6xh71m33neZWQLu4XXE1kiXV6Kd+OdgKENoX85DW0NnMnxTtscuC9wJB6uGEdvnrTVhBALdSewheoOGWdlk26ywHigaiX2qlcL5QtWAGWaoNyv6Y0GUAPSw/B9vXK+lno+NfucdZPgADqPNZl7FJ+b6kWFdJ4m2LR37We06bnBAEEF4u85fRI0cuUHp9n2tUIHVyUlpCnRPl5FiErFjF2p9/oO0d9gXZtrB+8hDgkkb7dkuVnJ1oKEB68PE8JrVOuWHy0Hml5jGhFa0bj0FXjiDlQZr9Wmdt7Cp5XQhzeM4PgjkN8KrMe5s2nZoHgNA1X07Xe06YnGNgBmpU35TxiFB3q+TLSUoAAHsStOQeowFOmiek5z/UlV7q+oIDFAVfIdDyU/yS7HTEa+v3BIDYqkc8fQmw19oEY3fnOw1y5rguw/DGyBWUpOpdnaCtAAG+APUUvapMZQkV0tTLz8aa1uvsemY8DJd+ih/IOhp0IYW/aQ3lP0sHVf0xxbmtpZ/wc6geu0KXOo6YmF9iFNy6DDqz6liXLzwloLUAA6UeY4LoUX/knseLmA+oJtFqONXiVAD+x+ru0M/9prSrEzQLXG/G/Hep8nyj9LsVFW5ubjeuPkSnHm3/viB32iwWxn10Fz1FhcplxRF+0FyCYoo+u+rZWRXrNg9fpy/bDll0xkBafpc7/WxwLgUUYqp3zcDOwKeXhwhfp8dWvUUpsJguSFcanR+nLjk85+6UTmJCwu+AZ45PehMTdiqHbe4tf0qYOAqn4i51H6IaFRtWvcHEQcl/xN1iIsFEj1FL0OB+c1351jo8Uv0KpcVmWC+7QcnG95wzH5HSyfuB67yt+lXsEQ4GQECC8HTdm7aXy9O3GEeeDbZun294PytsXlgBiAmhEPFj6x1Sautn0GFKnERnhpmLvOmX1fIcD79gca1V84Hrhup9qO0SD4/qM3MB9vilnP61J26RJ4uXBhIy9Dvdja+6jPIpSB2D5tAzfoBMt76iHwPrmTY6PuJOpMmsPPVP2b2lT7gHOlukMgs2bs/fT8+U/4Dgfurytul0Aw8ZOt77PA+etW6ArB1otcD1CKd4XMgKEilh0QaNGRpfxrag5uaxcgHPtH5seYH8naEsoSVlHL1X8JT215t9w9XQwHtqVBG931Pg8U/49+uaGH/FkwwX32vp5oODwvHJ/r/aedNwa6fuBl8m6zJ2Un1waUnG+yB8rjD9rD9wOxAswSgG1HTqAWERfoIPjOFkJBUExrXGD4oEtSVmvHt6N6loMk39qyPHjRfHvxkbYdRk76TuV/5k2ZT/CJQbBeuDm5mboWt9p+qT+l9z1rgs4/5LU9bSv6BVKj89Vn/V6odyPkBIgPLx48HyTQ9Tjb6HpOT2Ci9irjnXOmYkFHMsJln+PGxXD2dEr5FG/I9iK/y/uR3PMrisXN1QiuAqx3F/yKsexsBElmG96HjI/VE0f1P4z3xs6gbgX6r0qMraH3K64kBIggMFMqJLuHm3htxzW6zodBEGRkh9VVltGQi7PPQpmkBGWYb5nNW/JRPbE7XLzA4kiPDtjIIjxJMelc0XvQ/lP0b7il3j4WrAfMghu20gdfVT3r0qErmtVcIifHZIKuwue5VVNurnTD8I1j/UNIQZmMZ9ofpc+b37LcMX0OMWYqDie5/vY6u9Qoad8GdLp8zQ5M8EtB60jtdSsHkZkg5CRC6hrthIzcGDtxEcnkyc6hRtI0dlflFzBLijOP9hAYHGOnzW+QVe7T2pjFQOIDWqfDpb+CW3PezwkN+WGpADBouj0NdI7N/6BavsvLLgcmhCtrIINWXu4pgdDyJZn/Ow8B8BhdfX626nD30hd6nphdvWQcgWDHS+C6CREe7l+B2MjcpNXU05isXI58znYvFwPFm7t1pGbdLTpTbreczpogf6VAtb85uwD9Fz5nyuB1iO7u1RCUoAA3ItzHZ/Su0qE8EDpBDIesIRQ4b0w43f5zG6IM2JDGB2LONTgWDf1jXVw4yzECNYSBnVNLzJjhLd2VGQMp8yRgfPGZlJ2YiGPD0mNz+KYFOY4Rau/s9zZyvaRevqk/hc8ZkM38QG4ft+t/K9UnrE9qC65kwhZAQJ4qP7l0n+n672njCP6AKsAQ/ifLfseFSlXZfmZV+7KHLss07NT6oEdp8nZcU5bY7kiVk1jTc2CGE0pV2aKr2+8O5EtnOioWK5PSVKuFUQGo0LgUiHOg8QApjjiIUJgefnjGPNKfBroUO3Pqa7/olbp9tvZX/wqvbT2L0N6AmZICxDo8DXQ3xz/C63csFug8rU4ZT29svaHLELBzAotFq4SVrfIHP6kBOrWZ9w0OOoiCIpCWWn8pf6NLDFsta18wPTWDO63qn9CzcPVnHrXEawX+vFjr2sz78osIS9A4J3qf6AjTa9rlf24BR7qvORSeq7s+7QmbYuyKhAvWfkH2/kgrjVBtcriOVTzc+ocbdLy5w2QxX1t41/RzvynjCOhS2g6lneAPqI8Tyk/zLoBWwNWHN7op9re5ziNTu0DKwGux9B4H51p+4h+V/13fL10FR+4qRgwvzXnUeNIaBMWAoQZMuikRiZGR/AwYVbxp/W/oKONv+UeJsRnFhyh8GZyZpxahm/SsaY31fX5FfUHOo3v6ElafC49UvQix9XCgbAQIMQlytK3cCWpzj9YBIHPtX9EHyshwhgJFC7CRgpHEDlAjVdV9wnOdJ1p+5DrmXQGQXuUYGDNTii1W9yPsIgBAWRtUAuCUvyu0SbjqJ4gRoBWBdys2IWV51kdNm9MAJerdbiWLnd/zjOV+gJt/PPVGQhOScoGeq7sz7mpOjJC3znPSyFsBAjuCsYwHGn8DZ1t+0jLupDbQawgzp1EOUkltD3vSV5aCFcz1AlM+ZTVc5zOdxymdl8d/xzN7t13EmiRQZjg4aIXuDgzXAgbAQLof6obuETv3fhHTtWGQgwFQoSh/IXJFTx+Ax3woWi+ozIbfVyfNb7OTaWoQQqVYHyEK4rK0rbQ8xU/4DnPdpRb2EVYCRDwT43QF82/V7/eCspMZieBURbb8w7SvuKXKT0hlyuNdcz83QIvCFS0oxr7VOshOtv+Ucj9zACWC6Dfa2fBMyHZ73U/wk6AAN6k7938Ga9L1rFA8X6geDE9IZ+25T7Gw9kwPwbCxGKkgWWE2xE/E1RcY07Szb4v6WLXUeoPtIeEq3UniOdh3/+zZd9X7nSxcTR8CEsBQsHaiZZ36UjD6+SbHDCOhha4sbMSC2lN2mZalVpJ2YnFPFcGb1h02TvLMppXLtYMlxYgs4VRKtjVVTdwkf+sw0gVsyDtjnYbdLvj5RFuhKUAAXR+/776p3Sj72xIvllvgW56jHTITVpFBd4K9XsxN4ZiABj6uOy86RHDQSxndGqY+sc6qWOkntp8ddTpa2C3K9QLLvEieCjvKXqh4t+RR/08wpGwFSDc3Fe6T9DrVf+T5weFOhAaBKu9ygrKSCig7KQizqBhRAYG+qN7HVbTcoN5PMhkYVgchvF3jzZRt3oZoNAS1czjmEsU4sJzC7wY/nTzf+O0e7gStgIEJmbGuMXhdOsh40joA9cLQoPudYgOOtdTlAhBiNIT8vjPCIomYU5PVJxlVw3X2K8sHIjL8EQvVypjFQ6664cwCG1qhF3imbkpjv+EEy9V/Hs6sOqbYVXDdSdhLUCgX5n6//vUj9QbWe8qWjNAXGAZIZUPUUKwGr8wj2hhnk82j4dNivFybQpWIWMXeXQE4kjKdTPunBnCCA/Mm56gsalRzjRCdBDPGRjr4GPjM371K8DjPVA0iC51uL7h2k5S5F1HP9zx12FRu3U/wl6AwOnWD+hXVX9tfAp3FmweZMx4fg+Gayix4SEb6pjxXeP3hVvn1v/yl7qd5pQgzc9BXNSfEF9Tx27/m+GOS4n+j3b9LS8YDHdEgBS+iQH618v/g2r7z/NDJAjLBUR9V8FzPGgslBYMmiV8Si7vA4ak7yl8jpJiQ2PftuBMYDVmJhRyjZbuW2uDhQiQAvEMTBzckLkn7CpRhZUD8TUsW0T2EZaQIALE4M2EVPT6rN2UmViofHS5LEJwQT0WhuJhwLy4Xl8hT5oBisKwBqcifTvP4xWEYJIYk8K73WH9BH/fm76IABnACsKyPAwtQ09OOJbFC8sD6nwwrQBbX8X6+UNEgG4DbybEgrCTS4KEQrBIjPHS+sxdEvu5C3I17gDCU2mMxZSbRbAKLGnsvkfHezhXPN8LecLuQq5nNYsQJg4KghWQ3Nicc4B/F76OCNA92JJ7gJsEQ3G6oLAyYAbTOuXOb1Dul3B3RIDuAXqg9ha9yLN6BcEMGQn5tL/k1ZBerWwVEaD7gGFeO/KeJvRDCcJSQEHrI8WvUHYYTjlcCvJk3Qd0iKNFo8BbbhwRhMWBTOqWnP1c3iHcGxGgB5Aan8VD3mMkLS8sEm9cJu1WL66E6GTjiHAvRIAeAAKJZelbqTJrt3FEEO4NLJ4t2Qeo2LtWyjgWgVyhRZAUnUIbs/fyhglBuBcQn0IlPKj5QeOp8GBEgBYBCsiwNndt5g7plhfuCerG0O+Vn1wqrTyLRARokWAk6frMPVJOL9wVtPEUest5F5u08SweeZIWCawgdMtjnIJUSAt/iIvrxVB0iF1sYv0sHhGgJZAY7VE32U5u1RArSLgFZv0g6LzwcpLYz1KQp2gJ4M2Wp8RnfcYuig/zbQbCVyTHpVNl1l7KTCjgQLSweESAlkhsVDxtztnH0+0E4Va3O6ZpSrf70hEBMkFqXDbtLniO57wI4Q2WOKLlIkHigqYQATIBOuRRZl+WtlViQWEMMl/b8p6gEu8644iwVOTpMQlM7ydK/4i3hwrhSU7SKtpf/A0Z2WIBESAL5KobcHfBszJuIQyJd3vosVXflnEtFhEBsgDSr1tyH10YXCbZj7AB/YEbsvbwkHlxwa0hV88iqXFZtCPvIHli04wjQqiTmVhA2/Mep0TpdreMCJBFoiKiqDRtE63N2Clp2DAAbRZoyclPLuM4oGANESDLuMgTk877vtEnJoQu2Jhb6K2gLTn7KMEthajBQAQoCGC3PBoRd+Q/TSnKJZN4UOiBn2lmQj7tLniGx6xK7Cc4yFUMEth4uTlnP23Pe5LX8AqhhIu8cRm0p/B5Wpu5U0ayBBERoCCCqlhs0tiRf5CHmIklpD/4GUJ8HlY/V7xcxPUKLq55hfFnIUgMjffS6bYP6Fz7xzQ43k3z83PGdwSdQKUzpmDuLXqZtuU9xi8VIbiIAC0T/qlhutx9nM60vk+do400PTtpfEfQAWS7SlI30K78Z5Xb9RDFyZCxZUEEaBmZnBmn1pEatoSqe8/S6OQgzasvwbkgtY5m48rsh5Ur/RRlJxZJecUyIgK0zODy+iYH6HrvGTrf8Sk1DV2nmblp47uCk4iJiqc1aVs4hoffE6I9EsdbZkSAVojp2SnqH+ugG31f0qWuY9Tjb6Wp2XGanZsx/oaw8ri4kDQ2KpHH7W7NfYxWp22k1NhMjv8Iy48I0AqCSz09N6ksokFqHLpGNX3nqX2kjgLTPhqf9nOcSFy05QXFhEijxynR8cSkKOEp520nJSnreNY33C2xelYOESBbmKc5ddmnZieoP9BBHaON1OFroF5lFY3P+GlmVly05cAdGc2jdHMSS3iuN8brpsZlkjsimoVJWHlEgBwArB4ErANTI0qAApIxWybY8nEnchMpRqiIpWM/IkCCINiG2J2CINiGCJAgCLYhAiQIgm2IAAmCYBsiQIIg2IYIkCAItiECJAiCbYgACYJgGyJAgiDYhgiQIAi2IQIkCIJtiAAJgmAbIkCCINiGCJAgCLYhAiQIgm2IAAmCYBsiQIIg2IYIkCAItiECJAiCbYgACYJgGyJAgiDYhgiQIAi2IQIkCIJtiAAJgmAbIkCCINiGCJAgCLYhAiQIgm2IAAmCYBsiQIIg2IYIkCAItiECJAiCbYgACYJgGyJAgiDYhgiQIAi2IQIkCIJtiAAJgmAbIkCCINiGCJAgCLYhAiQIgm2IAAmCYBNE/w/rnKUZPJRElQAAAABJRU5ErkJggg==;" parent="1" vertex="1">
          <mxGeometry x="341.09000000000003" y="416" width="38" height="38" as="geometry" />
        </mxCell>
        <mxCell id="AIz6P5B00cFlkQq6YOMH-28" value="&lt;b&gt;&lt;font style=&quot;font-size: 14px;&quot;&gt;BAT&lt;/font&gt;&lt;/b&gt;" style="text;strokeColor=none;align=center;fillColor=none;html=1;verticalAlign=middle;whiteSpace=wrap;rounded=0;" parent="1" vertex="1">
          <mxGeometry x="-10.469999999999999" y="51.949999999999996" width="70" height="30" as="geometry" />
        </mxCell>
        <mxCell id="AIz6P5B00cFlkQq6YOMH-31" value="" style="shape=image;html=1;verticalLabelPosition=bottom;verticalAlign=top;imageAspect=1;aspect=fixed;image=img/clipart/Gear_128x128.png" parent="1" vertex="1">
          <mxGeometry x="707.95" y="90.9" width="34.09" height="40" as="geometry" />
        </mxCell>
        <mxCell id="AIz6P5B00cFlkQq6YOMH-32" value="&lt;font style=&quot;font-size: 8px;&quot;&gt;&lt;font style=&quot;font-size: 8px;&quot;&gt;Kafka&amp;nbsp;&lt;/font&gt;&lt;span style=&quot;background-color: initial;&quot;&gt;Topic: sampling_events&lt;/span&gt;&lt;/font&gt;" style="text;strokeColor=none;align=left;fillColor=none;html=1;verticalAlign=middle;whiteSpace=wrap;rounded=0;fontStyle=0;fontSize=10;" parent="1" vertex="1">
          <mxGeometry x="670" y="327" width="126" height="40" as="geometry" />
        </mxCell>
        <mxCell id="ezCR48_psinjx6vG_br_-1" value="&lt;font style=&quot;font-size: 8px;&quot;&gt;Harmonogram&lt;/font&gt;" style="html=1;shadow=0;dashed=0;align=center;verticalAlign=middle;shape=mxgraph.arrows2.arrow;dy=0;dx=10;notch=0;rotation=0;" vertex="1" parent="1">
          <mxGeometry x="404.03" y="100" width="100.47" height="20" as="geometry" />
        </mxCell>
        <mxCell id="ezCR48_psinjx6vG_br_-2" value="&lt;span style=&quot;font-size: 8px; text-align: center; text-wrap: nowrap;&quot;&gt;REST API&lt;/span&gt;&lt;div&gt;&lt;span style=&quot;font-size: 8px; text-align: center; text-wrap: nowrap;&quot;&gt;uruchomienie samplingu&lt;/span&gt;&lt;br&gt;&lt;/div&gt;" style="text;strokeColor=none;align=left;fillColor=none;html=1;verticalAlign=middle;whiteSpace=wrap;rounded=0;fontStyle=0;fontSize=10;" vertex="1" parent="1">
          <mxGeometry x="569.53" y="66.95" width="92" height="40" as="geometry" />
        </mxCell>
        <mxCell id="ezCR48_psinjx6vG_br_-5" value="" style="html=1;shadow=0;dashed=0;align=center;verticalAlign=middle;shape=mxgraph.arrows2.arrow;dy=0;dx=10;notch=0;rotation=0;" vertex="1" parent="1">
          <mxGeometry x="569.53" y="100" width="100.47" height="17.81" as="geometry" />
        </mxCell>
        <mxCell id="ezCR48_psinjx6vG_br_-6" value="" style="html=1;shadow=0;dashed=0;align=center;verticalAlign=middle;shape=mxgraph.arrows2.arrow;dy=0;dx=10;notch=0;rotation=90;" vertex="1" parent="1">
          <mxGeometry x="695" y="220" width="70" height="20" as="geometry" />
        </mxCell>
        <mxCell id="ezCR48_psinjx6vG_br_-8" value="" style="html=1;shadow=0;dashed=0;align=center;verticalAlign=middle;shape=mxgraph.arrows2.arrow;dy=0;dx=10;notch=0;rotation=-180;" vertex="1" parent="1">
          <mxGeometry x="423.52" y="156.95" width="242.24" height="20" as="geometry" />
        </mxCell>
        <mxCell id="ezCR48_psinjx6vG_br_-10" value="" style="html=1;shadow=0;dashed=0;align=center;verticalAlign=middle;shape=mxgraph.arrows2.arrow;dy=0;dx=10;notch=0;rotation=-180;" vertex="1" parent="1">
          <mxGeometry x="578" y="293.13" width="117" height="18.5" as="geometry" />
        </mxCell>
        <mxCell id="ezCR48_psinjx6vG_br_-11" value="" style="html=1;shadow=0;dashed=0;align=center;verticalAlign=middle;shape=mxgraph.arrows2.arrow;dy=0;dx=10;notch=0;rotation=90;" vertex="1" parent="1">
          <mxGeometry x="439.05" y="445.98" width="193.9" height="21.95" as="geometry" />
        </mxCell>
        <mxCell id="ezCR48_psinjx6vG_br_-14" value="" style="html=1;shadow=0;dashed=0;align=center;verticalAlign=middle;shape=mxgraph.arrows2.arrow;dy=0;dx=10;notch=0;rotation=-90;" vertex="1" parent="1">
          <mxGeometry x="330.1" y="245.17" width="60.07" height="20" as="geometry" />
        </mxCell>
        <mxCell id="ezCR48_psinjx6vG_br_-15" value="" style="image;aspect=fixed;perimeter=ellipsePerimeter;html=1;align=center;shadow=0;dashed=0;spacingTop=3;image=img/lib/active_directory/cluster_server.svg;" vertex="1" parent="1">
          <mxGeometry x="224.76999999999998" y="560" width="50" height="50" as="geometry" />
        </mxCell>
        <mxCell id="ezCR48_psinjx6vG_br_-16" value="CBM - billing" style="text;strokeColor=none;align=left;fillColor=none;html=1;verticalAlign=middle;whiteSpace=wrap;rounded=0;fontStyle=0" vertex="1" parent="1">
          <mxGeometry x="504.5" y="600" width="72.92" height="40" as="geometry" />
        </mxCell>
        <mxCell id="ezCR48_psinjx6vG_br_-17" value="DEG generowania faktur" style="text;strokeColor=none;align=left;fillColor=none;html=1;verticalAlign=middle;whiteSpace=wrap;rounded=0;fontStyle=0" vertex="1" parent="1">
          <mxGeometry x="307.4" y="600" width="141.57" height="40" as="geometry" />
        </mxCell>
        <mxCell id="ezCR48_psinjx6vG_br_-19" value="SKF weryfikacja&amp;nbsp;&lt;span style=&quot;background-color: initial;&quot;&gt;faktur&lt;/span&gt;" style="text;strokeColor=none;align=left;fillColor=none;html=1;verticalAlign=middle;whiteSpace=wrap;rounded=0;fontStyle=0" vertex="1" parent="1">
          <mxGeometry x="177.39000000000001" y="600" width="195.23" height="40" as="geometry" />
        </mxCell>
        <mxCell id="ezCR48_psinjx6vG_br_-21" value="" style="html=1;shadow=0;dashed=0;align=center;verticalAlign=middle;shape=mxgraph.arrows2.arrow;dy=0;dx=10;notch=0;rotation=-180;" vertex="1" parent="1">
          <mxGeometry x="404.03" y="575.75" width="88.97" height="18.5" as="geometry" />
        </mxCell>
        <mxCell id="ezCR48_psinjx6vG_br_-22" value="" style="html=1;shadow=0;dashed=0;align=center;verticalAlign=middle;shape=mxgraph.arrows2.arrow;dy=0;dx=10;notch=0;rotation=-90;" vertex="1" parent="1">
          <mxGeometry x="345.54" y="515.54" width="51.09" height="20" as="geometry" />
        </mxCell>
        <mxCell id="ezCR48_psinjx6vG_br_-23" value="" style="html=1;shadow=0;dashed=0;align=center;verticalAlign=middle;shape=mxgraph.arrows2.arrow;dy=0;dx=10;notch=0;rotation=-225;" vertex="1" parent="1">
          <mxGeometry x="258.03" y="521.87" width="65.29" height="20" as="geometry" />
        </mxCell>
        <mxCell id="ezCR48_psinjx6vG_br_-24" value="&lt;font style=&quot;text-align: center; text-wrap: nowrap;&quot;&gt;Flink - losowanie&lt;/font&gt;&lt;div&gt;&lt;font style=&quot;text-align: center; text-wrap: nowrap;&quot;&gt;profili&lt;/font&gt;&lt;div style=&quot;text-wrap: nowrap;&quot;&gt;billingowych&lt;/div&gt;&lt;/div&gt;" style="text;strokeColor=none;align=left;fillColor=none;html=1;verticalAlign=middle;whiteSpace=wrap;rounded=0;fontStyle=0;fontSize=10;" vertex="1" parent="1">
          <mxGeometry x="684" y="136.95" width="92" height="40" as="geometry" />
        </mxCell>
        <mxCell id="ezCR48_psinjx6vG_br_-35" value="&lt;font style=&quot;font-size: 8px;&quot;&gt;&lt;span style=&quot;text-align: center; text-wrap: nowrap;&quot;&gt;Konfiguracja reguł&amp;nbsp;&lt;/span&gt;&lt;br style=&quot;padding: 0px; margin: 0px; text-align: center; text-wrap: nowrap;&quot;&gt;&lt;span style=&quot;text-align: center; text-wrap: nowrap;&quot;&gt;i harmonogarmu losowania.&lt;/span&gt;&lt;/font&gt;" style="text;strokeColor=none;align=left;fillColor=none;html=1;verticalAlign=middle;whiteSpace=wrap;rounded=0;fontStyle=0;fontSize=10;" vertex="1" parent="1">
          <mxGeometry x="372.62" y="235.17000000000002" width="130.95" height="40" as="geometry" />
        </mxCell>
        <mxCell id="ezCR48_psinjx6vG_br_-37" value="&lt;div style=&quot;&quot;&gt;&lt;span style=&quot;font-size: 8px; text-wrap: nowrap;&quot;&gt;Postgres&lt;/span&gt;&lt;/div&gt;&lt;div style=&quot;&quot;&gt;&lt;span style=&quot;font-size: 8px; text-wrap: nowrap;&quot;&gt;Konfiguracja reguł i harmonogramu&lt;/span&gt;&lt;/div&gt;&lt;div style=&quot;&quot;&gt;&lt;span style=&quot;font-size: 8px; text-wrap: nowrap;&quot;&gt;Dane kliena&lt;/span&gt;&lt;/div&gt;&lt;div style=&quot;&quot;&gt;&lt;span style=&quot;font-size: 8px; text-wrap: nowrap;&quot;&gt;Wylosowane profile&lt;/span&gt;&lt;/div&gt;" style="text;strokeColor=none;align=left;fillColor=none;html=1;verticalAlign=middle;whiteSpace=wrap;rounded=0;fontStyle=0;fontSize=10;" vertex="1" parent="1">
          <mxGeometry x="316.15" y="181.95000000000002" width="130.95" height="40" as="geometry" />
        </mxCell>
        <mxCell id="ezCR48_psinjx6vG_br_-38" value="&lt;div style=&quot;text-align: center;&quot;&gt;&lt;span style=&quot;font-size: 8px; text-wrap: nowrap;&quot;&gt;Wylosowane profile&lt;/span&gt;&lt;/div&gt;" style="text;strokeColor=none;align=left;fillColor=none;html=1;verticalAlign=middle;whiteSpace=wrap;rounded=0;fontStyle=0;fontSize=10;" vertex="1" parent="1">
          <mxGeometry x="494.96" y="156.95" width="92" height="20" as="geometry" />
        </mxCell>
        <mxCell id="ezCR48_psinjx6vG_br_-39" value="&lt;div style=&quot;font-size: 8px;&quot;&gt;&lt;span style=&quot;text-wrap: nowrap;&quot;&gt;&lt;font style=&quot;font-size: 8px;&quot;&gt;Notyfikacja o zakończebiu&lt;/font&gt;&lt;/span&gt;&lt;/div&gt;&lt;div style=&quot;font-size: 8px;&quot;&gt;&lt;span style=&quot;text-wrap: nowrap;&quot;&gt;&lt;font style=&quot;font-size: 8px;&quot;&gt;losowania&lt;/font&gt;&lt;/span&gt;&lt;/div&gt;" style="text;strokeColor=none;align=left;fillColor=none;html=1;verticalAlign=middle;whiteSpace=wrap;rounded=0;fontStyle=0;fontSize=10;" vertex="1" parent="1">
          <mxGeometry x="615.95" y="215.17" width="92" height="34.83" as="geometry" />
        </mxCell>
        <mxCell id="ezCR48_psinjx6vG_br_-40" value="&lt;div style=&quot;font-size: 8px;&quot;&gt;&lt;span style=&quot;text-wrap: nowrap;&quot;&gt;samping_event&lt;/span&gt;&lt;/div&gt;" style="text;strokeColor=none;align=left;fillColor=none;html=1;verticalAlign=middle;whiteSpace=wrap;rounded=0;fontStyle=0;fontSize=10;" vertex="1" parent="1">
          <mxGeometry x="608" y="284.96999999999997" width="92" height="34.83" as="geometry" />
        </mxCell>
        <mxCell id="ezCR48_psinjx6vG_br_-41" value="&lt;div style=&quot;text-align: center; font-size: 8px;&quot;&gt;&lt;span style=&quot;background-color: initial; text-wrap: nowrap;&quot;&gt;&lt;font style=&quot;font-size: 8px;&quot;&gt;Uruchomienie procesu&lt;/font&gt;&lt;/span&gt;&lt;/div&gt;&lt;div style=&quot;font-size: 8px;&quot;&gt;&lt;span style=&quot;background-color: initial; text-wrap: nowrap;&quot;&gt;&lt;font style=&quot;font-size: 8px;&quot;&gt;&amp;nbsp;billinguu&amp;nbsp; w CBM&lt;/font&gt;&lt;/span&gt;&lt;/div&gt;" style="text;strokeColor=none;align=left;fillColor=none;html=1;verticalAlign=middle;whiteSpace=wrap;rounded=0;fontStyle=0;fontSize=10;" vertex="1" parent="1">
          <mxGeometry x="504.5" y="319.8" width="130.95" height="40" as="geometry" />
        </mxCell>
        <mxCell id="ezCR48_psinjx6vG_br_-42" value="&lt;div style=&quot;text-align: center; font-size: 8px;&quot;&gt;&lt;span style=&quot;text-wrap: nowrap;&quot;&gt;REST API&lt;/span&gt;&lt;/div&gt;" style="text;strokeColor=none;align=left;fillColor=none;html=1;verticalAlign=middle;whiteSpace=wrap;rounded=0;fontStyle=0;fontSize=10;rotation=-90;" vertex="1" parent="1">
          <mxGeometry x="514.48" y="416" width="43.04" height="22.25" as="geometry" />
        </mxCell>
        <mxCell id="ezCR48_psinjx6vG_br_-43" value="" style="shape=image;html=1;verticalLabelPosition=bottom;verticalAlign=top;imageAspect=1;aspect=fixed;image=img/clipart/Gear_128x128.png" vertex="1" parent="1">
          <mxGeometry x="543.96" y="560" width="25.57" height="30" as="geometry" />
        </mxCell>
        <mxCell id="ezCR48_psinjx6vG_br_-44" value="" style="shape=image;html=1;verticalLabelPosition=bottom;verticalAlign=top;imageAspect=1;aspect=fixed;image=img/clipart/Gear_128x128.png" vertex="1" parent="1">
          <mxGeometry x="372.62" y="550" width="25.57" height="30" as="geometry" />
        </mxCell>
        <mxCell id="ezCR48_psinjx6vG_br_-45" value="" style="shape=image;html=1;verticalLabelPosition=bottom;verticalAlign=top;imageAspect=1;aspect=fixed;image=img/clipart/Gear_128x128.png" vertex="1" parent="1">
          <mxGeometry x="214.43" y="550" width="25.57" height="30" as="geometry" />
        </mxCell>
        <mxCell id="ezCR48_psinjx6vG_br_-46" value="&lt;div style=&quot;text-align: center; font-size: 8px;&quot;&gt;&lt;span style=&quot;text-wrap: nowrap;&quot;&gt;Pliki faktur&lt;/span&gt;&lt;/div&gt;" style="text;strokeColor=none;align=left;fillColor=none;html=1;verticalAlign=middle;whiteSpace=wrap;rounded=0;fontStyle=0;fontSize=10;rotation=-90;" vertex="1" parent="1">
          <mxGeometry x="348.58000000000004" y="513.29" width="43.04" height="22.25" as="geometry" />
        </mxCell>
        <mxCell id="ezCR48_psinjx6vG_br_-47" value="&lt;div style=&quot;text-align: center; font-size: 8px;&quot;&gt;&lt;span style=&quot;text-wrap: nowrap;&quot;&gt;Pliki faktur&lt;/span&gt;&lt;/div&gt;" style="text;strokeColor=none;align=left;fillColor=none;html=1;verticalAlign=middle;whiteSpace=wrap;rounded=0;fontStyle=0;fontSize=10;rotation=-45;" vertex="1" parent="1">
          <mxGeometry x="273.11" y="515.54" width="43.04" height="22.25" as="geometry" />
        </mxCell>
        <mxCell id="ezCR48_psinjx6vG_br_-49" value="" style="image;aspect=fixed;perimeter=ellipsePerimeter;html=1;align=center;shadow=0;dashed=0;spacingTop=3;image=img/lib/active_directory/windows_server.svg;" vertex="1" parent="1">
          <mxGeometry x="16.81" y="81.95" width="42.72" height="52.1" as="geometry" />
        </mxCell>
        <mxCell id="ezCR48_psinjx6vG_br_-51" value="" style="image;aspect=fixed;perimeter=ellipsePerimeter;html=1;align=center;shadow=0;dashed=0;spacingTop=3;image=img/lib/active_directory/site_collection.svg;" vertex="1" parent="1">
          <mxGeometry x="140" y="87.4" width="50" height="47" as="geometry" />
        </mxCell>
        <mxCell id="ezCR48_psinjx6vG_br_-52" value="" style="html=1;shadow=0;dashed=0;align=center;verticalAlign=middle;shape=mxgraph.arrows2.arrow;dy=0;dx=10;notch=0;rotation=0;" vertex="1" parent="1">
          <mxGeometry x="67.78999999999999" y="93.61999999999999" width="62.21" height="22.45" as="geometry" />
        </mxCell>
        <mxCell id="ezCR48_psinjx6vG_br_-53" value="" style="html=1;shadow=0;dashed=0;align=center;verticalAlign=middle;shape=mxgraph.arrows2.arrow;dy=0;dx=10;notch=0;rotation=0;" vertex="1" parent="1">
          <mxGeometry x="204.14" y="97.68" width="95.86" height="22.32" as="geometry" />
        </mxCell>
        <mxCell id="ezCR48_psinjx6vG_br_-54" value="&lt;div style=&quot;text-align: center;&quot;&gt;&lt;span style=&quot;font-size: 8px; text-wrap: nowrap;&quot;&gt;NiFi&lt;/span&gt;&lt;/div&gt;" style="text;strokeColor=none;align=left;fillColor=none;html=1;verticalAlign=middle;whiteSpace=wrap;rounded=0;fontStyle=0;fontSize=10;" vertex="1" parent="1">
          <mxGeometry x="516" y="60" width="24" height="30" as="geometry" />
        </mxCell>
        <mxCell id="ezCR48_psinjx6vG_br_-58" value="&lt;div style=&quot;text-align: center;&quot;&gt;&lt;span style=&quot;font-size: 8px; text-wrap: nowrap;&quot;&gt;NiFi&lt;/span&gt;&lt;/div&gt;" style="text;strokeColor=none;align=left;fillColor=none;html=1;verticalAlign=middle;whiteSpace=wrap;rounded=0;fontStyle=0;fontSize=10;" vertex="1" parent="1">
          <mxGeometry x="139.99999999999997" y="126.95" width="24" height="30" as="geometry" />
        </mxCell>
        <mxCell id="ezCR48_psinjx6vG_br_-59" value="&lt;div style=&quot;text-align: center;&quot;&gt;&lt;span style=&quot;font-size: 8px; text-wrap: nowrap;&quot;&gt;Serwer SFTP&lt;/span&gt;&lt;/div&gt;" style="text;strokeColor=none;align=left;fillColor=none;html=1;verticalAlign=middle;whiteSpace=wrap;rounded=0;fontStyle=0;fontSize=10;" vertex="1" parent="1">
          <mxGeometry x="1.3599999999999994" y="130.9" width="60" height="30" as="geometry" />
        </mxCell>
        <mxCell id="ezCR48_psinjx6vG_br_-61" value="&lt;div style=&quot;text-align: center;&quot;&gt;&lt;span style=&quot;font-size: 8px; text-wrap: nowrap;&quot;&gt;Dane o klientach i&amp;nbsp;&lt;/span&gt;&lt;/div&gt;&lt;div style=&quot;&quot;&gt;&lt;span style=&quot;font-size: 8px; text-wrap: nowrap;&quot;&gt;p&lt;/span&gt;&lt;span style=&quot;font-size: 8px; text-wrap: nowrap; background-color: initial;&quot;&gt;roduktach&lt;/span&gt;&lt;/div&gt;" style="text;strokeColor=none;align=left;fillColor=none;html=1;verticalAlign=middle;whiteSpace=wrap;rounded=0;fontStyle=0;fontSize=10;" vertex="1" parent="1">
          <mxGeometry x="64.99999999999999" y="60.900000000000006" width="67.79" height="30" as="geometry" />
        </mxCell>
        <mxCell id="ezCR48_psinjx6vG_br_-62" value="&lt;div style=&quot;text-align: center;&quot;&gt;&lt;span style=&quot;font-size: 8px; text-wrap: nowrap;&quot;&gt;Dane o klientach i&amp;nbsp;&lt;/span&gt;&lt;/div&gt;&lt;div style=&quot;&quot;&gt;&lt;span style=&quot;font-size: 8px; text-wrap: nowrap;&quot;&gt;p&lt;/span&gt;&lt;span style=&quot;font-size: 8px; text-wrap: nowrap; background-color: initial;&quot;&gt;roduktach&lt;/span&gt;&lt;/div&gt;" style="text;strokeColor=none;align=left;fillColor=none;html=1;verticalAlign=middle;whiteSpace=wrap;rounded=0;fontStyle=0;fontSize=10;" vertex="1" parent="1">
          <mxGeometry x="237.4" y="190" width="67.79" height="30" as="geometry" />
        </mxCell>
        <mxCell id="ezCR48_psinjx6vG_br_-63" value="&lt;div style=&quot;text-align: center;&quot;&gt;&lt;span style=&quot;font-size: 8px; text-wrap: nowrap;&quot;&gt;Dane o klientach i&amp;nbsp;&lt;/span&gt;&lt;/div&gt;&lt;div style=&quot;&quot;&gt;&lt;span style=&quot;font-size: 8px; text-wrap: nowrap;&quot;&gt;p&lt;/span&gt;&lt;span style=&quot;font-size: 8px; text-wrap: nowrap; background-color: initial;&quot;&gt;roduktach&lt;/span&gt;&lt;/div&gt;" style="text;strokeColor=none;align=left;fillColor=none;html=1;verticalAlign=middle;whiteSpace=wrap;rounded=0;fontStyle=0;fontSize=10;" vertex="1" parent="1">
          <mxGeometry x="204.14" y="63.620000000000005" width="67.79" height="30" as="geometry" />
        </mxCell>
        <mxCell id="ezCR48_psinjx6vG_br_-64" value="&lt;div style=&quot;text-align: center;&quot;&gt;&lt;span style=&quot;font-size: 8px; text-wrap: nowrap;&quot;&gt;ETL&lt;/span&gt;&lt;/div&gt;" style="text;strokeColor=none;align=left;fillColor=none;html=1;verticalAlign=middle;whiteSpace=wrap;rounded=0;fontStyle=0;fontSize=10;" vertex="1" parent="1">
          <mxGeometry x="-40.00000000000003" y="89.83999999999999" width="24" height="30" as="geometry" />
        </mxCell>
      </root>
    </mxGraphModel>
  </diagram>
</mxfile>
